<svg id="Layer_1" data-name="Layer 1" xmlns="http://www.w3.org/2000/svg" viewBox="0 0 1049.89 515.04"><defs><style>.cls-1{fill:#f79222;}.cls-2{fill:#58595b;}.cls-13,.cls-14,.cls-15,.cls-16,.cls-18,.cls-19,.cls-2,.cls-21,.cls-3,.cls-4,.cls-5,.cls-6,.cls-7,.cls-8,.cls-9{stroke:#231f20;stroke-miterlimit:10;}.cls-2,.cls-3,.cls-4,.cls-5,.cls-6,.cls-7,.cls-8{stroke-width:1.49px;}.cls-3{fill:#939598;}.cls-4{fill:#6d6e71;}.cls-5{fill:#a7a9ac;}.cls-11,.cls-17,.cls-21,.cls-6{fill:none;}.cls-7{fill:#f79221;}.cls-12,.cls-13,.cls-14,.cls-15,.cls-16,.cls-19,.cls-8{fill:#231f20;}.cls-18,.cls-9{fill:#f7941d;}.cls-9{stroke-width:1.14px;}.cls-10{fill:#fbb040;}.cls-11,.cls-17{stroke:#fbb040;stroke-linecap:round;stroke-linejoin:round;}.cls-11{stroke-width:2.66px;}.cls-13{font-size:31.69px;letter-spacing:0em;}.cls-13,.cls-14,.cls-15,.cls-16{stroke-width:0.76px;}.cls-13,.cls-14,.cls-15,.cls-23{font-family:ArialRoundedMTBold, Arial Rounded MT Bold;}.cls-14{font-size:44.53px;letter-spacing:0em;}.cls-15{font-size:29.54px;letter-spacing:0em;}.cls-17{stroke-width:3.54px;}.cls-18,.cls-19{stroke-width:0.66px;}.cls-20{fill:#b76e11;}.cls-21{stroke-width:1px;}.cls-22{fill:#fffffd;}.cls-23{font-size:94.35px;fill:#fff;}.cls-24{letter-spacing:-0.05em;}</style></defs><title>event-logo</title><path class="cls-1" d="M875.15,294.67h-.46l-.7-.24h-1.63c-.93,0-2.1.24-3.49.24a19.69,19.69,0,0,1-8.15-1.63c-1.16,3.25-2.56,6.75-3.72,10a52.3,52.3,0,0,1-12.57,19.79c-5.36,5.35-10.48,11.17-16.06,16.06a4.35,4.35,0,0,0-2.8,1.16h0c-6.28-1.39-11.63-4.89-17-7.68-2.32-1.16-4-1.16-5.35.23a23.6,23.6,0,0,0-4.42,6.29c-1.86,4.19-3,4.65-7,1.86-1.17-.93-1.4-1.16-2.33.23-2.1,2.8-4.42,5.12-6.75,7.92h0a1.21,1.21,0,0,0-1.7.19,1.28,1.28,0,0,0-.16.27c0,.23-.24.23-.24.47l-.46.7c-1.17-.24-2.1-.47-3,.46a11.55,11.55,0,0,0-4.89-.93c-5.58.47-11.4,8.38-10.7,15.36a21.88,21.88,0,0,0-.23,4l-.47,1.16a3.33,3.33,0,0,1,.47,1.4,3.33,3.33,0,0,1-.47-1.4l-.47.7c-1.63,1.4-1.63,4-3.72,4.89-4.42,0-7.91,2.33-11.64,3.72-10,3.26-20.25,3.26-30.49,4.43h-6c-3.72-.94-7.91.46-11.64-.94a9.45,9.45,0,0,0-7-1.86c-4.42.93-8.38-1.86-12.8-2.09a79,79,0,0,1-19.55-4,175.31,175.31,0,0,1-20.72-8.38c-5.58-2.56-11.64-5.12-17.45-7.45a63,63,0,0,1-8.62-4.88c-10.24-6.29-18.85-14.67-28.62-21.42-6.75-4.65-11.88-10.94-18.39-15.82-3.73-2.57-5.82-7-8.85-10.48a7.93,7.93,0,0,0-2.79-2.79,78.46,78.46,0,0,1-6.52-8.85c-5.12-.46-10.24-1.16-14.43-1.86l-3-.46c.93,1.86,1.86,3.72,3,5.58a85.61,85.61,0,0,0,9.55,16.06c2.79,4,5.35,7.92,8.37,11.64a247.34,247.34,0,0,0,19.56,21.88A144.37,144.37,0,0,0,590,366.35a190.33,190.33,0,0,0,66.1,31.42c.47,1.17,1.16.94,2.1.7l1.86.7c.7,1.17,1.39.7,2.32.23l2.1.24a1.14,1.14,0,0,0,1.59.26l0,0h0l1.63.47a5.22,5.22,0,0,0,4.89.46,6.73,6.73,0,0,0,5.58.7,7.34,7.34,0,0,0,4.89,1.16,14,14,0,0,0,5.35.24,1.48,1.48,0,0,0,1.87.46.23.23,0,0,0,.23-.23h0a22.84,22.84,0,0,0,7.91,0,7.44,7.44,0,0,1-.46-4,10.82,10.82,0,0,0,.46,4l3.49.23a1.8,1.8,0,0,0,2.33-.23,15.66,15.66,0,0,0,6.52-.7c9.07,1.63,17.92-.47,26.53-2.79a89.32,89.32,0,0,0,11.41-1.4c8.14-2.56,16.52-4,24.44-7.91,7-3.49,14.19-6.75,20.94-10.24A232.09,232.09,0,0,0,817,365.89c7.22-4.89,14.9-9.55,19.79-17a3.94,3.94,0,0,0,2.32-1.4l-.93-.7c-.23-.23-.46-.46-.69-.46.23.23.46.46.69.46l.93.7a82.91,82.91,0,0,0,11.64-12.34q7.68-9.07,14.67-18.85c3.49-5.12,7.68-10,9.31-16.52l.46-1.17a5.91,5.91,0,0,0,3-3.26C877.71,295.13,875.85,294.9,875.15,294.67ZM707.34,385.9a1.83,1.83,0,0,0,.93-.93A1.83,1.83,0,0,1,707.34,385.9Zm17,1.63c-.47.47-.93.7-1.4,1.17a6.27,6.27,0,0,0,1.4-1.17l3.49-.69Zm32.58-7.21a1.73,1.73,0,0,0-.93-.47,22.9,22.9,0,0,0,1.17-2.32L756,379.85C756.21,379.85,756.45,380.09,756.91,380.32Zm85.89-42.6-.7-.69c.23,0,.47.46.7.69ZM538.59,93.57a15.51,15.51,0,0,0,3.26.23,98.52,98.52,0,0,0,14.43-1.63,125.56,125.56,0,0,1,16.06-1.86c1.86-3,3.72-5.82,5.59-8.85A43.48,43.48,0,0,1,587,69.13a216.44,216.44,0,0,1,42.13-30,6.42,6.42,0,0,1,6.75-.23,5.61,5.61,0,0,0,7-.47,14.29,14.29,0,0,1,7.92-3.95,2.71,2.71,0,0,0,2.32-2.1c3.5-2.09,7.69-1.86,11.18-4.19a6.82,6.82,0,0,1,5.12-.93c4.19,1.17,7.91-.23,11.64-1.39.69-.24,1.62-.7,2.32-.24,3,1.4,5.59,0,8.15-1.39,6,.93,8.15,6.75,12.57,9.77,3.49,2.33,5.58,4.89,4.65,9.31a14.41,14.41,0,0,0,2.56,10.94c3.26,4.66,8.15,6.75,12.8,9.31l1.17.93h0a5.94,5.94,0,0,0,2.33,3c2.09,5.58,3.95,6.75,10,5.35a19.43,19.43,0,0,1,12.57.7c4.66,1.86,9.55,3,14.67.23A37.77,37.77,0,0,0,782.05,58a3.62,3.62,0,0,1,2.56-1.87c6.75-1.16,15.36,6.29,15.36,13a1.94,1.94,0,0,1-.7,1.39c-2.09,1.63-.46,1.87.7,2.33,4.19,1.63,4.89,3.49,2.33,7.45a22.63,22.63,0,0,0-3.72,10.24c4.88-4.42,5.81-10.71,11.17-13.5,2.79-1.16,2.32,2.56,4.19,2.79,2.79.47,2.79,4.66,6,5.59.7.23-.47,2.1-1.4,3-1.16,1.39-2.79,2.32-3.49,4.42,1.63.23,2.56-.93,3.49-1.63,2.8-1.86,4.89-2.56,4.89,1.86,0,2.1.93,1.86,2.79,1.16s4-.69,3,2.57c-.47,1.86-.47,3.25,2.33,3.49,4.19.46,4.65,3,2.09,6.28a12.27,12.27,0,0,0-3.26,4.42c2.1-.93,3.49-1.39,4.89-2.09,2.33-.93,4.42-2.79,6.75-.7-1.16,2.09-1.63,4,1.4,5.12a5.51,5.51,0,0,1,2.09,1.86c-2.79,4.19,0,5.12,3.26,5.59.23,0,.47.7.7.93a2.12,2.12,0,0,0,2.56,1.4h0c5.82-1.4,10.71,2.32,16.06,3,1.16,0,1.86,1.17,2.33,2.1-.24,1.16-1.17,2.09-.7,3.26-.7,1.86-1.4,4-2.1,5.81-2.79,1.17-3.26,3.73-3.72,6.06l-.23.46h1.39c2.1,0,4.42-.23,6.75-.23a41.84,41.84,0,0,1,21.18,5.12c-.46-2.1-1.16-4.19-1.86-6.52-2.79-8.38-5.12-17-9.77-24.9l-.7.46.7-.46c0-.24-.24-.24-.47-.47l-1.86-.7h0l1.86.7a7.2,7.2,0,0,0-2.33-5.58l-.7-2.8a79.55,79.55,0,0,0-11.4-19.78c-3.49-4.19-5.12-9.31-9.31-13a2.56,2.56,0,0,0-1.86-1.86h0c-.47-3.72-4.43-4.42-5.82-6.75-4.89-7.91-12.8-13-19.32-19.08A154.23,154.23,0,0,0,799,25.84l-5.12-2.56c-.23-.94-.47-1.17-1.4-.94l-2.09-1.16h0a1.77,1.77,0,0,0-2.1-1.16,3.17,3.17,0,0,0-3-1.4A29.67,29.67,0,0,0,773.9,13.5l-8.84-2.79a2.79,2.79,0,0,0-3-1.4,73.47,73.47,0,0,1-12.1-4C740.39,2.09,730.38,1.4,720.37,0a126.79,126.79,0,0,0-36.31,2.09,74.91,74.91,0,0,0-21.41,3c-5.12,1.4-10.48,1.63-15.13,4.89h0l-4,1.39c-5.12,1.4-10.24,2.8-15.36,4.66A116.51,116.51,0,0,0,604,29.33a268.31,268.31,0,0,0-25.83,17.92,172,172,0,0,0-39.57,46.32Zm330.74,43.52a4.13,4.13,0,0,1,1.63,1.17,3,3,0,0,0-1.63-1.17c.7-1.4,1.4-3,2.1-4.42A19.06,19.06,0,0,1,869.33,137.09Zm0-32.35h0l2.33,1.16Zm.24-4.89a2.12,2.12,0,0,1-.24,1.16,2.87,2.87,0,0,1,1.17,1.17,2.87,2.87,0,0,0-1.17-1.17A2.12,2.12,0,0,0,869.57,99.85ZM820.22,44l2.33,1.16c3,3,5.82,5.82,9.08,8.62-3.26-2.8-6.06-5.59-9.08-8.62h0L820.22,44l-1.39,1.16ZM791.59,25.14a13.19,13.19,0,0,1-2.09-1.63h0A3.73,3.73,0,0,0,791.59,25.14Zm-2.32-1.4c-.24.47-.47.7-.94.7C788.8,24.44,789,24.21,789.27,23.74Zm-2.8.23v1.17a1.08,1.08,0,0,1,0-1.17l-.7-.46ZM773,17.46l.47.23-.47-.23a7.2,7.2,0,0,1-2.32.93A9.71,9.71,0,0,0,773,17.46ZM729.22,4.66l.93.46-.93-.46a.82.82,0,0,1-.24.46A.82.82,0,0,0,729.22,4.66Zm-58,3.49-.7,1.39.7-1.39ZM651.71,31a14.86,14.86,0,0,1,1.86-2.1c-.7.7-1.16,1.4-1.86,2.1l-1.4-.7Zm5.35,9.31A3,3,0,0,1,655,37v-.24c.93-1.39,2.09-2.32,3.72-1.62a2.5,2.5,0,0,1,1.67,3.13l0,.12c0,.24,0,.24-.23.47a2.33,2.33,0,0,1-2.83,1.69l-.2-.06c.23-.23,0-.23,0-.23Z"/><path class="cls-2" d="M117.34,302.42s173.39-2.38,239.6,1.52C409.82,307.05,442,345.17,437,413c-3.36,45-64.85,75.14-100,72.74-29-2-49.07-11.83-58.34-17.41a29.51,29.51,0,0,0-14.17-4.18L145,459.87a22.91,22.91,0,0,0-12.42,3.1c-8.06,4.73-18.85,11.28-52.28,12.44-50.56,1.76-81-54.82-75.91-95.06C9.17,342.26,61.83,299.34,117.34,302.42Z"/><path class="cls-3" d="M117.34,302.42s172-.55,238.29,1.27c36.66,1,86.65,24.36,73.08,84.32-12.94,57.14-64.85,75.14-100,72.74-29-2-49.08-11.84-58.34-17.42a29.53,29.53,0,0,0-14.17-4.17l-119.44-4.28A23,23,0,0,0,124.3,438c-8.07,4.73-26.71,12.76-60.17,12.57-47.35-.28-66.28-38.57-59-74.29C12.74,338.63,61.83,299.34,117.34,302.42Z"/><path class="cls-4" d="M259.28,415.87c-18.7-41.76,2.81-78.78,43.72-98.83s97.67-7.67,114.79,27.25-4.63,79.44-45.53,99.49S275.17,451.37,259.28,415.87Z"/><path class="cls-5" d="M332.53,333.47c9.67-4.74,23.09-1.82,27.14,6.44s-1.09,18.78-10.76,23.52c0,0-37.84,22-47.51,26.7s-22.95,1.8-26.71-6.59c-4.42-9.88.67-18.63,10.34-23.37S311.74,345.07,332.53,333.47Z"/><path class="cls-5" d="M370.88,360.14c9.95-4.88,24.15-1,28.76,8.36s-.34,20.91-10.28,25.79c0,0-38.75,22.87-48.69,27.75s-24,1-28.31-8.52c-5.06-11.21-.1-20.76,9.84-25.63S349.57,372.19,370.88,360.14Z"/><ellipse class="cls-6" cx="89.43" cy="375.17" rx="50.38" ry="40.95" transform="translate(-191.83 111.27) rotate(-33.42)"/><path class="cls-7" d="M280.2,382.66c-3.37-7.53.51-14.22,7.89-17.83s17.63-1.39,20.72,4.91-.83,14.34-8.22,18S283.07,389.07,280.2,382.66Z"/><path class="cls-7" d="M326.3,355.32c-3.37-7.53.51-14.21,7.89-17.83s17.63-1.39,20.72,4.92-.84,14.33-8.22,17.95S329.17,361.73,326.3,355.32Z"/><path class="cls-7" d="M320.41,412.47c-3.37-7.53.51-14.21,7.89-17.83s17.63-1.39,20.72,4.92-.83,14.33-8.22,17.95S323.28,418.88,320.41,412.47Z"/><path class="cls-7" d="M366.88,383.65c-3.38-7.54.51-14.22,7.89-17.84s17.63-1.38,20.72,4.92-.84,14.34-8.22,18S369.75,390.06,366.88,383.65Z"/><path class="cls-7" d="M278.81,377.61c-3.37-7.53.51-14.21,7.89-17.83s17.63-1.39,20.72,4.91-.84,14.34-8.22,18S281.68,384,278.81,377.61Z"/><path class="cls-7" d="M324.91,350.28c-3.38-7.54.51-14.22,7.89-17.84s17.63-1.39,20.72,4.92-.84,14.33-8.22,17.95S327.78,356.68,324.91,350.28Z"/><path class="cls-7" d="M319,407.43c-3.37-7.54.51-14.22,7.89-17.84s17.63-1.39,20.72,4.92-.84,14.33-8.22,17.95S321.89,413.83,319,407.43Z"/><path class="cls-7" d="M365.49,378.6c-3.38-7.54.5-14.22,7.89-17.84s17.62-1.38,20.71,4.92-.83,14.34-8.21,18S368.35,385,365.49,378.6Z"/><path class="cls-8" d="M173.73,373.88c3.85-1.89,8.88-1.37,10.15,1.23s-1,6.24-4.89,8.13c0,0-15.18,8.51-19,10.4s-8.82,1.35-10-1.3c-1.36-3.11.87-6.17,4.72-8.06S165.41,378.4,173.73,373.88Z"/><path class="cls-8" d="M221.83,374.59c3.85-1.88,8.88-1.36,10.15,1.23s-1,6.24-4.89,8.13c0,0-15.18,8.51-19,10.4s-8.82,1.36-10-1.29c-1.36-3.12.87-6.18,4.72-8.07S213.5,379.12,221.83,374.59Z"/><path class="cls-8" d="M57.58,362.7c7.48-5.15,17.86,3.93,23.38-1.05,4.92-4.44-1.35-13.51,3.85-19.29,5.35-5.95,19.56-4.72,22.59,1s-6.34,14.2-3.31,18.05c3.18,4,14.68-3.75,19.52.77,4.16,3.9,2.32,16-4.09,20.1-7,4.54-15.42-3.19-21,1.39-5.28,4.31-.07,13-5.51,18.44-6,6-20.63,4-23.09-1.66-2.31-5.32,6.87-12.12,4.42-16-2.73-4.32-15.2,2.67-20.2-2.55C50.12,377.76,51.73,366.72,57.58,362.7Z"/><path class="cls-9" d="M487.62,351.61l61.32-1.71a11.37,11.37,0,0,1,9.63,4.84l39.61,56.56a11.36,11.36,0,0,1,1.09,11.1l-27.53,62.45a19.93,19.93,0,0,1-17.68,11.88l-59.62,1.67a21.17,21.17,0,0,1-17.54-8.49l-34.72-46.49a23.48,23.48,0,0,1-2.38-24.17l25.28-53A25.75,25.75,0,0,1,487.62,351.61Z"/><path class="cls-10" d="M487.14,396.3l10.62,79.89a3.61,3.61,0,0,0,5.78,2.39l63.77-49.08a3.62,3.62,0,0,0-.82-6.2L492.1,392.49A3.61,3.61,0,0,0,487.14,396.3Z"/><polyline class="cls-11" points="445.76 442.56 495.5 484.09 550.85 494.36"/><path class="cls-10" d="M499.49,392.17l62.64,26a1.56,1.56,0,0,0,2.19-1.7l-10.66-58.6a5.26,5.26,0,0,0-7.79-3.63l-46.68,31.08C495.84,387.24,496,390.56,499.49,392.17Z"/><path class="cls-12" d="M473.73,375.34c-2.76,1.92-4.61,3.49-7.74,5.9-.67,2.6-1,4-1.62,6.69a29.57,29.57,0,0,1,4.64-4.88,8.67,8.67,0,0,1,3-1.64,2.14,2.14,0,0,1,2,.35,3.52,3.52,0,0,1,.93,2.2,13.16,13.16,0,0,1-.09,3.51,18.75,18.75,0,0,1-1.44,5.22,19.37,19.37,0,0,1-3.38,4.94,43.11,43.11,0,0,1-5.73,5.27c-2.37,1.82-4,2.68-4.85,2.52s-1.08-.95-1.07-2a13.33,13.33,0,0,1,.32-2.76,4.92,4.92,0,0,1,.63-1.48,2.7,2.7,0,0,1,1.08-1c.71-.35,1.22-.11,1.38.86s.5,1.42,1.11,1.51a3.82,3.82,0,0,0,2.49-1,15.21,15.21,0,0,0,4.61-5.74,12.87,12.87,0,0,0,1-3.39,5.64,5.64,0,0,0-.11-2.81,1.2,1.2,0,0,0-1.29-.84,4.49,4.49,0,0,0-2.14,1,12.25,12.25,0,0,0-2.17,2c-.45.58-1.11,1.49-1.93,2.67a8,8,0,0,1-1.84,2.1c-.45.27-.79.24-1,0a1.57,1.57,0,0,1-.29-1.25c0-.06.09-.48.25-1.28a93.74,93.74,0,0,1,2.17-9.33,10.68,10.68,0,0,1,1.18-2.76,7.58,7.58,0,0,1,2-2c3.14-2.33,5.12-4,7.93-5.83,1.39-.91,2-.74,2,.33a2.65,2.65,0,0,1-.43,1.47A5.47,5.47,0,0,1,473.73,375.34Z"/><path class="cls-12" d="M505.21,373.57c-3.11-2.75-3.57-3.9-6.18-7.11-.38,2-1,3.2-1.54,3.53a1.15,1.15,0,0,1-.9.13,1.41,1.41,0,0,1-.84-.53,1,1,0,0,1-.24-.9,7.82,7.82,0,0,1,.59-1.21,4.64,4.64,0,0,0,.47-4.06c-.21-.67-.38-1.09-.43-1.26s.05-.3.27-.4a1.22,1.22,0,0,1,1,.13,4.85,4.85,0,0,1,1.34,1c4.29,4.19,4.3,5.3,8.62,8.62,1.26,1,1.64,1.82.7,2.43a2.18,2.18,0,0,1-1.42.33A2.5,2.5,0,0,1,505.21,373.57Z"/><path class="cls-12" d="M514.49,365.47c2-1.45,3.09-2.18,5.35-3.65a4.19,4.19,0,0,1,1.84-.68,4.79,4.79,0,0,1,2,.2,2.43,2.43,0,0,1,1.26.76c.21.31,0,.62-.49.93-3.59,2.09-5.27,3.17-8.51,5.28a3.39,3.39,0,0,1-1.88.54,3.63,3.63,0,0,1-1.73-.38,3,3,0,0,1-.89-.81,2.44,2.44,0,0,1-.49-1,25.38,25.38,0,0,1-.33-2.82,7.54,7.54,0,0,1,0-1.52,3.67,3.67,0,0,0,0-1.27,1.84,1.84,0,0,0-.44-.92,2.39,2.39,0,0,0-.91-.61,4.82,4.82,0,0,0-1.37-.3,5.65,5.65,0,0,0-1.43,0,3,3,0,0,0-1.11.35c-.6.36-.63.85-.24,1.49a7.76,7.76,0,0,0,.51.59,2.11,2.11,0,0,1,.52.81c.07.22,0,.43-.3.62a1.26,1.26,0,0,1-.83.21,1.8,1.8,0,0,1-.94-.4,5.81,5.81,0,0,1-1-1.06,5.53,5.53,0,0,1-.76-1.28,1.91,1.91,0,0,1-.15-1.2,1.55,1.55,0,0,1,.92-1,7.45,7.45,0,0,1,2.45-.72,18.33,18.33,0,0,1,2.06-.13c.73,0,1.46,0,2.16.1a9,9,0,0,1,1.85.35,2.77,2.77,0,0,1,1.65,1.05,2.5,2.5,0,0,1,.46,1.3c0,.4,0,1.07,0,2.08a6.34,6.34,0,0,0,.35,2.32A3.34,3.34,0,0,0,514.49,365.47Z"/><text class="cls-13" transform="matrix(0.8, 0.36, -0.41, 0.91, 516.41, 391.26)">14</text><text class="cls-14" transform="matrix(0.71, -0.53, 0.6, 0.8, 509.84, 460.91)">20</text><text class="cls-15" transform="matrix(-1.07, 0.88, -0.63, -0.77, 548.03, 456.82)">8</text><path class="cls-16" d="M479.45,439.7c-.3-4.27-.45-6.42-.74-10.64a3.92,3.92,0,0,1,.42-2.39,1.76,1.76,0,0,1,1.54-.83,2.09,2.09,0,0,1,1.55.62,2.88,2.88,0,0,1,.75,2c.41,6,.62,9,1,15a3.38,3.38,0,0,1-.59,2.4,2.13,2.13,0,0,1-1.72.88,4.12,4.12,0,0,1-1.77-.54,7,7,0,0,1-1.8-1.22c-1.81-1.83-3.37-3.55-4.69-5.1a35.89,35.89,0,0,1-2.62-3.36,23.65,23.65,0,0,0-2.37-3.06,11,11,0,0,0-2.35-1.95,5.33,5.33,0,0,0-2.28-.79,3.15,3.15,0,0,0-2.07.51,3.58,3.58,0,0,0-1.31,1.72,5.8,5.8,0,0,0-.32,2.49,6.05,6.05,0,0,0,2.45,4.56,11.16,11.16,0,0,0,1.56.76,7,7,0,0,1,2,1.21,2.67,2.67,0,0,1,.79,1.86,2.25,2.25,0,0,1-.48,1.72,1.9,1.9,0,0,1-1.59.65,6.63,6.63,0,0,1-2.68-.66,8.3,8.3,0,0,1-2.62-1.93,10.9,10.9,0,0,1-2-3.35,16.57,16.57,0,0,1-1.07-4.9,16,16,0,0,1,.44-5.74,7,7,0,0,1,1.41-2.6,6,6,0,0,1,2.26-1.61,6.09,6.09,0,0,1,2.79-.38,8.28,8.28,0,0,1,4.27,1.67,16.92,16.92,0,0,1,3.14,2.88c.77,1,2,2.54,3.66,4.72a34.74,34.74,0,0,0,3.81,4.43A13.41,13.41,0,0,0,479.45,439.7Z"/><line class="cls-11" x1="486.06" y1="494.34" x2="495.5" y2="484.09"/><path class="cls-11" d="M571.59,422l25.59-7Z"/><line class="cls-17" x1="566.64" y1="485.97" x2="571.59" y2="422.03"/><polyline class="cls-11" points="442.43 424.19 489.9 387.02 481.25 354.61"/><path class="cls-18" d="M396.45,408.41l-36.13,19.35a12.56,12.56,0,0,0-6.63,11.4l1.22,47.18a12.57,12.57,0,0,0,7.44,11.15L399.25,514a12.56,12.56,0,0,0,11.19-.47L447,493.29a12.56,12.56,0,0,0,6.5-11V435.48a12.57,12.57,0,0,0-7.75-11.6l-38.57-16A12.55,12.55,0,0,0,396.45,408.41Z"/><path class="cls-10" d="M359.24,432.6l36,14.57c4.52,1.71,11.88,2.59,16.21.47L449,429.19c1.49-.73-.87-3.93-2.4-4.58L407.69,408a12.89,12.89,0,0,0-11.13.47L359,429.13A1.9,1.9,0,0,0,359.24,432.6Z"/><ellipse class="cls-19" cx="403.83" cy="440.83" rx="9.74" ry="4.71"/><ellipse class="cls-19" cx="419.06" cy="433.33" rx="8.57" ry="4.14"/><ellipse class="cls-19" cx="434.41" cy="425.99" rx="8.57" ry="3.66"/><ellipse class="cls-19" cx="374.62" cy="429.19" rx="8.94" ry="4.32"/><ellipse class="cls-19" cx="388.76" cy="421.07" rx="7.86" ry="3.8"/><path class="cls-20" d="M404.82,509.76l-.21-51.95c-1.31-4.65-1.73-5.91-6-8.12l-38.49-14.45c-4.54-.1-6.8,2.3-6.42,3.92l1.22,47.18c.9,3.79,3.92,9.48,7.44,11.15l39.25,17.24C403.1,515.45,405.27,511.37,404.82,509.76Z"/><ellipse class="cls-19" cx="403.6" cy="413.48" rx="7.86" ry="3.36"/><ellipse class="cls-19" cx="393.02" cy="462.49" rx="5.83" ry="8.51" transform="translate(-161.7 216.22) rotate(-25.7)"/><ellipse class="cls-19" cx="377.69" cy="474.55" rx="5.83" ry="8.51" transform="translate(-168.45 210.76) rotate(-25.7)"/><ellipse class="cls-19" cx="363.29" cy="487.65" rx="5.83" ry="8.51" transform="translate(-175.55 205.81) rotate(-25.7)"/><ellipse class="cls-19" cx="414.36" cy="460.84" rx="9.04" ry="5.3" transform="matrix(0.36, -0.93, 0.93, 0.36, -164.4, 682.44)"/><ellipse class="cls-19" cx="445.15" cy="484" rx="8.86" ry="5.09" transform="translate(-166.27 726.04) rotate(-68.99)"/><path class="cls-21" d="M396.56,408.27l-36.14,19.35a12.58,12.58,0,0,0-6.63,11.4L355,486.2a12.57,12.57,0,0,0,7.44,11.14l36.91,16.47a12.56,12.56,0,0,0,11.19-.47l36.58-20.19a12.57,12.57,0,0,0,6.49-11V435.34a12.56,12.56,0,0,0-7.75-11.6l-38.57-16A12.52,12.52,0,0,0,396.56,408.27Z"/><path class="cls-22" d="M144.31,158c-6.75,11.17.23,16.52-6.52,24.44,0,1.86-8.15,6.52-8.15,8.38-4.42,10-4.19,11.17-19.55,14.66-1.63,0-8.14,4.66-9.77,4.66-4.43-1.63-15.13,3.72-29.56-3-6.05,0-5.12-1.4-5.12-8.15-1.4-2.32,9.77-1.63,14.89-1.63,14.9,0,25.61-10.47,31-21.64V143.14c0-5.12-4-10-13.27-19.55-6.75-7-18.15-8.14-19.78-9.77-2.1,0-13.5-2.1-14.67-1.63-.23-2.1-6.28,3.26-9.77,3.26-8.38,2.79-2.56,25.13-6.52,29.79.7,4.19,3.26,8.61,3.26,13a30.58,30.58,0,0,0-3,16.29c0,1.63,3.26,6.52,3.26,8.15v13c0,1.39,1.63,6.51,1.63,8.14v8.38c0,3-1.39,29.33-1.39,32.82.23,20.71-.94,31.65,5.12,32.82H68s3.26,1.63,3.26,3.26c3.49,5.58-5.12,4.88-16.29,4.88-1.86,0-6.52,1.63-8.38,1.63C39.8,286.29,1.63,291.41,4,282.79c-1.63-6.28,8.14-4.65,13-4.65,7.45-3.49,7-13.73,11.41-21.65.46-1.86,0-3-1.87-6.51.47-.7-1.39-2.1,1.87-8.15.69-8.61-1.87-12.8-1.87-18.15,0-7.69.47-17-1.63-21.18-.23-22.12,3.26-35.85,3.26-52.61-1.63-5.82-3-16.06-5.12-19.78,2.56-8.61-4.19-11.87-6.51-13-6.29-.46-14.67-5.81-16.53-6.51v-3H18.15c-6-2.33,34.92-1.63,51-1.63,1.63,0,16.29-1.86,18.15-1.86,10.48.23,18.62-2.09,32.82,9.78,1.63,0,6.52,6.51,8.15,6.51,3.49,1.87,8.38,3.73,8.14,4.89C135.46,136.16,144.31,146.63,144.31,158Zm114.05-.93c-3.73,0-14-2.56-21,7.68l1.86,1.86c6.75,0,15.83,6.29,17.22,5.82,2.33-2.33,3.73,23.28,3.73,34.21,0,12.34,3,24.68,1.86,26.54,0,6.75-6.52,15.13-3.72,19.08,0,4.43-6.29,11.64-5.82,11.41-14,14-19.09,3.26-32.36,11.4H212.5c-7.44,0-14.89-7-18.85-11.17,0-10.94-3.72-24.2-3.72-30.49,0-8.15-.93-20.48,1.86-24.67,0-2.33,2.56-28.63,1.86-30.26,0-10.71-2.56-12.8-18.85-21-16.06,0-24.67-.23-21,9.55l1.86,2.09c2.1,0,9.78,5.59,11.64,5.59,2.56,3.49,4.65,23.74,3.72,24.67-2.79.46-1.86,16.76-1.86,24.67v21c0,8.15,4,16.52,4,20.71,0,1.87,3.72,7.68,3.72,7.68,14.67,21.19,27.23,14.44,30.49,17,9.78,0,16.76-3.73,26.54-3.73,1.86,0,7.68-7.68,7.68-7.68,1.86,0,7.68-4,9.54-4-.7,0,9.54-1.63,9.54,4,4,6.05,5.59,9.08,9.55,7.68,3.72,0,11.87-5.82,18.85-5.82,10.71-2.56,15.83-3,13.5-7.68-.47.47-5.59-5.82-9.54-5.82-4.89-.93-9.08-1.63-11.64-5.35V247c0-1.86,2.09-9.54,2.09-11.64,0-4.65-3.72-10-2.09-14.89,0-10.71,4-17.92,4-28.63a79,79,0,0,1-4-24.44C273.48,159,260.92,159,258.36,157.11Zm194.81,72.38s-1.86,7.69-3.72,9.55c0,1.86-5.82,9.54-5.82,11.17v7.45c-10.94,26.76-47,27.93-78.91,28.63-2.09,0-5.81-3.73-7.68-3.73-4.19-.23-8.61-3.95-13-7.21h-1.86c-1.87,0-9.31,7.44-11.18,7.44a9.73,9.73,0,0,1-5.58-7.21c0-5.59-2.1-5.82-2.1-9.54l2.1-7.92c.46-9.54-2.1-13-2.1-18.62,0-1.86,2.1-9.54,2.1-11.4.46-15.83-2.1-28.4-2.1-39.57,0-1.86,2.1-16.76,2.1-19.09,0-12.8-1.17-36.31,1.86-37.24.47-5.58-1.86-10-1.86-15.59-2.79-7.91,9.08-7.68-19.32-31.66V81.23c3.72-1.4,15.13-9.77,22.81-9.77,14.9,0,20.71.46,20.71,15.12,1.63.7-2.09,17.93-2.09,28.17,0,14.66.7,37.7-1.86,39.57.46,10.93,4.89,9.54,7.68,9.54,1.86,0,11.17-3.73,13-3.73,7.92,0,20.49-3.95,28.4-3.95,7-.7,12.33,1.86,18.62,3.95,9.77-1.16,13.5,6.06,20.95,13.27l1.86,3.73c18.62,3.72,17,46.55,17,52.36Zm-36.08-37.7c0-1.86-7.44-7.45-7.44-9.08-5.59-10.71-18.86-10.24-22.58-13.5-4.66,1.63-24.44-3.72-32.12,4.19.23-.46-5.59,6.52-5.59,11.17,0,5.59-2.09,32.12-2.09,37.71v1.86c0,1.86,2.09,9.31,2.09,11.17,0,15.6-.7,29.33,7.45,35.61,7.68,4,24.67,5.59,26.53,5.59,22.12-9.54,43.3-14.2,43.06-47.25C426.87,199.47,420.82,203.43,417.09,191.79Zm194.58-61.91a34.43,34.43,0,0,0,1.63-10.94c0-2.56-11.4-10.71-15.82-10.71-9.55-1.86-14.43-1.86-17-6.28H574.2c-11.87,0-26.3,4.65-37.24,3.25-2.79,3-9.77,4.66-15.83,4.66-3.72,2.56-17.69,10-18.62,10.71l-21.64,21.87c-4,7.45-10.94,17.23-10.94,23.28,0,1.63-4.42,7.91-4.42,9.54-.47.24-1.63,18.39-1.63,20.25s1.63,9.55,1.63,10.94v10.71c0,4.65,4.88,8.84,4.42,14.2,0,6.28,5.58,8.61,4.65,12.33,0,4.89,27.7,28.63,28.17,26.54,2.56,2.79,5.58,6,7.91,6.28,1.63,0,12.34,4.42,14,4.42,4,0,17,3,26.53,3l3.26,1.63H573c27,0,31.19-5.36,35.84-7.68,2.1-2.56,4-11.64,4.66-12.57,1.16-6.52,2.79-12.1,2.79-15.6,0-4.65-2.33-7.68-2.79-6.28-8.38,0-11.87,11.87-14.2,14l-7.91,7.92c-1.63,0-9.08,4.65-10.71,4.65-4.66,1.87-6.52,4.66-14.2,4.66-10.24,0-7.68,2.09-20.25,1.63-7-1.86-18.85-1.86-26.53-9.31s-10-4.19-21.88-37.24c0-4.66-5.82-8.61-3.26-14.2-1.86-5.59-1.63-8.15-1.63-28.16,0-7.45,3-11.87,3-18.62,3.26-6.06,4.19-11.87,6.28-18.62,0-1.63,6.29-6.29,6.29-7.92,1.62-1.63,7.68-12.33,9.07-14-.46-1.4,14.9-9.78,14.2-9.55,14.9-3.49,9.54-4.88,28.16-4.42,3.26,0,12.34,1.63,14,1.63,8.61,4.42,25.83,12.57,26.53,21.65,9.55,9.31,7.92,2.32,9.55,4.65,1.39-.7,2.09-2.79,3-4.65C612.61,135,611.91,132.44,611.67,129.88Zm158,99.15c-4.19,12.1.24,14.2-16.29,30.72-8.14,8.15-10.71,8.85-18.15,16.3-10.71,3.25-13.74,2.09-25.14,11.17A151.76,151.76,0,0,1,672,280c-6.52,0-9.54-8.14-27-19.78-4.89-4.19-14.43-24.91-14.43-39.57-2.1-1.86,3.72-7.45,3.72-21.88,0-4.65,5.59-8.61,8.85-12.57-2.1-5.12,16.52-25.6,32.58-30.95h34.45c1.63,2.56,10.47,1.86,16.29,1.86.23,1.39,7.45,2.09,12.57,7.45,5.59,0,12.34,11.87,18.16,18.15,1.86,1.86,5.58,12.57,7.44,14.43.24,2.33,5.36,18.39,5.36,25.14C769.71,227.87,769.71,228.33,769.71,229Zm-32.58-43.29c-3.73-4-22.81-27.47-30.72-27.24-5.59,2.33-12.81,1.87-20,1.87a118.65,118.65,0,0,0-19.55,16.29c-4.89,8.84-4.66,21.41-9.08,23.74,0,9.54.93,22.34-1.86,27,.93,4.89,1.39,9.54,1.86,14.43,0,20.72,8.38,14.66,10.71,20l3.72,7.45c22.34,11.17,21.18,8.84,32.59,8.84,2.32,2.33,17.69-11.64,27.23-16.29,4.89,0,11.64-24.21,12.57-25.14,1.39-2.79-1.87-25.14-1.87-37.94a40.51,40.51,0,0,0-5.58-13ZM927.29,279.3l-1.86-1.86c-1.87,0-12.81-7.21-14.67-7.21-3.26-1.87-4.42-8.85-5.58-10.94,0-5.12,3.72-22.35,3.49-37a22.12,22.12,0,0,1-1.86-10.94l1.86-5.59a66.21,66.21,0,0,1-3.73-20.25c1.4-2.32-7.44-10.94-7.44-16.75-14.2-18.86-30.26-10.94-40.74-12.81-4.42,1.87-7.68,5.82-16.52,7.45-7,1.4-10.94,7.68-18.39,7.45-3.26-2.79.23-14.66-5.59-14.66l-4-1.86c-2.33-.7-7,6.28-10.94,11.17-7.92,7.91-10.71,11.4-20.25,16.52,0,5.82,2.79,7,12.8,13,0,1.86,1.86,14.66,1.86,18.38,0,11.87,0,34.68.24,59.12-6.29,4.19-9.08,6.29-16.53,7.45v1.86c0,6.75,2.56,5.12,10.94,5.59,1.86,0,7.45-1.86,9.31-1.86h38.87c1.86-1.63,2.33-2.1,1.86-5.59-1.86-2.56-9.77-5.58-16.52-5.58-3.5-2.1-5.59-7.92-5.59-12.81l.23-59.35c1.63-4.42,2.1-9.77,5.59-14.66C838.84,172.94,857,169,861,170.84s8.15,5.59,14.67,7.22c7.91,0,5.58,17,5.58,26.06,0,1.87,1.86,9.08,1.86,10.94s3.73,9.08,3.73,10.94a20.64,20.64,0,0,1-1.86,7.45V268.6c-1.87,1.86-.7,5.58-5.59,5.58-1.86,1.63-8.84,1.63-14.66,5.59,0,6.05,6.51,2.79,10.94,3.72,1.86,0,9.31,1.87,10.94,1.87h38.87a5.57,5.57,0,0,0,1.86-6.06Zm83.79-207.84c-7.45,0-11.87,6.28-20.48,7.68-8.15,7.91-18.86,13.26-18.86,20.48-1.63,6.28-1.63,14.66-7.21,14.66,0,8.85-5.12,27-5.35,26.07,0,17.92,1.62,13.5-16.76,29.79,0,5.82,2.56,4.89,14.89,14.9,0,5.82,1.87,13,5.59,14.66v3.73c0,2.09-3.72,7.68-3.72,9.54,0,20.71-.7,30.49,1.86,37,0,4.88-6.52,10.24-3.73,14.89-6.51,16.76-14,6.75-20.71,16.53l1.86,1.86H972c4.65-1.86,6.28-1.86,16.75-1.86,7,0,7.92,1.86,24.44,1.86,1.63-1.86,1.87.23,1.87-7.45,2.09-2.56-11.41-1.86-16.76-1.86-1.17-.7-18.16-8.15-16.76-9.08l-.23-57.49c0-4.19-2.56-7.91-1.87-14.89,2.8-10.71-1.39-18.62,20.49-18.62,1.86,0,14.89-1.87,18.62-1.87a11.36,11.36,0,0,0,4-9.07c0-1.86-4-5.59-4-5.59H992.46c-1.17,0-8.85-3-9.54-5.82,0-8.61-3.26-22.81-1.87-25.83a48.56,48.56,0,0,1,13-33.52c3-2.56,11.17-1.63,11.17-1.86,7,0,11.87,5.35,18.62,5.35,1.86,0,12.8,1.86,14.9,1.86,4.88,0,12.33-7.68,10.94-10.94C1050,80.3,1050,71.46,1011.08,71.46Z"/><text class="cls-23" transform="translate(630.07 493.74) scale(1.01 1)"><tspan class="cls-24">L</tspan><tspan x="52.29" y="0">ONDON</tspan></text></svg>