<svg xmlns="http://www.w3.org/2000/svg" viewBox="0 0 451.07 173.63"><title>perth-logo</title><path d="M62.1,68c-2.9,4.8.1,7.1-2.8,10.5,0,.8-3.5,2.8-3.5,3.6-1.9,4.3-1.8,4.8-8.4,6.3-.7,0-3.5,2-4.2,2-1.9-.7-6.5,1.6-12.7-1.3-2.6,0-2.2-.6-2.2-3.5-.6-1,4.2-.7,6.4-.7,6.4,0,11-4.5,13.3-9.3v-14c0-2.2-1.7-4.3-5.7-8.4-2.9-3-7.8-3.5-8.5-4.2-.9,0-5.8-.9-6.3-.7-.1-.9-2.7,1.4-4.2,1.4-3.6,1.2-1.1,10.8-2.8,12.8.3,1.8,1.4,3.7,1.4,5.6a13.1,13.1,0,0,0-1.3,7c0,.7,1.4,2.8,1.4,3.5v5.6c0,.6.7,2.8.7,3.5v3.6c0,1.3-.6,12.6-.6,14.1.1,8.9-.4,13.6,2.2,14.1h5s1.4.7,1.4,1.4c1.5,2.4-2.2,2.1-7,2.1-.8,0-2.8.7-3.6.7-2.9-.6-19.3,1.6-18.3-2.1-.7-2.7,3.5-2,5.6-2,3.2-1.5,3-5.9,4.9-9.3.2-.8,0-1.3-.8-2.8.2-.3-.6-.9.8-3.5.3-3.7-.8-5.5-.8-7.8,0-3.3.2-7.3-.7-9.1-.1-9.5,1.4-15.4,1.4-22.6C11.5,62,10.9,57.6,10,56c1.1-3.7-1.8-5.1-2.8-5.6C4.5,50.2.9,47.9.1,47.6V46.3H7.9c-2.6-1,15-.7,21.9-.7.7,0,7-.8,7.8-.8,4.5.1,8-.9,14.1,4.2.7,0,2.8,2.8,3.5,2.8,1.5.8,3.6,1.6,3.5,2.1C58.3,58.6,62.1,63.1,62.1,68Zm49-.4c-1.6,0-6-1.1-9,3.3l.8.8c2.9,0,6.8,2.7,7.4,2.5,1-1,1.6,10,1.6,14.7,0,5.3,1.3,10.6.8,11.4,0,2.9-2.8,6.5-1.6,8.2,0,1.9-2.7,5-2.5,4.9-6,6-8.2,1.4-13.9,4.9H91.4c-3.2,0-6.4-3-8.1-4.8,0-4.7-1.6-10.4-1.6-13.1,0-3.5-.4-8.8.8-10.6,0-1,1.1-12.3.8-13,0-4.6-1.1-5.5-8.1-9-6.9,0-10.6-.1-9,4.1l.8.9c.9,0,4.2,2.4,5,2.4,1.1,1.5,2,10.2,1.6,10.6-1.2.2-.8,7.2-.8,10.6v9c0,3.5,1.7,7.1,1.7,8.9,0,.8,1.6,3.3,1.6,3.3,6.3,9.1,11.7,6.2,13.1,7.3,4.2,0,7.2-1.6,11.4-1.6.8,0,3.3-3.3,3.3-3.3.8,0,3.3-1.7,4.1-1.7-.3,0,4.1-.7,4.1,1.7,1.7,2.6,2.4,3.9,4.1,3.3,1.6,0,5.1-2.5,8.1-2.5,4.6-1.1,6.8-1.3,5.8-3.3-.2.2-2.4-2.5-4.1-2.5-2.1-.4-3.9-.7-5-2.3v-6.5c0-.8.9-4.1.9-5,0-2-1.6-4.3-.9-6.4,0-4.6,1.7-7.7,1.7-12.3A34,34,0,0,1,121,72c-3.4-3.6-8.8-3.6-9.9-4.4Zm83.7,31.1s-.8,3.3-1.6,4.1c0,.8-2.5,4.1-2.5,4.8v3.2c-4.7,11.5-20.2,12-33.9,12.3-.9,0-2.5-1.6-3.3-1.6-1.8-.1-3.7-1.7-5.6-3.1h-.8c-.8,0-4,3.2-4.8,3.2a4.19,4.19,0,0,1-2.4-3.1c0-2.4-.9-2.5-.9-4.1l.9-3.4c.2-4.1-.9-5.6-.9-8,0-.8.9-4.1.9-4.9.2-6.8-.9-12.2-.9-17,0-.8.9-7.2.9-8.2,0-5.5-.5-15.6.8-16,.2-2.4-.8-4.3-.8-6.7-1.2-3.4,3.9-3.3-8.3-13.6V35c1.6-.6,6.5-4.2,9.8-4.2,6.4,0,8.9.2,8.9,6.5.7.3-.9,7.7-.9,12.1,0,6.3.3,16.2-.8,17,.2,4.7,2.1,4.1,3.3,4.1.8,0,4.8-1.6,5.6-1.6,3.4,0,8.8-1.7,12.2-1.7,3-.3,5.3.8,8,1.7,4.2-.5,5.8,2.6,9,5.7l.8,1.6C195.5,77.8,194.8,96.2,194.8,98.7ZM179.3,82.5c0-.8-3.2-3.2-3.2-3.9-2.4-4.6-8.1-4.4-9.7-5.8-2,.7-10.5-1.6-13.8,1.8.1-.2-2.4,2.8-2.4,4.8,0,2.4-.9,13.8-.9,16.2v.8c0,.8.9,4,.9,4.8,0,6.7-.3,12.6,3.2,15.3,3.3,1.7,10.6,2.4,11.4,2.4,9.5-4.1,18.6-6.1,18.5-20.3C183.5,85.8,180.9,87.5,179.3,82.5Zm83.6-26.6a14.87,14.87,0,0,0,.7-4.7c0-1.1-4.9-4.6-6.8-4.6-4.1-.8-6.2-.8-7.3-2.7h-2.7c-5.1,0-11.3,2-16,1.4-1.2,1.3-4.2,2-6.8,2-1.6,1.1-7.6,4.3-8,4.6l-9.3,9.4c-1.7,3.2-4.7,7.4-4.7,10,0,.7-1.9,3.4-1.9,4.1-.2.1-.7,7.9-.7,8.7s.7,4.1.7,4.7v4.6c0,2,2.1,3.8,1.9,6.1,0,2.7,2.4,3.7,2,5.3,0,2.1,11.9,12.3,12.1,11.4,1.1,1.2,2.4,2.6,3.4,2.7.7,0,5.3,1.9,6,1.9,1.7,0,7.3,1.3,11.4,1.3l1.4.7h8c11.6,0,13.4-2.3,15.4-3.3.9-1.1,1.7-5,2-5.4.5-2.8,1.2-5.2,1.2-6.7,0-2-1-3.3-1.2-2.7-3.6,0-5.1,5.1-6.1,6l-3.4,3.4c-.7,0-3.9,2-4.6,2-2,.8-2.8,2-6.1,2-4.4,0-3.3.9-8.7.7-3-.8-8.1-.8-11.4-4s-4.3-1.8-9.4-16c0-2-2.5-3.7-1.4-6.1-.8-2.4-.7-3.5-.7-12.1,0-3.2,1.3-5.1,1.3-8,1.4-2.6,1.8-5.1,2.7-8,0-.7,2.7-2.7,2.7-3.4.7-.7,3.3-5.3,3.9-6-.2-.6,6.4-4.2,6.1-4.1,6.4-1.5,4.1-2.1,12.1-1.9,1.4,0,5.3.7,6,.7,3.7,1.9,11.1,5.4,11.4,9.3,4.1,4,3.4,1,4.1,2,.6-.3.9-1.2,1.3-2C263.3,58.1,263,57,262.9,55.9Zm67.9,42.6c-1.8,5.2.1,6.1-7,13.2-3.5,3.5-4.6,3.8-7.8,7-4.6,1.4-5.9.9-10.8,4.8a65.14,65.14,0,0,1-16.4-3.1c-2.8,0-4.1-3.5-11.6-8.5-2.1-1.8-6.2-10.7-6.2-17-.9-.8,1.6-3.2,1.6-9.4,0-2,2.4-3.7,3.8-5.4-.9-2.2,7.1-11,14-13.3h14.8c.7,1.1,4.5.8,7,.8.1.6,3.2.9,5.4,3.2,2.4,0,5.3,5.1,7.8,7.8.8.8,2.4,5.4,3.2,6.2.1,1,2.3,7.9,2.3,10.8C330.8,98,330.8,98.2,330.8,98.5Zm-14-18.6c-1.6-1.7-9.8-11.8-13.2-11.7-2.4,1-5.5.8-8.6.8a51.17,51.17,0,0,0-8.4,7c-2.1,3.8-2,9.2-3.9,10.2,0,4.1.4,9.6-.8,11.6.4,2.1.6,4.1.8,6.2,0,8.9,3.6,6.3,4.6,8.6l1.6,3.2c9.6,4.8,9.1,3.8,14,3.8,1,1,7.6-5,11.7-7,2.1,0,5-10.4,5.4-10.8.6-1.2-.8-10.8-.8-16.3a17.58,17.58,0,0,0-2.4-5.6Zm81.7,40.2-.8-.8c-.8,0-5.5-3.1-6.3-3.1-1.4-.8-1.9-3.8-2.4-4.7,0-2.2,1.6-9.6,1.5-15.9a9.56,9.56,0,0,1-.8-4.7l.8-2.4a28.48,28.48,0,0,1-1.6-8.7c.6-1-3.2-4.7-3.2-7.2-6.1-8.1-13-4.7-17.5-5.5-1.9.8-3.3,2.5-7.1,3.2-3,.6-4.7,3.3-7.9,3.2-1.4-1.2.1-6.3-2.4-6.3l-1.7-.8c-1-.3-3,2.7-4.7,4.8-3.4,3.4-4.6,4.9-8.7,7.1,0,2.5,1.2,3,5.5,5.6,0,.8.8,6.3.8,7.9,0,5.1,0,14.9.1,25.4-2.7,1.8-3.9,2.7-7.1,3.2v.8c0,2.9,1.1,2.2,4.7,2.4.8,0,3.2-.8,4-.8h16.7c.8-.7,1-.9.8-2.4-.8-1.1-4.2-2.4-7.1-2.4-1.5-.9-2.4-3.4-2.4-5.5l.1-25.5c.7-1.9.9-4.2,2.4-6.3,6.3-6.3,14.1-8,15.8-7.2s3.5,2.4,6.3,3.1c3.4,0,2.4,7.3,2.4,11.2,0,.8.8,3.9.8,4.7s1.6,3.9,1.6,4.7a8.87,8.87,0,0,1-.8,3.2v15.1c-.8.8-.3,2.4-2.4,2.4-.8.7-3.8.7-6.3,2.4,0,2.6,2.8,1.2,4.7,1.6.8,0,4,.8,4.7.8h16.7a2.38,2.38,0,0,0,.8-2.6Zm36-89.3c-3.2,0-5.1,2.7-8.8,3.3-3.5,3.4-8.1,5.7-8.1,8.8-.7,2.7-.7,6.3-3.1,6.3,0,3.8-2.2,11.6-2.3,11.2,0,7.7.7,5.8-7.2,12.8,0,2.5,1.1,2.1,6.4,6.4,0,2.5.8,5.6,2.4,6.3v1.6c0,.9-1.6,3.3-1.6,4.1,0,8.9-.3,13.1.8,15.9,0,2.1-2.8,4.4-1.6,6.4-2.8,7.2-6,2.9-8.9,7.1l.8.8h14.4c2-.8,2.7-.8,7.2-.8,3,0,3.4.8,10.5.8.7-.8.8.1.8-3.2.9-1.1-4.9-.8-7.2-.8-.5-.3-7.8-3.5-7.2-3.9l-.1-24.7c0-1.8-1.1-3.4-.8-6.4,1.2-4.6-.6-8,8.8-8,.8,0,6.4-.8,8-.8a4.89,4.89,0,0,0,1.7-3.9c0-.8-1.7-2.4-1.7-2.4H426.5c-.5,0-3.8-1.3-4.1-2.5,0-3.7-1.4-9.8-.8-11.1a20.85,20.85,0,0,1,5.6-14.4c1.3-1.1,4.8-.7,4.8-.8,3,0,5.1,2.3,8,2.3.8,0,5.5.8,6.4.8,2.1,0,5.3-3.3,4.7-4.7.1-2.7.1-6.5-16.6-6.5Z" transform="translate(-0.1 0.09)" style="fill:#fffffc"/><path d="M376.1,126.7h-.2l-.3-.1h-.7c-.4,0-.9.1-1.5.1a8.42,8.42,0,0,1-3.5-.7c-.5,1.4-1.1,2.9-1.6,4.3a22.43,22.43,0,0,1-5.4,8.5c-2.3,2.3-4.5,4.8-6.9,6.9a1.85,1.85,0,0,0-1.2.5v0c-2.7-.6-5-2.1-7.3-3.3-1-.5-1.7-.5-2.3.1a10.15,10.15,0,0,0-1.9,2.7c-.8,1.8-1.3,2-3,.8-.5-.4-.6-.5-1,.1-.9,1.2-1.9,2.2-2.9,3.4h0a.52.52,0,0,0-.8.2c0,.1-.1.1-.1.2l-.2.3c-.5-.1-.9-.2-1.3.2a4.92,4.92,0,0,0-2.1-.4c-2.4.2-4.9,3.6-4.6,6.6a9.7,9.7,0,0,0-.1,1.7l-.2.5a1.42,1.42,0,0,1,.2.6,1.42,1.42,0,0,1-.2-.6l-.2.3c-.7.6-.7,1.7-1.6,2.1-1.9,0-3.4,1-5,1.6-4.3,1.4-8.7,1.4-13.1,1.9h-2.6c-1.6-.4-3.4.2-5-.4a4.05,4.05,0,0,0-3-.8c-1.9.4-3.6-.8-5.5-.9a33.87,33.87,0,0,1-8.4-1.7,75.32,75.32,0,0,1-8.9-3.6c-2.4-1.1-5-2.2-7.5-3.2a27.06,27.06,0,0,1-3.7-2.1c-4.4-2.7-8.1-6.3-12.3-9.2-2.9-2-5.1-4.7-7.9-6.8-1.6-1.1-2.5-3-3.8-4.5a3.45,3.45,0,0,0-1.2-1.2,33.75,33.75,0,0,1-2.8-3.8c-2.2-.2-4.4-.5-6.2-.8L227,126c.4.8.8,1.6,1.3,2.4a36.94,36.94,0,0,0,4.1,6.9c1.2,1.7,2.3,3.4,3.6,5a106.43,106.43,0,0,0,8.4,9.4,62.24,62.24,0,0,0,9.2,7.8A81.84,81.84,0,0,0,282,171c.2.5.5.4.9.3l.8.3c.3.5.6.3,1,.1l.9.1a.49.49,0,0,0,.7.1h0l.7.2a2.23,2.23,0,0,0,2.1.2,2.89,2.89,0,0,0,2.4.3,3.14,3.14,0,0,0,2.1.5,6,6,0,0,0,2.3.1.63.63,0,0,0,.8.2.1.1,0,0,0,.1-.1h0a9.71,9.71,0,0,0,3.4,0,3.21,3.21,0,0,1-.2-1.7,4.68,4.68,0,0,0,.2,1.7l1.5.1a.77.77,0,0,0,1-.1,6.72,6.72,0,0,0,2.8-.3c3.9.7,7.7-.2,11.4-1.2a38.59,38.59,0,0,0,4.9-.6c3.5-1.1,7.1-1.7,10.5-3.4,3-1.5,6.1-2.9,9-4.4a99.83,99.83,0,0,0,9.8-6.1c3.1-2.1,6.4-4.1,8.5-7.3a1.7,1.7,0,0,0,1-.6l-.4-.3c-.1-.1-.2-.2-.3-.2.1.1.2.2.3.2l.4.3a35.71,35.71,0,0,0,5-5.3q3.3-3.9,6.3-8.1c1.5-2.2,3.3-4.3,4-7.1l.2-.5a2.54,2.54,0,0,0,1.3-1.4C377.2,126.9,376.4,126.8,376.1,126.7ZM304,165.9a.78.78,0,0,0,.4-.4A.78.78,0,0,1,304,165.9Zm7.3.7c-.2.2-.4.3-.6.5a2.65,2.65,0,0,0,.6-.5l1.5-.3Zm14-3.1a.76.76,0,0,0-.4-.2,9.29,9.29,0,0,0,.5-1l-.5,1c.1,0,.2.1.4.2Zm36.9-18.3-.3-.3c.1,0,.2.2.3.3v0ZM231.5,40.3a6.6,6.6,0,0,0,1.4.1,42,42,0,0,0,6.2-.7,54,54,0,0,1,6.9-.8c.8-1.3,1.6-2.5,2.4-3.8a18.66,18.66,0,0,1,3.9-5.3,92.92,92.92,0,0,1,18.1-12.9,2.76,2.76,0,0,1,2.9-.1,2.41,2.41,0,0,0,3-.2,6.13,6.13,0,0,1,3.4-1.7,1.17,1.17,0,0,0,1-.9c1.5-.9,3.3-.8,4.8-1.8a2.93,2.93,0,0,1,2.2-.4c1.8.5,3.4-.1,5-.6.3-.1.7-.3,1-.1,1.3.6,2.4,0,3.5-.6,2.6.4,3.5,2.9,5.4,4.2,1.5,1,2.4,2.1,2,4a6.17,6.17,0,0,0,1.1,4.7c1.4,2,3.5,2.9,5.5,4l.5.4h0a2.56,2.56,0,0,0,1,1.3c.9,2.4,1.7,2.9,4.3,2.3a8.33,8.33,0,0,1,5.4.3c2,.8,4.1,1.3,6.3.1a16.24,16.24,0,0,0,7.4-6.8,1.55,1.55,0,0,1,1.1-.8c2.9-.5,6.6,2.7,6.6,5.6a.86.86,0,0,1-.3.6c-.9.7-.2.8.3,1,1.8.7,2.1,1.5,1,3.2a9.75,9.75,0,0,0-1.6,4.4c2.1-1.9,2.5-4.6,4.8-5.8,1.2-.5,1,1.1,1.8,1.2,1.2.2,1.2,2,2.6,2.4.3.1-.2.9-.6,1.3-.5.6-1.2,1-1.5,1.9.7.1,1.1-.4,1.5-.7,1.2-.8,2.1-1.1,2.1.8,0,.9.4.8,1.2.5s1.7-.3,1.3,1.1c-.2.8-.2,1.4,1,1.5,1.8.2,2,1.3.9,2.7a5.22,5.22,0,0,0-1.4,1.9c.9-.4,1.5-.6,2.1-.9,1-.4,1.9-1.2,2.9-.3-.5.9-.7,1.7.6,2.2a2.36,2.36,0,0,1,.9.8c-1.2,1.8,0,2.2,1.4,2.4.1,0,.2.3.3.4a.91.91,0,0,0,1.1.6h0c2.5-.6,4.6,1,6.9,1.3.5,0,.8.5,1,.9-.1.5-.5.9-.3,1.4-.3.8-.6,1.7-.9,2.5-1.2.5-1.4,1.6-1.6,2.6l-.1.2h.6c.9,0,1.9-.1,2.9-.1a18,18,0,0,1,9.1,2.2c-.2-.9-.5-1.8-.8-2.8-1.2-3.6-2.2-7.3-4.2-10.7l-.3.2.3-.2c0-.1-.1-.1-.2-.2l-.8-.3h0l.8.3a3.1,3.1,0,0,0-1-2.4l-.3-1.2a34.21,34.21,0,0,0-4.9-8.5c-1.5-1.8-2.2-4-4-5.6a1.09,1.09,0,0,0-.8-.8h0c-.2-1.6-1.9-1.9-2.5-2.9-2.1-3.4-5.5-5.6-8.3-8.2a66.38,66.38,0,0,0-13.4-9.5l-2.2-1.1c-.1-.4-.2-.5-.6-.4l-.9-.5h0a.76.76,0,0,0-.9-.5,1.37,1.37,0,0,0-1.3-.6,12.77,12.77,0,0,0-4.9-2.2l-3.8-1.2a1.2,1.2,0,0,0-1.3-.6,31.61,31.61,0,0,1-5.2-1.7C318.2,1,313.9.7,309.6.1A54.42,54.42,0,0,0,294,1a32,32,0,0,0-9.2,1.3c-2.2.6-4.5.7-6.5,2.1h0l-1.7.6c-2.2.6-4.4,1.2-6.6,2a50,50,0,0,0-10.4,5.7,116,116,0,0,0-11.1,7.7,73.94,73.94,0,0,0-17,19.9ZM373.6,59a1.79,1.79,0,0,1,.7.5,1.28,1.28,0,0,0-.7-.5c.3-.6.6-1.3.9-1.9A8.18,8.18,0,0,1,373.6,59Zm0-13.9h0l1,.5Zm.1-2.1a.9.9,0,0,1-.1.5,1.21,1.21,0,0,1,.5.5,1.21,1.21,0,0,0-.5-.5.9.9,0,0,0,.1-.5ZM352.5,19l1,.5c1.3,1.3,2.5,2.5,3.9,3.7-1.4-1.2-2.6-2.4-3.9-3.7h0l-1-.5-.6.5Zm-12.3-8.1a5.5,5.5,0,0,1-.9-.7h0a1.6,1.6,0,0,0,.9.7Zm-1-.6c-.1.2-.2.3-.4.3.2,0,.3-.1.4-.3Zm-1.2.1v.5a.45.45,0,0,1,0-.5l-.3-.2Zm-5.8-2.8.2.1-.2-.1a3,3,0,0,1-1,.4,4.18,4.18,0,0,0,1-.4ZM313.4,2.1l.4.2-.4-.2a.35.35,0,0,1-.1.2.35.35,0,0,0,.1-.2ZM288.5,3.6l-.3.6.3-.6h0Zm-8.4,9.8a6.47,6.47,0,0,1,.8-.9c-.3.3-.5.6-.8.9l-.6-.3Zm2.3,4a1.3,1.3,0,0,1-.9-1.4v-.1c.4-.6.9-1,1.6-.7a1.08,1.08,0,0,1,.7,1.4c0,.1,0,.1-.1.2a1,1,0,0,1-1.3.7c.1-.1,0-.1,0-.1Z" transform="translate(-0.1 0.09)" style="fill:#ff9318"/><path d="M19.94,155.88v16.53H17v-41H27.56q7.23,0,10.89,3.16t3.67,9a12.08,12.08,0,0,1-1,5,11,11,0,0,1-2.88,3.9A13.59,13.59,0,0,1,33.65,155a18.83,18.83,0,0,1-6.09.91Zm0-2.38h7.62a14.75,14.75,0,0,0,4.88-.75,10.73,10.73,0,0,0,3.64-2.09,9.19,9.19,0,0,0,2.29-3.14,9.76,9.76,0,0,0,.8-4,9.17,9.17,0,0,0-2.92-7.28q-2.91-2.55-8.69-2.55H19.94Z" transform="translate(-0.1 0.09)" style="fill:#fff"/><path d="M83.82,131.38v2.46H62.22v16.59h18v2.41h-18V170h21.6v2.46H59.23v-41Z" transform="translate(-0.1 0.09)" style="fill:#fff"/><path d="M106,153.85v18.56h-3v-41h10.47q7.11,0,10.61,2.74t3.51,8a11.08,11.08,0,0,1-.81,4.29,10.09,10.09,0,0,1-2.34,3.41,12.49,12.49,0,0,1-3.66,2.4A16.2,16.2,0,0,1,116,153.5a4.6,4.6,0,0,1,1.25,1.17l14.12,17.74H128.8a1.62,1.62,0,0,1-.79-.17,2.06,2.06,0,0,1-.66-.58L114.22,155a3.11,3.11,0,0,0-1.06-.9,4.52,4.52,0,0,0-1.76-.26Zm0-2.2h7.13a17.08,17.08,0,0,0,4.89-.65,10.57,10.57,0,0,0,3.65-1.87A8.09,8.09,0,0,0,124,146.2a9.21,9.21,0,0,0,.78-3.86c0-2.92-1-5.08-2.87-6.5s-4.7-2.11-8.35-2.11H106Z" transform="translate(-0.1 0.09)" style="fill:#fff"/><path d="M173,131.38v2.52H158.59v38.51h-3V133.9h-14.5v-2.52Z" transform="translate(-0.1 0.09)" style="fill:#fff"/><path d="M220.47,172.41h-3V152.75H191.79v19.66h-3v-41h3v19.14h25.69V131.38h3Z" transform="translate(-0.1 0.09)" style="fill:#fff"/></svg>