<svg xmlns="http://www.w3.org/2000/svg" viewBox="0 0 451.07 173.64"><title>event-logo</title><path d="M62,68.09c-2.9,4.8.1,7.1-2.8,10.5,0,.8-3.5,2.8-3.5,3.6-1.9,4.3-1.8,4.8-8.4,6.3-.7,0-3.5,2-4.2,2-1.9-.7-6.5,1.6-12.7-1.3-2.6,0-2.2-.6-2.2-3.5-.6-1,4.2-.7,6.4-.7,6.4,0,11-4.5,13.3-9.3v-14c0-2.2-1.7-4.3-5.7-8.4-2.9-3-7.8-3.5-8.5-4.2-.9,0-5.8-.9-6.3-.7-.1-.9-2.7,1.4-4.2,1.4-3.6,1.2-1.1,10.8-2.8,12.8.3,1.8,1.4,3.7,1.4,5.6a13.12,13.12,0,0,0-1.3,7c0,.7,1.4,2.8,1.4,3.5v5.6c0,.6.7,2.8.7,3.5v3.6c0,1.3-.6,12.6-.6,14.1.1,8.9-.4,13.6,2.2,14.1h5s1.4.7,1.4,1.4c1.5,2.4-2.2,2.1-7,2.1-.8,0-2.8.7-3.6.7-2.9-.6-19.3,1.6-18.3-2.1-.7-2.7,3.5-2,5.6-2,3.2-1.5,3-5.9,4.9-9.3.2-.8,0-1.3-.8-2.8.2-.3-.6-.9.8-3.5.3-3.7-.8-5.5-.8-7.8,0-3.3.2-7.3-.7-9.1-.1-9.5,1.4-15.4,1.4-22.6-.7-2.5-1.3-6.9-2.2-8.5,1.1-3.7-1.8-5.1-2.8-5.6C4.4,50.29.8,48,0,47.69v-1.3H7.8c-2.6-1,15-.7,21.9-.7.7,0,7-.8,7.8-.8,4.5.1,8-.9,14.1,4.2.7,0,2.8,2.8,3.5,2.8,1.5.8,3.6,1.6,3.5,2.1C58.2,58.69,62,63.19,62,68.09Zm49-.4c-1.6,0-6-1.1-9,3.3l.8.8c2.9,0,6.8,2.7,7.4,2.5,1-1,1.6,10,1.6,14.7,0,5.3,1.3,10.6.8,11.4,0,2.9-2.8,6.5-1.6,8.2,0,1.9-2.7,5-2.5,4.9-6,6-8.2,1.4-13.9,4.9H91.3c-3.2,0-6.4-3-8.1-4.8,0-4.7-1.6-10.4-1.6-13.1,0-3.5-.4-8.8.8-10.6,0-1,1.1-12.3.8-13,0-4.6-1.1-5.5-8.1-9-6.9,0-10.6-.1-9,4.1l.8.9c.9,0,4.2,2.4,5,2.4,1.1,1.5,2,10.2,1.6,10.6-1.2.2-.8,7.2-.8,10.6v9c0,3.5,1.7,7.1,1.7,8.9,0,.8,1.6,3.3,1.6,3.3,6.3,9.1,11.7,6.2,13.1,7.3,4.2,0,7.2-1.6,11.4-1.6.8,0,3.3-3.3,3.3-3.3.8,0,3.3-1.7,4.1-1.7-.3,0,4.1-.7,4.1,1.7,1.7,2.6,2.4,3.9,4.1,3.3,1.6,0,5.1-2.5,8.1-2.5,4.6-1.1,6.8-1.3,5.8-3.3-.2.2-2.4-2.5-4.1-2.5-2.1-.4-3.9-.7-5-2.3v-6.5c0-.8.9-4.1.9-5,0-2-1.6-4.3-.9-6.4,0-4.6,1.7-7.7,1.7-12.3a34,34,0,0,1-1.7-10.5C117.5,68.49,112.1,68.49,111,67.69Zm83.7,31.1s-.8,3.3-1.6,4.1c0,.8-2.5,4.1-2.5,4.8v3.2c-4.7,11.5-20.2,12-33.9,12.3-.9,0-2.5-1.6-3.3-1.6-1.8-.1-3.7-1.7-5.6-3.1H147c-.8,0-4,3.2-4.8,3.2a4.2,4.2,0,0,1-2.4-3.1c0-2.4-.9-2.5-.9-4.1l.9-3.4c.2-4.1-.9-5.6-.9-8,0-.8.9-4.1.9-4.9.2-6.8-.9-12.2-.9-17,0-.8.9-7.2.9-8.2,0-5.5-.5-15.6.8-16,.2-2.4-.8-4.3-.8-6.7-1.2-3.4,3.9-3.3-8.3-13.6v-1.6c1.6-.6,6.5-4.2,9.8-4.2,6.4,0,8.9.2,8.9,6.5.7.3-.9,7.7-.9,12.1,0,6.3.3,16.2-.8,17,.2,4.7,2.1,4.1,3.3,4.1.8,0,4.8-1.6,5.6-1.6,3.4,0,8.8-1.7,12.2-1.7,3-.3,5.3.8,8,1.7,4.2-.5,5.8,2.6,9,5.7l.8,1.6c8,1.6,7.3,20,7.3,22.5Zm-15.5-16.2c0-.8-3.2-3.2-3.2-3.9-2.4-4.6-8.1-4.4-9.7-5.8-2,.7-10.5-1.6-13.8,1.8.1-.2-2.4,2.8-2.4,4.8,0,2.4-.9,13.8-.9,16.2v.8c0,.8.9,4,.9,4.8,0,6.7-.3,12.6,3.2,15.3,3.3,1.7,10.6,2.4,11.4,2.4,9.5-4.1,18.6-6.1,18.5-20.3C183.4,85.89,180.8,87.59,179.2,82.59ZM262.8,56a15,15,0,0,0,.7-4.7c0-1.1-4.9-4.6-6.8-4.6-4.1-.8-6.2-.8-7.3-2.7h-2.7c-5.1,0-11.3,2-16,1.4-1.2,1.3-4.2,2-6.8,2-1.6,1.1-7.6,4.3-8,4.6l-9.3,9.4c-1.7,3.2-4.7,7.4-4.7,10,0,.7-1.9,3.4-1.9,4.1-.2.1-.7,7.9-.7,8.7s.7,4.1.7,4.7v4.6c0,2,2.1,3.8,1.9,6.1,0,2.7,2.4,3.7,2,5.3,0,2.1,11.9,12.3,12.1,11.4,1.1,1.2,2.4,2.6,3.4,2.7.7,0,5.3,1.9,6,1.9,1.7,0,7.3,1.3,11.4,1.3l1.4.7h8c11.6,0,13.4-2.3,15.4-3.3.9-1.1,1.7-5,2-5.4.5-2.8,1.2-5.2,1.2-6.7,0-2-1-3.3-1.2-2.7-3.6,0-5.1,5.1-6.1,6l-3.4,3.4c-.7,0-3.9,2-4.6,2-2,.8-2.8,2-6.1,2-4.4,0-3.3.9-8.7.7-3-.8-8.1-.8-11.4-4s-4.3-1.8-9.4-16c0-2-2.5-3.7-1.4-6.1-.8-2.4-.7-3.5-.7-12.1,0-3.2,1.3-5.1,1.3-8,1.4-2.6,1.8-5.1,2.7-8,0-.7,2.7-2.7,2.7-3.4.7-.7,3.3-5.3,3.9-6-.2-.6,6.4-4.2,6.1-4.1,6.4-1.5,4.1-2.1,12.1-1.9,1.4,0,5.3.7,6,.7,3.7,1.9,11.1,5.4,11.4,9.3,4.1,4,3.4,1,4.1,2,.6-.3.9-1.2,1.3-2C263.2,58.19,262.9,57.09,262.8,56Zm67.9,42.6c-1.8,5.2.1,6.1-7,13.2-3.5,3.5-4.6,3.8-7.8,7-4.6,1.4-5.9.9-10.8,4.8a65.39,65.39,0,0,1-16.4-3.1c-2.8,0-4.1-3.5-11.6-8.5-2.1-1.8-6.2-10.7-6.2-17-.9-.8,1.6-3.2,1.6-9.4,0-2,2.4-3.7,3.8-5.4-.9-2.2,7.1-11,14-13.3h14.8c.7,1.1,4.5.8,7,.8.1.6,3.2.9,5.4,3.2,2.4,0,5.3,5.1,7.8,7.8.8.8,2.4,5.4,3.2,6.2.1,1,2.3,7.9,2.3,10.8C330.7,98.09,330.7,98.29,330.7,98.59ZM316.7,80c-1.6-1.7-9.8-11.8-13.2-11.7-2.4,1-5.5.8-8.6.8a51.17,51.17,0,0,0-8.4,7c-2.1,3.8-2,9.2-3.9,10.2,0,4.1.4,9.6-.8,11.6.4,2.1.6,4.1.8,6.2,0,8.9,3.6,6.3,4.6,8.6l1.6,3.2c9.6,4.8,9.1,3.8,14,3.8,1,1,7.6-5,11.7-7,2.1,0,5-10.4,5.4-10.8.6-1.2-.8-10.8-.8-16.3a17.62,17.62,0,0,0-2.4-5.6Zm81.7,40.2-.8-.8c-.8,0-5.5-3.1-6.3-3.1-1.4-.8-1.9-3.8-2.4-4.7,0-2.2,1.6-9.6,1.5-15.9a9.59,9.59,0,0,1-.8-4.7l.8-2.4a28.65,28.65,0,0,1-1.6-8.7c.6-1-3.2-4.7-3.2-7.2-6.1-8.1-13-4.7-17.5-5.5-1.9.8-3.3,2.5-7.1,3.2-3,.6-4.7,3.3-7.9,3.2-1.4-1.2.1-6.3-2.4-6.3l-1.7-.8c-1-.3-3,2.7-4.7,4.8-3.4,3.4-4.6,4.9-8.7,7.1,0,2.5,1.2,3,5.5,5.6,0,.8.8,6.3.8,7.9,0,5.1,0,14.9.1,25.4-2.7,1.8-3.9,2.7-7.1,3.2v.8c0,2.9,1.1,2.2,4.7,2.4.8,0,3.2-.8,4-.8h16.7c.8-.7,1-.9.8-2.4-.8-1.1-4.2-2.4-7.1-2.4-1.5-.9-2.4-3.4-2.4-5.5l.1-25.5c.7-1.9.9-4.2,2.4-6.3,6.3-6.3,14.1-8,15.8-7.2s3.5,2.4,6.3,3.1c3.4,0,2.4,7.3,2.4,11.2,0,.8.8,3.9.8,4.7s1.6,3.9,1.6,4.7a8.87,8.87,0,0,1-.8,3.2v15.1c-.8.8-.3,2.4-2.4,2.4-.8.7-3.8.7-6.3,2.4,0,2.6,2.8,1.2,4.7,1.6.8,0,4,.8,4.7.8h16.7a2.39,2.39,0,0,0,.8-2.6Zm36-89.3c-3.2,0-5.1,2.7-8.8,3.3-3.5,3.4-8.1,5.7-8.1,8.8-.7,2.7-.7,6.3-3.1,6.3,0,3.8-2.2,11.6-2.3,11.2,0,7.7.7,5.8-7.2,12.8,0,2.5,1.1,2.1,6.4,6.4,0,2.5.8,5.6,2.4,6.3v1.6c0,.9-1.6,3.3-1.6,4.1,0,8.9-.3,13.1.8,15.9,0,2.1-2.8,4.4-1.6,6.4-2.8,7.2-6,2.9-8.9,7.1l.8.8h14.4c2-.8,2.7-.8,7.2-.8,3,0,3.4.8,10.5.8.7-.8.8.1.8-3.2.9-1.1-4.9-.8-7.2-.8-.5-.3-7.8-3.5-7.2-3.9l-.1-24.7c0-1.8-1.1-3.4-.8-6.4,1.2-4.6-.6-8,8.8-8,.8,0,6.4-.8,8-.8a4.89,4.89,0,0,0,1.7-3.9c0-.8-1.7-2.4-1.7-2.4H426.4c-.5,0-3.8-1.3-4.1-2.5,0-3.7-1.4-9.8-.8-11.1a20.85,20.85,0,0,1,5.6-14.4c1.3-1.1,4.8-.7,4.8-.8,3,0,5.1,2.3,8,2.3.8,0,5.5.8,6.4.8,2.1,0,5.3-3.3,4.7-4.7C451.1,34.69,451.1,30.89,434.4,30.89Z" transform="translate(0 0.01)" style="fill:#fffffc"/><path d="M376,126.79h-.2l-.3-.1h-.7c-.4,0-.9.1-1.5.1a8.42,8.42,0,0,1-3.5-.7c-.5,1.4-1.1,2.9-1.6,4.3a22.4,22.4,0,0,1-5.4,8.5c-2.3,2.3-4.5,4.8-6.9,6.9a1.85,1.85,0,0,0-1.2.5h0c-2.7-.6-5-2.1-7.3-3.3-1-.5-1.7-.5-2.3.1a10,10,0,0,0-1.9,2.7c-.8,1.8-1.3,2-3,.8-.5-.4-.6-.5-1,.1-.9,1.2-1.9,2.2-2.9,3.4h0a.52.52,0,0,0-.73.08.75.75,0,0,0-.07.12c0,.1-.1.1-.1.2l-.2.3c-.5-.1-.9-.2-1.3.2a4.88,4.88,0,0,0-2.1-.4c-2.4.2-4.9,3.6-4.6,6.6a9.65,9.65,0,0,0-.1,1.7l-.2.5a1.42,1.42,0,0,1,.2.6,1.42,1.42,0,0,1-.2-.6l-.2.3c-.7.6-.7,1.7-1.6,2.1-1.9,0-3.4,1-5,1.6-4.3,1.4-8.7,1.4-13.1,1.9h-2.6c-1.6-.4-3.4.2-5-.4a4.07,4.07,0,0,0-3-.8c-1.9.4-3.6-.8-5.5-.9a34,34,0,0,1-8.4-1.7,75.28,75.28,0,0,1-8.9-3.6c-2.4-1.1-5-2.2-7.5-3.2a26.48,26.48,0,0,1-3.7-2.1c-4.4-2.7-8.1-6.3-12.3-9.2-2.9-2-5.1-4.7-7.9-6.8-1.6-1.1-2.5-3-3.8-4.5a3.45,3.45,0,0,0-1.2-1.2,33.49,33.49,0,0,1-2.8-3.8c-2.2-.2-4.4-.5-6.2-.8l-1.3-.2c.4.8.8,1.6,1.3,2.4a36.94,36.94,0,0,0,4.1,6.9c1.2,1.7,2.3,3.4,3.6,5a105.53,105.53,0,0,0,8.4,9.4,62.85,62.85,0,0,0,9.2,7.8,81.91,81.91,0,0,0,28.4,13.5c.2.5.5.4.9.3l.8.3c.3.5.6.3,1,.1l.9.1a.48.48,0,0,0,.68.11h0l.7.2a2.24,2.24,0,0,0,2.1.2,2.86,2.86,0,0,0,2.4.3,3.12,3.12,0,0,0,2.1.5,5.93,5.93,0,0,0,2.3.1.63.63,0,0,0,.8.2.09.09,0,0,0,.1-.1h0a9.71,9.71,0,0,0,3.4,0,3.19,3.19,0,0,1-.2-1.7,4.67,4.67,0,0,0,.2,1.7l1.5.1a.76.76,0,0,0,1-.1,6.65,6.65,0,0,0,2.8-.3c3.9.7,7.7-.2,11.4-1.2a40.46,40.46,0,0,0,4.9-.6c3.5-1.1,7.1-1.7,10.5-3.4,3-1.5,6.1-2.9,9-4.4a100.09,100.09,0,0,0,9.8-6.1c3.1-2.1,6.4-4.1,8.5-7.3a1.73,1.73,0,0,0,1-.6l-.4-.3c-.1-.1-.2-.2-.3-.2.1.1.2.2.3.2l.4.3a35.83,35.83,0,0,0,5-5.3q3.3-3.9,6.3-8.1c1.5-2.2,3.3-4.3,4-7.1l.2-.5a2.52,2.52,0,0,0,1.3-1.4C377.1,127,376.3,126.89,376,126.79ZM303.9,166a.78.78,0,0,0,.4-.4A.78.78,0,0,1,303.9,166Zm7.3.7c-.2.2-.4.3-.6.5a2.62,2.62,0,0,0,.6-.5l1.5-.3Zm14-3.1a.76.76,0,0,0-.4-.2,9.33,9.33,0,0,0,.5-1l-.5,1C324.9,163.39,325,163.49,325.2,163.59Zm36.9-18.3-.3-.3c.1,0,.2.2.3.3ZM231.4,40.39a6.56,6.56,0,0,0,1.4.1,41.73,41.73,0,0,0,6.2-.7,55.22,55.22,0,0,1,6.9-.8c.8-1.3,1.6-2.5,2.4-3.8a18.84,18.84,0,0,1,3.9-5.3A92.92,92.92,0,0,1,270.3,17a2.76,2.76,0,0,1,2.9-.1,2.41,2.41,0,0,0,3-.2,6.13,6.13,0,0,1,3.4-1.7,1.17,1.17,0,0,0,1-.9c1.5-.9,3.3-.8,4.8-1.8a2.93,2.93,0,0,1,2.2-.4c1.8.5,3.4-.1,5-.6.3-.1.7-.3,1-.1,1.3.6,2.4,0,3.5-.6,2.6.4,3.5,2.9,5.4,4.2,1.5,1,2.4,2.1,2,4a6.15,6.15,0,0,0,1.1,4.7c1.4,2,3.5,2.9,5.5,4l.5.4h0a2.53,2.53,0,0,0,1,1.3c.9,2.4,1.7,2.9,4.3,2.3a8.34,8.34,0,0,1,5.4.3c2,.8,4.1,1.3,6.3.1a16.31,16.31,0,0,0,7.4-6.8,1.54,1.54,0,0,1,1.1-.8c2.9-.5,6.6,2.7,6.6,5.6a.83.83,0,0,1-.3.6c-.9.7-.2.8.3,1,1.8.7,2.1,1.5,1,3.2a9.81,9.81,0,0,0-1.6,4.4c2.1-1.9,2.5-4.6,4.8-5.8,1.2-.5,1,1.1,1.8,1.2,1.2.2,1.2,2,2.6,2.4.3.1-.2.9-.6,1.3-.5.6-1.2,1-1.5,1.9.7.1,1.1-.4,1.5-.7,1.2-.8,2.1-1.1,2.1.8,0,.9.4.8,1.2.5s1.7-.3,1.3,1.1c-.2.8-.2,1.4,1,1.5,1.8.2,2,1.3.9,2.7a5.25,5.25,0,0,0-1.4,1.9c.9-.4,1.5-.6,2.1-.9,1-.4,1.9-1.2,2.9-.3-.5.9-.7,1.7.6,2.2a2.39,2.39,0,0,1,.9.8c-1.2,1.8,0,2.2,1.4,2.4.1,0,.2.3.3.4a.91.91,0,0,0,1.1.6h0c2.5-.6,4.6,1,6.9,1.3.5,0,.8.5,1,.9-.1.5-.5.9-.3,1.4-.3.8-.6,1.7-.9,2.5-1.2.5-1.4,1.6-1.6,2.6l-.1.2h.6c.9,0,1.9-.1,2.9-.1a18.07,18.07,0,0,1,9.1,2.2c-.2-.9-.5-1.8-.8-2.8-1.2-3.6-2.2-7.3-4.2-10.7l-.3.2.3-.2c0-.1-.1-.1-.2-.2l-.8-.3h0l.8.3a3.1,3.1,0,0,0-1-2.4l-.3-1.2a34.44,34.44,0,0,0-4.9-8.5c-1.5-1.8-2.2-4-4-5.6a1.1,1.1,0,0,0-.8-.8h0c-.2-1.6-1.9-1.9-2.5-2.9-2.1-3.4-5.5-5.6-8.3-8.2a66.55,66.55,0,0,0-13.4-9.5l-2.2-1.1c-.1-.4-.2-.5-.6-.4l-.9-.5h0a.76.76,0,0,0-.9-.5,1.37,1.37,0,0,0-1.3-.6A12.85,12.85,0,0,0,332.5,6l-3.8-1.2a1.2,1.2,0,0,0-1.3-.6,31.61,31.61,0,0,1-5.2-1.7c-4.1-1.4-8.4-1.7-12.7-2.3a54.44,54.44,0,0,0-15.6.9,31.86,31.86,0,0,0-9.2,1.3c-2.2.6-4.5.7-6.5,2.1h0l-1.7.6c-2.2.6-4.4,1.2-6.6,2a49.83,49.83,0,0,0-10.4,5.7,116.12,116.12,0,0,0-11.1,7.7,74.09,74.09,0,0,0-17,19.9Zm142.1,18.7a1.84,1.84,0,0,1,.7.5,1.31,1.31,0,0,0-.7-.5c.3-.6.6-1.3.9-1.9A8.27,8.27,0,0,1,373.5,59.09Zm0-13.9h0l1,.5Zm.1-2.1a.87.87,0,0,1-.1.5,1.21,1.21,0,0,1,.5.5,1.21,1.21,0,0,0-.5-.5A.87.87,0,0,0,373.6,43.09Zm-21.2-24,1,.5c1.3,1.3,2.5,2.5,3.9,3.7-1.4-1.2-2.6-2.4-3.9-3.7h0l-1-.5-.6.5ZM340.1,11a5.57,5.57,0,0,1-.9-.7h0A1.54,1.54,0,0,0,340.1,11Zm-1-.6c-.1.2-.2.3-.4.3C338.9,10.69,339,10.59,339.1,10.39Zm-1.2.1V11a.45.45,0,0,1,0-.5l-.3-.2Zm-5.8-2.8.2.1-.2-.1a3.09,3.09,0,0,1-1,.4A4,4,0,0,0,332.1,7.69Zm-18.8-5.5.4.2-.4-.2a.35.35,0,0,1-.1.2A.35.35,0,0,0,313.3,2.19Zm-24.9,1.5-.3.6.3-.6Zm-8.4,9.8a6.86,6.86,0,0,1,.8-.9c-.3.3-.5.6-.8.9l-.6-.3Zm2.3,4a1.3,1.3,0,0,1-.9-1.4V16c.4-.6.9-1,1.6-.7a1.09,1.09,0,0,1,.72,1.35l0,.05c0,.1,0,.1-.1.2a1,1,0,0,1-1.21.73l-.09,0c.1-.1,0-.1,0-.1Z" transform="translate(0 0.01)" style="fill:#ff9318"/><path d="M29.43,164.19h-1.5a.68.68,0,0,1-.44-.14,1,1,0,0,1-.27-.37l-3.17-7.81H10.84l-3.15,7.81a.78.78,0,0,1-.27.36.68.68,0,0,1-.45.15H5.49l11-26.88h1.94Zm-18-9.77H23.48L18,140.84c-.09-.22-.18-.46-.27-.73s-.18-.56-.26-.87q-.13.47-.27.87t-.27.75Z" transform="translate(0 0.01)" style="fill:#fff"/><path d="M45.2,157.5c.07-.2.15-.4.23-.6s.18-.38.28-.56l10.56-18.67a.7.7,0,0,1,.31-.31,1.17,1.17,0,0,1,.41-.05h1.35v26.88H56.63V141.28a9.79,9.79,0,0,1,.06-1.05L46.11,159a.84.84,0,0,1-.76.5H45a.87.87,0,0,1-.76-.5L33.42,140.21c0,.37,0,.72,0,1.07v22.91H31.78V137.31h1.33a1.3,1.3,0,0,1,.43.05.65.65,0,0,1,.31.31L44.7,156.36A8.36,8.36,0,0,1,45.2,157.5Z" transform="translate(0 0.01)" style="fill:#fff"/><path d="M77.44,140.57a.55.55,0,0,1-.5.33,1.09,1.09,0,0,1-.63-.36,8.68,8.68,0,0,0-1.06-.77,8.15,8.15,0,0,0-1.67-.79,7.36,7.36,0,0,0-2.47-.36,7.51,7.51,0,0,0-2.58.41,5.46,5.46,0,0,0-1.87,1.14,4.91,4.91,0,0,0-1.14,1.68,5.15,5.15,0,0,0-.39,2,4,4,0,0,0,.58,2.26,5,5,0,0,0,1.53,1.52,9.87,9.87,0,0,0,2.16,1.06l2.48.84c.85.28,1.68.59,2.48.92a8.84,8.84,0,0,1,2.16,1.27,5.73,5.73,0,0,1,1.54,1.87,6,6,0,0,1,.58,2.76,8.9,8.9,0,0,1-.58,3.19,7.5,7.5,0,0,1-1.69,2.59,8,8,0,0,1-2.69,1.74,9.9,9.9,0,0,1-3.65.63,10.25,10.25,0,0,1-4.58-.94A10.61,10.61,0,0,1,62.09,161l.53-.84a.66.66,0,0,1,.53-.28.74.74,0,0,1,.44.23l.64.56c.26.22.56.46.92.72a7.23,7.23,0,0,0,1.24.72,8.39,8.39,0,0,0,1.61.56,8.71,8.71,0,0,0,2.08.23,7.74,7.74,0,0,0,2.85-.49,6.15,6.15,0,0,0,2.12-1.32,5.38,5.38,0,0,0,1.32-2,6.52,6.52,0,0,0,.46-2.46,4.33,4.33,0,0,0-.58-2.35,5.11,5.11,0,0,0-1.53-1.54,10.28,10.28,0,0,0-2.16-1c-.81-.28-1.63-.55-2.48-.82s-1.68-.56-2.49-.89a8.59,8.59,0,0,1-2.16-1.27,5.81,5.81,0,0,1-1.53-1.92,6.27,6.27,0,0,1-.58-2.87,6.89,6.89,0,0,1,.51-2.61,6.64,6.64,0,0,1,1.51-2.21,7.43,7.43,0,0,1,2.44-1.54A8.86,8.86,0,0,1,71.1,137a9.92,9.92,0,0,1,3.76.67,8.93,8.93,0,0,1,3,2Z" transform="translate(0 0.01)" style="fill:#fff"/><path d="M99.93,137.31V139H90.49v25.23H88.55V139h-9.5v-1.65Z" transform="translate(0 0.01)" style="fill:#fff"/><path d="M118.8,137.31v1.61H104.65v10.87h11.78v1.58H104.65v11.21H118.8v1.61H102.69V137.31Z" transform="translate(0 0.01)" style="fill:#fff"/><path d="M125.75,152v12.16h-1.93V137.31h6.86c3.1,0,5.42.59,6.95,1.79a6.3,6.3,0,0,1,2.3,5.27,7.34,7.34,0,0,1-.53,2.82,6.83,6.83,0,0,1-1.53,2.23,8.39,8.39,0,0,1-2.41,1.58,10.46,10.46,0,0,1-3.17.8,3.26,3.26,0,0,1,.82.76l9.25,11.63h-1.69a1.17,1.17,0,0,1-.52-.11,1.49,1.49,0,0,1-.43-.38l-8.61-10.91a1.88,1.88,0,0,0-.69-.59,3,3,0,0,0-1.15-.17Zm0-1.44h4.68a11.21,11.21,0,0,0,3.2-.43,6.84,6.84,0,0,0,2.39-1.23,5.28,5.28,0,0,0,1.5-1.92,6,6,0,0,0,.51-2.52,5,5,0,0,0-1.88-4.26,9.18,9.18,0,0,0-5.47-1.39h-4.93Z" transform="translate(0 0.01)" style="fill:#fff"/><path d="M168,150.74a15.89,15.89,0,0,1-.93,5.6,12,12,0,0,1-2.62,4.24,11.34,11.34,0,0,1-4.05,2.68,14.1,14.1,0,0,1-5.22.93h-9.81V137.31h9.81a14.1,14.1,0,0,1,5.22.93,11.34,11.34,0,0,1,4.05,2.68,12,12,0,0,1,2.62,4.23A15.87,15.87,0,0,1,168,150.74Zm-2,0a15,15,0,0,0-.78-5A10.54,10.54,0,0,0,163,142a9.49,9.49,0,0,0-3.41-2.32,11.88,11.88,0,0,0-4.43-.8h-7.85v23.73h7.85a11.88,11.88,0,0,0,4.43-.79A9.61,9.61,0,0,0,163,159.5a10.67,10.67,0,0,0,2.19-3.73A15,15,0,0,0,165.94,150.74Z" transform="translate(0 0.01)" style="fill:#fff"/><path d="M192,164.19h-1.5a.7.7,0,0,1-.44-.14,1,1,0,0,1-.26-.37l-3.18-7.81h-13.2l-3.16,7.81a.83.83,0,0,1-.26.36.73.73,0,0,1-.46.15H168l11-26.88H181Zm-18-9.77h12l-5.49-13.58a7.63,7.63,0,0,1-.26-.73q-.14-.41-.27-.87-.13.47-.27.87c-.09.27-.17.52-.26.75Z" transform="translate(0 0.01)" style="fill:#fff"/><path d="M207.74,157.5q.1-.3.24-.6a5.77,5.77,0,0,1,.27-.56l10.57-18.67a.69.69,0,0,1,.3-.31,1.2,1.2,0,0,1,.42-.05h1.35v26.88h-1.71V141.28c0-.33,0-.68,0-1.05L208.65,159a.84.84,0,0,1-.76.5h-.3a.86.86,0,0,1-.76-.5L196,140.21a9.87,9.87,0,0,1,.06,1.07v22.91h-1.7V137.31h1.33a1.3,1.3,0,0,1,.43.05.71.71,0,0,1,.32.31l10.84,18.69A8.36,8.36,0,0,1,207.74,157.5Z" transform="translate(0 0.01)" style="fill:#fff"/></svg>