<?xml version="1.0" encoding="UTF-8" standalone="no"?>
<svg
   xmlns:dc="http://purl.org/dc/elements/1.1/"
   xmlns:cc="http://creativecommons.org/ns#"
   xmlns:rdf="http://www.w3.org/1999/02/22-rdf-syntax-ns#"
   xmlns:svg="http://www.w3.org/2000/svg"
   xmlns="http://www.w3.org/2000/svg"
   viewBox="0 0 720 720"
   height="720"
   width="720"
   xml:space="preserve"
   version="1.1"
   id="svg2"><metadata
     id="metadata8"><rdf:RDF><cc:Work
         rdf:about=""><dc:format>image/svg+xml</dc:format><dc:type
           rdf:resource="http://purl.org/dc/dcmitype/StillImage" /><dc:title></dc:title></cc:Work></rdf:RDF></metadata><defs
     id="defs6"><clipPath
       id="clipPath18"
       clipPathUnits="userSpaceOnUse"><path
         id="path20"
         d="M 0,576 576,576 576,0 0,0 0,576 Z" /></clipPath></defs><g
     transform="matrix(1.25,0,0,-1.25,0,720)"
     id="g10"><g
       id="g14"><g
         clip-path="url(#clipPath18)"
         id="g16"><g
           transform="translate(164.9592,330.3044)"
           id="g22"><path
             id="path24"
             style="fill:#fefefe;fill-opacity:1;fill-rule:nonzero;stroke:none"
             d="m 0,0 c 0.189,0.437 -1.408,1.447 -2.457,2.339 -0.548,0.117 -1.794,2.77 -2.341,2.887 -4.029,5.254 -7.034,5.039 -10.665,5.912 -0.639,0.137 -5.886,0.592 -6.434,0.71 -5.566,1.192 -19.744,4.515 -17.821,3.244 -1.095,0.234 -5.111,1.094 -6.297,1.349 l -0.235,-1.096 c 0.58,-0.41 3.11,-2.861 5.261,-3.513 0.724,-0.632 2.862,-2.235 1.305,-5.05 0.456,-1.435 0.149,-5.091 0.267,-7.217 -1.231,-5.75 -3.545,-10.312 -5.096,-17.998 0.418,-1.617 -0.468,-4.863 -1.035,-7.509 -0.391,-1.825 0.209,-3.481 -0.709,-6.434 -1.545,-1.864 -1.004,-2.458 -1.245,-2.692 0.384,-1.324 0.469,-1.819 0.15,-2.418 -2.138,-2.406 -2.809,-5.985 -5.618,-6.624 -1.734,0.372 -4.994,1.643 -4.915,-0.665 -1.466,-2.836 12.138,-3.936 14.413,-4.9 0.638,-0.137 2.399,0.059 3.037,-0.078 3.833,-0.821 6.805,-1.649 6.03,0.521 0.117,0.548 -0.861,1.33 -0.861,1.33 l -4.016,0.861 c -2.02,0.814 -0.743,4.549 0.71,11.778 0.255,1.187 2.757,10.195 2.991,11.291 0.078,0.364 0.391,1.825 0.625,2.92 0.118,0.547 -0.078,2.307 0.059,2.945 0.117,0.548 0.84,3.925 0.977,4.564 0.117,0.548 -0.607,2.516 -0.49,3.064 0.176,0.821 0.372,3.07 2.308,5.423 0.332,1.551 -0.157,3.279 -0.119,4.799 1.701,1.257 1.356,9.444 4.491,9.823 1.186,-0.255 3.676,1.121 3.61,0.371 0.496,0.085 4.264,-1.485 4.994,-1.641 0.431,-0.666 4.276,-1.871 6.121,-4.843 2.471,-4.061 3.469,-6.088 3.098,-7.822 l -2.444,-11.408 c -2.646,-3.441 -7.169,-6.291 -12.371,-5.177 -1.825,0.391 -5.599,1.487 -5.319,0.567 -0.508,-2.373 -0.971,-2.751 1.128,-3.2 4.511,-3.448 8.643,-2.424 10.078,-3.304 0.547,-0.118 3.181,1.036 3.729,0.92 5.637,0.033 5.644,0.508 7.938,3.644 0.137,0.639 3.318,1.675 3.455,2.315 2.958,2.229 0.886,4.582 4.099,7.998 C 1.226,-8.089 -1.003,-3.794 0,0" /></g><g
           transform="translate(205.0976,310.0633)"
           id="g26"><path
             id="path28"
             style="fill:#fefefe;fill-opacity:1;fill-rule:nonzero;stroke:none"
             d="m 0,0 c -1.278,0.274 -4.642,1.948 -7.868,-1.084 l 0.502,-0.775 c 2.373,-0.508 5.006,-3.363 5.593,-3.298 0.997,0.646 -0.462,-8.396 -1.263,-12.137 -0.919,-4.289 -0.833,-8.794 -1.335,-9.354 -0.509,-2.373 -3.415,-4.805 -2.705,-6.388 -0.332,-1.552 -3.05,-3.546 -2.848,-3.495 -5.873,-3.801 -6.897,0.332 -12.065,-1.52 -0.365,0.079 -0.183,0.04 -2.647,0.567 -2.555,0.547 -4.674,3.579 -5.731,5.332 0.821,3.832 0.521,8.668 0.99,10.859 0.606,2.829 1.251,7.177 2.476,8.442 0.176,0.821 3.044,9.752 2.887,10.358 0.801,3.742 0.045,4.668 -5.007,8.709 -5.567,1.192 -8.559,1.927 -8.004,-1.723 l 0.482,-0.867 c 0.73,-0.155 2.966,-2.639 3.605,-2.776 0.659,-1.382 -0.137,-8.656 -0.559,-8.852 -1.044,0.032 -1.89,-5.704 -2.477,-8.441 -0.43,-2.008 -1.563,-7.301 -1.563,-7.301 -0.606,-2.829 0.137,-6.043 -0.175,-7.503 -0.137,-0.639 0.711,-2.92 0.711,-2.92 3.527,-8.487 8.416,-7.052 9.315,-8.199 3.376,-0.724 6.114,0.026 9.491,-0.697 0.638,-0.137 3.213,2.08 3.213,2.08 0.639,-0.137 2.94,0.802 3.579,0.665 -0.274,0.058 3.402,-0.157 2.992,-2.073 0.919,-2.391 1.232,-3.605 2.718,-3.35 1.278,-0.273 4.537,1.128 7.001,0.601 3.938,0.111 5.691,-0.169 5.221,1.649 -0.221,-0.143 -1.487,2.418 -2.855,2.711 -1.656,0.737 -3.076,1.232 -3.605,2.778 0.429,2.008 0.918,4.288 1.133,5.292 0.137,0.64 1.434,3.129 1.591,3.859 0.351,1.643 -0.535,3.742 0.384,5.359 0.8,3.741 2.697,5.912 3.499,9.653 -0.169,0.992 -0.353,5.04 0.468,8.872 C 5.137,-1.864 0.756,-0.925 0,0" /></g><g
           transform="translate(258.2477,272.1459)"
           id="g30"><path
             id="path32"
             style="fill:#fefefe;fill-opacity:1;fill-rule:nonzero;stroke:none"
             d="m 0,0 c -2.463,-11.499 -10.207,-11.558 -18.576,-13.202 -0.639,0.137 -6.434,2.046 -8.788,3.982 -2.359,2.796 -1.05,7.574 0.103,12.958 0.157,0.73 -0.026,3.443 0.111,4.081 l 0.137,0.638 c 0.43,2.008 3.134,11.069 3.544,12.985 0.352,1.644 2.887,3.677 2.757,3.514 3.233,2.171 9.686,-1.12 11.446,-0.923 1.024,-1.461 5.718,-2.276 6.833,-6.427 -0.137,-0.64 2.008,-3.103 1.871,-3.742 C -0.145,9.575 2.248,10.495 0,0 M 7.214,17.64 6.849,19.053 C 4.75,22.175 4,24.913 0.545,25.271 c -2.034,1.2 -3.663,2.503 -6.187,2.757 -2.738,0.586 -7.411,0.156 -10.149,0.742 -0.639,0.137 -4.198,-0.438 -4.837,-0.301 -0.912,0.195 -2.581,-0.019 -1.942,3.853 0.958,0.463 2.495,8.533 3.59,13.644 0.762,3.558 3.31,9.217 2.821,9.607 1.095,5.112 -0.873,5.724 -6.075,6.837 -2.647,0.568 -7.288,-1.492 -8.663,-1.675 l -0.274,-1.278 c 8.058,-10.507 3.88,-9.516 4.297,-12.47 -0.411,-1.916 0.079,-3.643 -0.514,-5.52 -1.083,-0.15 -2.457,-8.351 -3.415,-12.822 -0.175,-0.822 -2.02,-5.867 -2.157,-6.506 -0.84,-3.925 -0.866,-8.5 -2.221,-13.936 -0.137,-0.639 -1.434,-3.13 -1.571,-3.769 -0.41,-1.916 0.229,-3.389 -0.657,-6.635 l -1.316,-2.582 c -0.274,-1.278 0.436,-1.524 0.026,-3.441 -0.254,-1.187 0.913,-2.868 1.369,-2.967 0.639,-0.136 3.833,1.853 4.472,1.716 l 0.639,-0.137 c 1.297,-1.519 2.574,-3.129 4.015,-3.532 0.639,-0.137 1.643,-1.689 2.373,-1.846 11.173,-2.201 23.753,-4.513 29.58,3.974 l 0.547,2.555 c 0.137,0.639 2.712,2.856 2.849,3.494 0.775,0.502 1.981,3.012 1.981,3.012 0.43,2.008 4.164,16.765 -1.912,19.595" /></g><g
           transform="translate(329.9685,292.8631)"
           id="g34"><path
             id="path36"
             style="fill:#fefefe;fill-opacity:1;fill-rule:nonzero;stroke:none"
             d="m 0,0 c 0.75,1.271 1.095,2.438 1.369,3.716 0.195,0.913 -3.123,4.582 -4.674,4.914 -3.149,1.342 -4.883,1.714 -5.463,3.461 -0.274,0.059 -0.365,0.078 -2.191,0.468 -4.106,0.881 -9.477,0.313 -13.193,1.682 -1.238,-0.881 -3.728,-0.92 -5.827,-0.471 -1.474,-0.639 -6.949,-2.139 -7.281,-2.353 -1.329,-0.861 -7.867,-5.092 -9.197,-5.953 -1.916,-2.262 -5.123,-5.202 -5.572,-7.301 -0.117,-0.548 -2.138,-2.406 -2.255,-2.954 -0.203,-0.052 -1.917,-6.27 -2.053,-6.908 -0.118,-0.548 -0.156,-3.404 -0.274,-3.952 -0.117,-0.546 -0.684,-3.194 -0.8,-3.741 -0.353,-1.643 1.069,-3.474 0.495,-5.26 -0.468,-2.19 1.271,-3.422 0.724,-4.64 -0.371,-1.734 7.452,-12.001 7.791,-11.31 0.697,-1.199 1.467,-2.51 2.268,-2.776 0.548,-0.118 3.958,-2.471 4.505,-2.587 1.369,-0.294 5.697,-2.367 8.983,-3.07 l 0.978,-0.782 c 1.003,-0.215 3.285,-0.703 6.479,-1.388 9.4,-2.013 11.251,-0.501 13.07,-0.03 0.925,0.755 2.229,3.722 2.58,4.028 0.854,2.203 1.904,3.982 2.158,5.169 0.352,1.643 -0.256,2.823 -0.535,2.405 -2.921,0.626 -4.987,-3.227 -5.964,-3.781 -0.665,-0.43 -3.324,-2.151 -3.324,-2.151 -0.548,0.116 -3.546,-0.96 -4.094,-0.842 -1.779,-0.287 -2.634,-1.153 -5.28,-0.587 -3.559,0.763 -2.803,-0.163 -7.144,0.957 -2.327,1.167 -6.434,2.046 -8.513,5.26 -2.152,3.325 -3.155,2.203 -4.8,14.582 0.352,1.642 -1.363,3.441 -0.039,5.161 -0.229,2.054 0.058,2.947 1.543,9.883 0.548,2.555 1.975,3.872 2.483,6.245 1.545,1.864 2.34,3.793 3.578,6.01 0.117,0.547 2.659,1.722 2.777,2.269 0.665,0.43 3.565,3.722 4.23,4.152 -0.085,0.495 5.925,2.264 5.632,2.23 5.475,0.163 3.676,1.122 10.116,-0.448 1.095,-0.234 4.172,-1.466 4.72,-1.584 2.679,-2.196 8.005,-6.296 7.595,-9.549 2.581,-3.989 2.562,-1.408 2.934,-2.346 0.514,0.176 0.944,0.848 1.446,1.408 C -0.188,-1.772 -0.058,-0.273 0,0" /></g><g
           transform="translate(370.2901,259.2199)"
           id="g38"><path
             id="path40"
             style="fill:#fefefe;fill-opacity:1;fill-rule:nonzero;stroke:none"
             d="m 0,0 c -0.958,-4.471 -1.524,-12.463 -2.195,-13.369 -0.352,-0.307 -4.523,-8.194 -6.257,-7.823 -3.637,-0.938 -10.058,-4.623 -10.702,-3.625 -3.924,0.841 -3.736,-0.059 -10.653,5.526 l -0.73,2.829 c -0.43,2.002 -3.8,0.528 -2.256,7.737 0.274,1.278 0.436,5.157 0.436,5.157 1.265,1.447 1.948,5.977 2.652,9.262 1.708,0.399 2.555,4.799 4.953,7.53 0.998,0.645 4.322,2.797 8.057,4.192 2.464,-0.527 4.98,-1.258 7.072,-0.847 C -6.866,16.074 -1.963,6.434 -0.978,4.792 -0.476,4.016 0.137,0.639 0,0 m 7.66,-10.135 c 0.509,2.373 -0.033,8.312 0.052,9.152 -0.502,0.776 -0.979,4.791 -1.481,5.567 -1.538,2.62 -3.032,7.235 -4.948,7.645 -1.435,2.216 -3.839,3.018 -3.833,3.494 -2.008,0.429 -5.169,0.82 -5.522,1.85 l -11.955,2.561 c -5.977,-0.724 -13.962,-6.363 -13.622,-8.345 -1.479,-1.115 -3.689,-2.073 -4.041,-3.716 -1.075,-5.02 -3.493,-6.506 -2.9,-7.301 -1.095,-5.11 0.647,-13.024 2.068,-14.856 5.235,-5.416 5.633,-8.46 7.915,-8.948 3.884,-2.359 7.835,-3.969 12.684,-5.39 4.68,2.244 5.607,1.663 9.582,1.957 3.103,2.008 4.074,2.087 7.509,4.309 6.981,4.519 5.586,5.581 7.945,9.466 0.059,0.274 0.078,0.364 0.547,2.555" /></g><g
           transform="translate(428.3823,217.1911)"
           id="g42"><path
             id="path44"
             style="fill:#fefefe;fill-opacity:1;fill-rule:nonzero;stroke:none"
             d="m 0,0 -0.502,0.775 c -0.638,0.137 -3.924,3.513 -4.563,3.65 -0.959,0.873 -0.887,3.435 -1.096,4.243 0.391,1.825 2.939,7.484 4.034,12.594 -0.274,1.395 -0.228,2.053 0.182,3.97 l 1.049,1.78 c -0.241,1.101 -0.32,4.745 0.227,7.3 0.633,0.724 -1.734,4.381 -1.304,6.388 -3.521,7.626 -9.673,6.081 -13.187,7.502 -1.688,-0.307 -3.077,-1.442 -6.296,-1.324 -2.562,0.071 -4.401,-1.827 -6.936,-1.188 -0.881,1.24 1.185,5.091 -0.822,5.522 l -1.233,0.931 c -0.762,0.45 -2.932,-1.663 -4.653,-3.011 -3.325,-2.152 -4.583,-3.124 -8.259,-4.245 -0.43,-2.008 0.477,-2.679 3.495,-5.52 -0.137,-0.64 -0.455,-5.248 -0.729,-6.525 -0.88,-4.107 -2.58,-12.047 -4.398,-20.534 -2.504,-0.991 -3.663,-1.506 -6.297,-1.324 l -0.136,-0.639 c -0.509,-2.373 0.521,-2.021 3.422,-2.737 0.638,-0.137 2.692,0.091 3.33,-0.046 1.917,-0.41 11.591,-2.482 13.507,-2.892 0.757,0.411 0.978,0.554 1.05,1.779 -0.444,1.049 -2.967,2.64 -5.34,3.148 -1.03,0.984 -1.33,3.148 -0.958,4.882 l 4.398,20.534 c 0.879,1.434 1.453,3.22 3.011,4.7 6.205,4.016 12.795,4.036 14.027,3.104 1.304,-1.042 2.418,-2.522 4.563,-3.649 2.738,-0.587 0.646,-6.343 -0.018,-9.445 -0.137,-0.64 -0.046,-3.331 -0.183,-3.971 -0.136,-0.638 0.594,-3.467 0.457,-4.106 -0.117,-0.548 -0.645,-1.675 -1.185,-2.419 l -2.62,-12.228 c -0.776,-0.502 -0.685,-1.858 -2.327,-1.506 -0.756,-0.411 -3.22,0.116 -5.521,-0.822 -0.449,-2.099 2.067,-1.493 3.559,-2.099 0.639,-0.136 3.058,-1.323 3.696,-1.46 C -12.274,0.624 -6.89,-0.53 -1.049,-1.78 -0.293,-1.369 -0.071,-1.226 0,0" /></g><g
           transform="translate(473.1326,283.1043)"
           id="g46"><path
             id="path48"
             style="fill:#fefefe;fill-opacity:1;fill-rule:nonzero;stroke:none"
             d="m 0,0 c -2.555,0.547 -4.576,-1.311 -7.685,-1.122 -3.415,-2.132 -7.548,-3.156 -8.095,-5.712 -1.017,-2.072 -1.642,-4.992 -3.65,-4.563 -0.665,-3.102 -3.838,-9.008 -3.852,-8.624 -1.329,-6.206 -0.449,-4.772 -8.049,-9.061 -0.43,-2.008 0.542,-1.93 4.088,-6.316 -0.43,-2.008 -0.339,-4.701 0.822,-5.522 -0.098,-0.455 -0.177,-0.821 -0.274,-1.277 -0.156,-0.73 -1.844,-2.373 -1.981,-3.012 -1.544,-7.21 -2.542,-10.527 -2.117,-13.004 -0.371,-1.735 -3.044,-3.07 -2.392,-4.928 -3.532,-5.352 -5.345,-1.337 -8.441,-4.205 l 0.502,-0.776 11.681,-2.502 c 1.78,0.287 2.327,0.17 5.978,-0.612 2.463,-0.527 2.6,-1.225 8.35,-2.456 0.685,0.521 0.619,-0.229 1.186,2.417 0.926,0.758 -3.787,1.48 -5.704,1.89 -0.306,0.353 -5.691,4.178 -5.156,4.446 l 4.28,19.985 c 0.313,1.461 -0.326,2.933 0.475,5.339 1.806,3.527 0.932,6.577 8.507,4.955 0.638,-0.137 5.338,-0.476 6.616,-0.749 0.847,0.392 1.981,1.676 2.053,2.901 0.137,0.638 -0.958,2.21 -0.958,2.21 l -9.035,1.935 c -0.365,0.078 -2.869,1.759 -2.855,2.712 0.644,3.011 0.605,8.173 1.276,9.08 0.508,2.372 1.831,6.765 7.065,10.703 1.29,0.678 4.041,-0.293 4.06,-0.201 2.464,-0.527 3.696,-2.796 6.07,-3.305 0.639,-0.137 4.335,-1.596 5.065,-1.752 1.734,-0.371 4.856,1.728 4.653,3.011 C 12.933,-6.015 13.598,-2.913 0,0" /></g><g
           transform="translate(513.4327,317.0358)"
           id="g50"><path
             id="path52"
             style="fill:#fefefe;fill-opacity:1;fill-rule:nonzero;stroke:none"
             d="M 0,0 0,0 C -0.283,0.015 -0.565,0.045 -0.847,0.084 -0.565,0.045 -0.283,0.015 0,0 0.347,0.126 0.66,0.27 0.94,0.43 0.66,0.27 0.347,0.126 0,0 m -0.551,-6.284 c 0.161,0.153 0.322,0.313 0.483,0.469 l 0,0 C -0.229,-5.972 -0.39,-6.131 -0.551,-6.284 m -6.382,0.169 c 0.058,0.77 0.094,1.545 0.103,2.326 l 0,0 C -6.839,-4.57 -6.875,-5.345 -6.933,-6.115 m -4.118,-24.773 0,0 c 0.154,-0.026 0.307,-0.053 0.455,-0.082 -0.148,0.029 -0.301,0.055 -0.455,0.082 m -3.195,17.287 c -0.491,-13.518 -0.808,-26.964 -6.568,-39.597 -1.228,-2.694 -1.375,-5.759 -0.313,-8.545 1.396,-3.664 1.308,-7.454 0.509,-10.983 -2.066,-9.12 -3.347,-18.388 -4.123,-27.62 -0.513,-6.102 -1.212,-12.155 -3.465,-17.604 -7.703,-18.635 -17.594,-36.13 -29.649,-52.338 -1.641,-2.207 -3.739,-3.824 -6.971,-3.536 -3.067,0.272 -6.185,-0.927 -7.21,-3.873 -1.247,-3.588 -3.482,-5.948 -6.383,-8.03 -1.064,-0.764 -1.84,-1.837 -1.564,-3.317 -2.579,-3.883 -7.129,-5.814 -9.623,-9.826 -1.127,-1.813 -3.104,-3.165 -5.102,-3.439 -5.004,-0.686 -8.101,-4.188 -11.605,-7.117 -0.741,-0.62 -1.283,-1.489 -2.345,-1.491 -3.895,-0.008 -5.778,-2.809 -7.747,-5.506 -6.849,-2.097 -11.97,3.189 -18.064,4.188 -4.76,0.781 -8.352,2.517 -9.594,7.528 -1.114,4.619 -3.955,7.904 -7.988,10.23 -5.62,3.241 -11.91,3.187 -18.101,3.598 -0.598,0.118 -1.195,0.237 -1.793,0.356 0,0 0,0 0,0 -1.185,0.901 -2.337,1.867 -3.928,1.948 -5.11,4.903 -7.543,5.078 -13.275,0.554 -3.994,-3.153 -8.093,-5.287 -13.474,-5.512 -5.909,-0.248 -11.464,-1.592 -15.671,-7.051 -5.863,-7.609 -9.898,-15.643 -10.342,-25.305 -0.064,-1.415 -0.666,-2.446 -1.808,-3.229 -6.559,-4.498 -19.277,-1.022 -22.688,6.164 -0.319,0.674 -0.307,1.112 0.042,1.725 1.546,2.713 -0.516,2.12 -1.92,2.02 -5.233,-0.375 -6.862,1.324 -6.147,6.66 0.528,3.943 0.328,7.775 -1.097,12.65 -3.008,-7.025 -0.978,-14.215 -5.081,-19.76 -2.371,-2.594 -3.603,1.513 -5.96,0.959 -3.27,-0.77 -5.349,3.625 -9.165,2.866 -0.836,-0.167 -0.479,2.499 -0.128,3.883 0.517,2.043 1.843,3.944 1.405,6.384 -1.87,-0.688 -2.234,-2.251 -2.953,-3.407 -1.985,-3.19 -3.792,-5.067 -6.225,-0.37 -1.131,2.183 -1.991,1.526 -3.447,-0.123 -1.66,-1.879 -3.834,-2.725 -4.531,1.201 -0.376,2.117 -1.057,3.638 -4.145,2.579 -4.51,-1.548 -6.519,0.865 -5.217,5.656 0.508,1.87 1.51,3.648 1.236,6.375 -1.703,-1.876 -2.99,-3.217 -4.189,-4.633 -1.828,-2.158 -3.148,-5.099 -6.845,-4.185 0.138,2.837 -0.274,5.076 -4.045,4.67 -0.995,-0.107 -3.021,0.801 -2.992,0.984 0.942,5.768 -2.341,5.357 -6.143,4.403 -0.296,-0.075 -0.794,0.491 -1.143,0.819 -1.137,1.067 -2.382,1.038 -3.504,0.146 -5.438,-4.323 -12.403,-2.779 -18.426,-4.848 -1.323,-0.454 -2.483,0.409 -3.607,1.042 -0.194,-0.017 -0.375,-0.025 -0.544,-0.024 0.169,-10e-4 0.35,0.007 0.544,0.024 -0.193,1.327 0.079,2.77 -0.974,3.881 -0.215,2.403 -0.43,4.806 -0.645,7.209 2.453,2.534 1.646,5.475 1.043,8.389 -0.465,4.031 1.926,7.555 2.037,11.483 0.758,2.144 1.39,4.287 0.326,6.785 -1.935,-0.962 -0.623,-5.182 -4.127,-3.387 -0.917,2.262 -1.022,4.222 0.26,6.665 2.211,4.215 0.836,5.87 -4.032,5.584 -1.047,-0.062 -1.882,-0.046 -2.557,0.847 -1.369,1.809 -3.092,1.468 -4.735,0.56 -0.789,-0.436 -1.271,-1.571 -2.386,-0.589 -1.249,1.099 0.498,1.603 0.463,2.41 -0.073,1.66 3.31,5.143 -1.542,4.433 -5.206,-0.761 -6.623,2.088 -7.349,5.971 -0.742,3.976 -2.879,6.475 -6.317,8.577 -6.857,4.191 -11.899,9.689 -14.434,17.887 -2.767,8.955 -7.926,17.109 -10.008,26.402 0.488,3.397 -2.932,6.386 0.201,10.371 4.484,5.702 2.685,9.299 -4.68,11.945 -5.812,8.756 -4.919,19.43 -8.24,28.948 -2.964,8.497 -2.914,17.696 -3.818,26.619 -0.938,9.27 0.448,18.344 3.572,27.179 2.949,8.342 5.446,16.845 8.944,24.991 1.107,0.581 1.851,1.467 2.234,2.657 -0.13,0.152 -0.241,0.295 -0.336,0.429 0.094,-0.134 0.205,-0.276 0.335,-0.428 7.228,1.647 14.568,0.654 21.805,0.411 3.096,-0.104 4.844,0.717 5.616,2.948 0.969,2.798 1.453,5.916 1.399,8.881 -0.099,5.337 0.947,6.505 6.48,5.402 1.567,-0.312 2.094,-0.513 2.485,1.433 0.783,3.897 2.083,7.691 3.172,11.527 0,-0.005 0,-0.011 0,-0.016 1.31,0.08 1.833,0.812 1.714,2.073 0.042,0.326 0.085,0.651 0.128,0.977 1.218,0.298 2.549,0.427 2.947,1.959 1.975,-0.028 3.776,0.451 5.501,1.487 5.65,3.392 7.84,14.389 3.865,21.531 -0.799,1.436 -0.848,3.019 -1.745,4.315 -0.029,0.453 -0.059,0.906 -0.09,1.358 -0.443,0.41 -0.886,0.82 -1.33,1.23 0.444,-0.41 0.887,-0.82 1.327,-1.227 0.089,0.336 0.181,0.67 0.27,1.005 1.078,2.189 -0.296,4.89 1.45,6.941 4.574,2.06 7.052,6.44 10.479,9.73 8.797,8.445 19.733,13.449 29.957,19.611 2.152,0.997 4.304,1.994 6.456,2.992 l 0,-10e-4 c 4.526,0.834 8.009,4.37 12.658,4.882 -0.222,0.31 -0.583,0.646 -0.902,0.973 0.319,-0.327 0.68,-0.663 0.902,-0.973 2.92,-0.37 5.781,-0.305 8.247,1.571 4.289,3.261 9.755,2.107 14.575,4.042 7.124,2.859 14.923,4.572 22.583,5.412 8.557,0.938 17.21,1.412 25.908,1.386 7.285,-0.021 14.669,0.344 22.002,0.688 3.809,0.178 7.67,-0.578 11.499,-0.988 13.919,-1.49 27.171,-6.27 40.869,-8.547 9.458,-1.572 17.972,-5.772 27.277,-7.49 5.275,-0.973 9.584,-4.464 14.418,-6.629 1.47,-0.658 2.811,-1.577 4.485,-1.648 l 0,0 c 5.05,-2.242 9.817,-4.965 14.334,-8.155 1.797,-1.268 3.784,-2.267 5.684,-3.39 0,-0.001 0,-0.001 0,-0.001 3.278,-3.402 8.508,-3.526 11.685,-7.331 6.3,-7.545 13.657,-14.061 19.739,-21.956 5.263,-6.833 9.73,-14.373 16.146,-20.455 8.94,-8.475 13.662,-19.604 17.334,-31.193 1.238,-3.909 3.551,-7.401 3.393,-11.841 -0.071,-1.999 0.83,-4.464 3.196,-5.574 l 10e-4,0 c 0.081,-0.295 0.178,-0.586 0.289,-0.873 1.515,-3.059 1.624,-6.417 2.058,-9.706 0.015,-1.013 -0.162,-2.075 0.733,-2.861 -0.011,-0.681 -0.023,-1.362 -0.034,-2.043 0.215,-0.103 0.411,-0.187 0.591,-0.257 -0.18,0.07 -0.377,0.154 -0.591,0.257 -1.177,-1.212 -0.364,-2.088 0.501,-2.954 0.069,-1.91 0.139,-3.819 0.21,-5.729 -1.113,-2.449 0.015,-4.611 0.872,-6.808 0.02,-0.969 0.041,-1.938 0.061,-2.908 -0.952,-5.875 -2.517,-11.727 -2.732,-17.629 m -63.778,-176.455 c -0.213,-1.007 -0.541,-1.99 -0.877,-2.971 0.336,0.981 0.664,1.964 0.877,2.971 0.645,-0.006 1.291,-0.011 1.937,-0.016 -0.646,0.005 -1.292,0.01 -1.937,0.016 m -9.157,-33.816 c -0.007,0.598 -0.014,1.193 -0.013,1.783 -10e-4,-0.59 0.006,-1.185 0.013,-1.783 0.261,0.09 0.512,0.189 0.754,0.296 -0.242,-0.107 -0.493,-0.206 -0.754,-0.296 m -54.668,-29.379 c -0.038,-0.172 -0.082,-0.333 -0.131,-0.483 0.049,0.15 0.093,0.311 0.131,0.483 1.886,0.014 3.749,0.164 5.575,0.449 -1.826,-0.285 -3.689,-0.435 -5.575,-0.449 m -4.914,-2.813 c -0.369,0.004 -0.737,0.007 -1.106,0.01 0.368,-0.003 0.737,-0.006 1.106,-0.009 0.034,0.491 0.12,0.954 0.368,1.33 -0.248,-0.376 -0.334,-0.84 -0.368,-1.331 m -49.43,-5.316 c -1.349,-0.854 -2.487,-1.844 -3.015,-2.768 -0.242,0.002 -0.483,0.002 -0.724,0.001 0.241,10e-4 0.482,10e-4 0.724,-0.001 0.528,0.924 1.666,1.914 3.015,2.768 0.45,0.284 0.924,0.554 1.406,0.8 -0.482,-0.246 -0.956,-0.516 -1.406,-0.8 m -20.448,-2.553 c -0.28,1.19 -0.83,1.784 -1.496,2.046 0.666,-0.262 1.216,-0.856 1.496,-2.046 0.319,-0.007 0.638,-0.013 0.956,-0.018 -0.318,0.005 -0.637,0.011 -0.956,0.018 m -2.95,-1.894 c -0.972,0.441 -1.977,0.583 -2.995,0.611 1.018,-0.028 2.023,-0.17 2.995,-0.611 0.048,0.737 0.278,1.189 0.621,1.466 -0.343,-0.277 -0.573,-0.73 -0.621,-1.466 m -4.837,0.576 c 0.41,0.018 0.82,0.035 1.229,0.039 -0.409,-0.004 -0.819,-0.021 -1.229,-0.039 m -32.47,39.636 c -0.398,0.905 -0.835,1.704 -1.316,2.402 0.481,-0.698 0.918,-1.497 1.316,-2.402 1.157,-0.613 2.326,-1.208 3.479,-1.825 -1.153,0.617 -2.322,1.212 -3.479,1.825 m -4.77,5.389 c 0.676,-0.301 1.299,-0.699 1.873,-1.196 -0.574,0.497 -1.197,0.895 -1.873,1.196 m -0.511,-39.25 c -0.962,0.016 -1.924,0.032 -2.885,0.049 -4.569,1.653 -9.128,3.317 -13.805,4.589 4.677,-1.272 9.236,-2.936 13.805,-4.589 0,0 0,0 0,0 0.961,-0.017 1.923,-0.033 2.885,-0.049 0.333,0.637 0.666,1.274 0.998,1.911 -0.332,-0.637 -0.665,-1.274 -0.998,-1.911 m -66.58,26.034 c -0.825,0.426 -1.649,0.855 -2.467,1.291 0.818,-0.436 1.642,-0.865 2.467,-1.291 0.269,-0.261 0.546,-0.499 0.832,-0.716 -0.286,0.217 -0.563,0.455 -0.832,0.716 m -13.463,9.857 c -1.372,0.164 -2.342,0.818 -3.137,1.682 0.795,-0.864 1.765,-1.518 3.138,-1.682 0.007,-0.499 0.073,-0.969 0.31,-1.358 -0.237,0.389 -0.303,0.859 -0.311,1.358 m -7.675,5.92 c -0.462,0.029 -0.867,0.112 -1.218,0.249 0.351,-0.137 0.756,-0.22 1.218,-0.248 0.962,-0.658 1.925,-1.315 2.887,-1.973 0.971,-0.01 1.942,-0.021 2.913,-0.031 l 0,0 c -0.971,0.01 -1.942,0.021 -2.913,0.031 -0.962,0.658 -1.925,1.315 -2.887,1.972 m -10.077,46.681 -0.001,-0.002 0.001,0.002 z m -0.915,3.889 c 0.003,0.32 0.01,0.64 0.021,0.96 -0.011,-0.32 -0.018,-0.64 -0.021,-0.96 -0.385,-0.347 -0.595,-0.653 -0.682,-0.93 0.087,0.277 0.297,0.583 0.682,0.93 m 0.034,2.919 c -0.344,0.44 -0.735,0.857 -1.098,1.287 0.363,-0.43 0.754,-0.847 1.098,-1.287 z m 0.685,-21.365 c -1.246,-0.025 -2.291,0.18 -2.97,0.824 -0.226,0.215 -0.411,0.478 -0.55,0.799 0.139,-0.321 0.324,-0.584 0.55,-0.799 0.679,-0.644 1.724,-0.849 2.97,-0.824 -0.02,-1.937 -0.041,-3.873 -0.061,-5.81 0.02,1.937 0.041,3.873 0.061,5.81 m -57.547,49.226 c -0.333,0.308 -0.649,0.628 -0.948,0.959 0.299,-0.331 0.615,-0.651 0.948,-0.959 z m -3.27,4.181 c 0.446,-0.76 0.93,-1.497 1.47,-2.198 -0.54,0.701 -1.024,1.438 -1.47,2.198 m 0.306,67.613 c -0.408,0.194 -0.79,0.432 -1.101,0.718 0.311,-0.286 0.693,-0.524 1.101,-0.718 z m -1.774,1.723 c 0.081,-0.257 0.215,-0.491 0.387,-0.703 -0.172,0.212 -0.306,0.446 -0.387,0.703 m -3.352,-61.264 c 0.14,0.18 0.238,0.363 0.312,0.549 -0.074,-0.185 -0.172,-0.369 -0.312,-0.549 m -6.005,165.534 c 0.129,-0.722 0.369,-1.426 0.797,-2.103 0.361,-0.21 0.722,-0.374 1.083,-0.498 -0.361,0.124 -0.722,0.288 -1.083,0.498 -0.428,0.677 -0.668,1.381 -0.797,2.103 m -3.691,-127.14 c -0.189,0.39 -0.379,0.78 -0.568,1.169 0.189,-0.389 0.379,-0.779 0.568,-1.169 0.998,-0.199 1.83,-0.56 2.515,-1.069 -0.685,0.509 -1.517,0.87 -2.515,1.069 m 75.392,212.383 c -0.011,-0.969 -0.021,-1.938 -0.031,-2.907 0.01,0.969 0.02,1.938 0.031,2.907 -0.428,0.05 -0.924,0.052 -1.365,0.106 0.441,-0.054 0.937,-0.056 1.365,-0.106 m 29.394,23.88 c 0.324,0.624 0.634,1.242 0.889,1.849 -0.255,-0.607 -0.565,-1.226 -0.889,-1.849 -1.089,-0.848 -2.177,-1.696 -3.265,-2.545 1.088,0.849 2.176,1.697 3.265,2.545 m 19.137,6.843 c -0.49,-0.405 -0.819,-0.928 -0.759,-1.728 -0.06,0.8 0.269,1.323 0.759,1.728 m 1.762,1.043 c -0.393,-0.222 -0.817,-0.425 -1.204,-0.655 0.387,0.23 0.811,0.433 1.204,0.655 M -15.165,39.979 c 0.123,-0.611 0.032,-1.211 -0.641,-1.779 0.673,0.568 0.764,1.168 0.641,1.779 m 4.153,-67.963 c 0.46,-0.05 0.912,-0.082 1.35,-0.091 -0.438,0.009 -0.89,0.04 -1.35,0.091 -0.013,-0.967 -0.026,-1.934 -0.039,-2.902 0.013,0.968 0.026,1.935 0.039,2.902 m -431.647,-9.112 c -0.644,1.871 -1.062,3.761 -1.33,5.663 0.268,-1.902 0.687,-3.792 1.33,-5.663 -0.004,-0.646 -0.008,-1.291 -0.011,-1.936 0.003,0.645 0.007,1.29 0.011,1.936 m 454.965,4.983 c 1.386,8.492 -0.611,16.8 -1.374,25.175 0.401,0.775 0.216,1.402 -0.479,1.9 0.141,3.036 -0.266,5.984 -1.426,8.81 0.635,1.416 0.358,2.577 -0.964,3.443 0.125,1.538 -0.147,2.991 -0.9,4.344 0.494,1.925 1.038,3.858 -0.937,5.348 -0.291,1.182 -0.583,2.363 -0.875,3.543 0.057,0.29 0.011,0.563 -0.136,0.82 -0.718,6.227 -2.61,12.145 -4.58,18.064 -1.904,5.723 -4.67,11.078 -6.829,16.669 -6.723,17.405 -16.058,33.399 -27.305,48.079 -13.998,18.273 -30.19,34.575 -48.998,48.077 -5.576,4.769 -11.689,8.749 -18.088,12.308 -4.846,2.749 -9.595,5.688 -14.557,8.207 -10.159,5.155 -20.648,9.453 -31.337,13.506 -10.316,3.912 -20.861,6.673 -31.455,8.492 -14.184,2.435 -28.483,4.717 -43.129,4.264 -14.175,-0.439 -28.275,-0.769 -42.199,-3.68 -1.011,1.044 -1.779,0.436 -2.515,-0.374 -0.762,-0.098 -1.521,-0.2 -2.28,-0.301 -1.208,0.877 -1.844,0.057 -2.456,-0.828 -0.792,-0.3 -1.583,-0.601 -2.374,-0.901 -0.824,0.375 -1.457,0.132 -1.94,-0.598 -0.653,-0.117 -1.306,-0.234 -1.959,-0.35 -2.153,0.366 -3.956,-0.287 -5.438,-1.87 -2.361,0.224 -4.445,-0.427 -6.249,-1.966 -2.104,0.264 -4.059,-0.124 -5.829,-1.328 -2.208,-0.139 -3.938,-1.469 -5.85,-2.344 -1.046,0.506 -1.778,0.145 -2.288,-0.83 -0.002,0.003 -0.093,-0.161 -0.093,-0.161 -2.894,-1.111 -5.894,-1.987 -8.441,-3.856 2.419,-2.51 3.183,-5.246 3.29,-8.071 -0.107,2.825 -0.871,5.561 -3.29,8.07 -1.285,-0.46 -2.571,-0.919 -3.857,-1.378 -1.172,0.18 -1.844,-0.482 -2.361,-1.403 -2.489,-0.731 -4.487,-2.291 -6.487,-3.845 -10.397,-2.861 -18.627,-9.287 -26.583,-16.161 -3.84,-2.3 -7.929,-4.178 -11.311,-7.229 -7.421,-6.694 -15.608,-12.429 -22.022,-20.379 -5.695,-7.059 -11.587,-13.988 -17.219,-21.114 -6.478,-8.198 -11.669,-17.276 -17.028,-26.186 -5.251,-8.73 -10.987,-17.395 -12.612,-27.833 -1.048,-0.628 -1.506,-1.64 -1.802,-2.758 0.462,-0.085 0.925,-0.171 1.388,-0.256 0.406,-0.04 0.794,-0.115 1.143,-0.232 -0.349,0.117 -0.737,0.192 -1.143,0.232 -0.463,0.085 -0.926,0.171 -1.386,0.256 -3.097,-5.963 -4.537,-12.51 -6.277,-18.898 -2.431,-8.924 -4.533,-17.97 -6.148,-27.074 -1.281,-7.22 -3.209,-14.489 -1.739,-21.967 0.697,-0.011 1.394,-0.022 2.09,-0.032 l 0,0 c -0.696,0.01 -1.393,0.021 -2.09,0.032 -0.018,-0.473 -0.035,-0.946 -0.052,-1.419 -2.275,-2.89 -1.945,-6.008 -0.803,-9.196 -0.045,-1.36 -0.077,-2.718 0.636,-3.957 -0.583,-0.981 -0.686,-1.968 -0.044,-2.967 0.007,-3.2 0.015,-6.399 0.022,-9.599 -1.031,-1.354 -0.425,-2.578 0.298,-3.794 -0.886,-3.731 0.136,-7.265 1.12,-10.803 -0.099,-2.819 -1.573,-5.816 1.07,-8.279 0.029,-0.789 0.059,-1.575 0.088,-2.362 -1.007,-1.446 -0.506,-2.534 0.815,-3.424 -0.117,-1.522 -0.175,-3.031 0.74,-4.375 -0.355,-0.812 -0.122,-1.409 0.658,-1.806 -0.263,-1.383 -0.376,-2.753 0.362,-4.046 -0.634,-1.201 0.166,-1.806 0.995,-2.397 0.261,-1.144 0.522,-2.285 0.782,-3.427 -0.415,-0.778 -0.216,-1.387 0.507,-1.854 1.746,-5.969 3.284,-12.01 5.297,-17.888 1.946,-5.685 3.841,-11.455 7.547,-16.354 l 0,0 c 0.081,-0.31 0.162,-0.62 0.242,-0.93 -0.145,-1.652 0.012,-3.209 1.175,-4.54 3.507,-4.016 5.901,-9.042 7.434,-13.735 3.107,-9.503 9.541,-16.74 14.944,-24.491 5.207,-7.468 9.937,-15.408 16.423,-22.08 7.261,-7.469 14.083,-15.336 22.774,-21.246 0.169,0.324 0.338,0.648 0.506,0.972 -0.168,-0.324 -0.337,-0.648 -0.506,-0.972 0.149,-0.175 0.336,-0.245 0.564,-0.209 0.785,0.054 1.567,0.106 2.35,0.158 l 0,0 c -0.782,-0.052 -1.565,-0.104 -2.35,-0.158 1.259,-2.082 2.595,-4.079 5.225,-4.608 0.712,-0.86 1.32,-1.838 2.151,-2.561 6.759,-5.888 13.734,-11.651 21.889,-15.353 5.731,-2.603 10.152,-7.32 16.229,-9.151 0.693,-0.916 1.619,-1.221 2.733,-1.036 -0.003,-0.003 0.024,0.036 0.024,0.036 10e-4,0 0.002,0 0.004,0 2.252,-3.668 6.778,-2.447 9.571,-4.258 9.19,-5.957 19.8,-7.433 29.855,-10.678 14.292,-4.614 28.952,-7.052 43.914,-7.861 0.005,0.87 0.01,1.74 0.014,2.61 l 0,0 c 0.648,-0.009 1.295,-0.018 1.942,-0.026 0.195,-0.083 0.391,-0.154 0.588,-0.215 -0.197,0.061 -0.393,0.132 -0.588,0.215 -0.647,0.008 -1.294,0.017 -1.942,0.026 -0.004,-0.87 -0.009,-1.74 -0.014,-2.61 2.273,-0.092 4.545,-0.186 6.817,-0.28 0.55,-0.786 1.188,-0.944 1.943,-0.274 0.934,-0.012 1.867,-0.022 2.801,-0.033 l 0,0 c 0.925,-0.731 1.917,-0.705 2.947,-0.266 1.31,-0.762 2.617,-0.72 3.92,0.02 4.829,-0.61 9.656,-1.11 14.45,0.257 3.566,0.506 7.132,1.012 10.698,1.518 1.324,-0.814 2.653,-0.83 3.986,-0.021 4.826,1.269 9.788,1.255 14.703,1.761 11.692,1.203 22.67,5.529 33.82,9.044 13.563,4.275 26.308,10.107 37.476,19.065 7.938,3.144 14.503,8.486 20.983,13.768 4.755,3.876 10.366,6.967 13.577,12.558 -0.001,0 -0.002,0.002 -0.003,0.003 1.167,1.125 2.339,2.249 3.51,3.373 4.86,3.889 9.481,8.032 13.917,12.408 7.752,7.647 13.465,16.802 19.162,25.916 6.448,10.313 13.172,20.577 18.35,31.536 10.657,22.554 16.933,46.47 19.176,71.378 1.897,1.269 1.815,2.557 0.04,3.862 1.795,4.557 1.395,9.39 1.78,14.123 1.518,5.222 1.584,10.395 -0.518,15.496" /></g><g
           transform="translate(425.3709,134.1644)"
           id="g54"><path
             id="path56"
             style="fill:#fefefe;fill-opacity:1;fill-rule:nonzero;stroke:none"
             d="m 0,0 c -1.838,-0.14 -2.944,-1.417 -2.832,-3.239 0.123,-2.011 1.418,-3.308 3.479,-3.139 2.041,0.167 2.895,1.742 3.208,3.68 C 3.427,-0.61 1.903,0.145 0,0" /></g><g
           transform="translate(277.992,326.128)"
           id="g58" /><g
           transform="translate(291.9691,335.0692)"
           id="g62" /><g
           transform="translate(318.7215,317.1296)"
           id="g66" /><g
           transform="translate(336.3279,318.0748)"
           id="g70" /><g
           transform="translate(191.4844,220.3839)"
           id="g74" /><g
           transform="translate(216.6493,226.9335)"
           id="g78" /><g
           transform="translate(260.6805,212.8297)"
           id="g82" /><g
           transform="translate(311.2067,182.6386)"
           id="g86" /><g
           transform="translate(344.3967,175.3062)"
           id="g90" /><g
           transform="translate(372.6677,192.4648)"
           id="g94" /></g></g></g></svg>