<?xml version="1.0" encoding="utf-8"?>
<!-- Generator: Adobe Illustrator 23.0.4, SVG Export Plug-In . SVG Version: 6.00 Build 0)  -->
<svg version="1.1" id="Layer_1" xmlns="http://www.w3.org/2000/svg" xmlns:xlink="http://www.w3.org/1999/xlink" x="0px" y="0px"
	 viewBox="0 0 451.3 173.5" style="enable-background:new 0 0 451.3 173.5;" xml:space="preserve">
<defs>
    <filter id="shadow">
        <feDropShadow dx="2" dy="2" stdDeviation="12"/>
    </filter>
</defs>
<style type="text/css">
	.st0{fill:#FFFFFC;}
	.st1{fill:#FF9318;}
	.st2{fill:#FFFFFF;}
</style>

<title>PubConf Logo</title>
<path class="st0" d="M62.1,68c-2.9,4.8,0.1,7.1-2.8,10.5c0,0.8-3.5,2.8-3.5,3.6c-1.9,4.3-1.8,4.8-8.4,6.3c-0.7,0-3.5,2-4.2,2
	c-1.9-0.7-6.5,1.6-12.7-1.3c-2.6,0-2.2-0.6-2.2-3.5c-0.6-1,4.2-0.7,6.4-0.7c6.4,0,11-4.5,13.3-9.3V61.6c0-2.2-1.7-4.3-5.7-8.4
	c-2.9-3-7.8-3.5-8.5-4.2c-0.9,0-5.8-0.9-6.3-0.7c-0.1-0.9-2.7,1.4-4.2,1.4c-3.6,1.2-1.1,10.8-2.8,12.8c0.3,1.8,1.4,3.7,1.4,5.6
	c-1.1,2.2-1.5,4.6-1.3,7c0,0.7,1.4,2.8,1.4,3.5s0,5,0,5.6s0.7,2.8,0.7,3.5c0,1.3,0,3.2,0,3.6c0,1.3-0.6,12.6-0.6,14.1
	c0.1,8.9-0.4,13.6,2.2,14.1h5c0,0,1.4,0.7,1.4,1.4c1.5,2.4-2.2,2.1-7,2.1c-0.8,0-2.8,0.7-3.6,0.7c-2.9-0.6-19.3,1.6-18.3-2.1
	c-0.7-2.7,3.5-2,5.6-2c3.2-1.5,3-5.9,4.9-9.3c0.2-0.8,0-1.3-0.8-2.8c0.2-0.3-0.6-0.9,0.8-3.5c0.3-3.7-0.8-5.5-0.8-7.8
	c0-3.3,0.2-7.3-0.7-9.1c-0.1-9.5,1.4-15.4,1.4-22.6c-0.7-2.5-1.3-6.9-2.2-8.5c1.1-3.7-1.8-5.1-2.8-5.6c-2.7-0.2-6.3-2.5-7.1-2.8
	v-1.3h7.8c-2.6-1,15-0.7,21.9-0.7c0.7,0,7-0.8,7.8-0.8c4.5,0.1,8-0.9,14.1,4.2c0.7,0,2.8,2.8,3.5,2.8c1.5,0.8,3.6,1.6,3.5,2.1
	C58.3,58.6,62.1,63.1,62.1,68z M111.1,67.6c-1.6,0-6-1.1-9,3.3l0.8,0.8c2.9,0,6.8,2.7,7.4,2.5c1-1,1.6,10,1.6,14.7
	c0,5.3,1.3,10.6,0.8,11.4c0,2.9-2.8,6.5-1.6,8.2c0,1.9-2.7,5-2.5,4.9c-6,6-8.2,1.4-13.9,4.9h-3.3c-3.2,0-6.4-3-8.1-4.8
	c0-4.7-1.6-10.4-1.6-13.1c0-3.5-0.4-8.8,0.8-10.6c0-1,1.1-12.3,0.8-13c0-4.6-1.1-5.5-8.1-9c-6.9,0-10.6-0.1-9,4.1l0.8,0.9
	c0.9,0,4.2,2.4,5,2.4c1.1,1.5,2,10.2,1.6,10.6c-1.2,0.2-0.8,7.2-0.8,10.6c0,2.5,0,9,0,9c0,3.5,1.7,7.1,1.7,8.9
	c0,0.8,1.6,3.3,1.6,3.3c6.3,9.1,11.7,6.2,13.1,7.3c4.2,0,7.2-1.6,11.4-1.6c0.8,0,3.3-3.3,3.3-3.3c0.8,0,3.3-1.7,4.1-1.7
	c-0.3,0,4.1-0.7,4.1,1.7c1.7,2.6,2.4,3.9,4.1,3.3c1.6,0,5.1-2.5,8.1-2.5c4.6-1.1,6.8-1.3,5.8-3.3c-0.2,0.2-2.4-2.5-4.1-2.5
	c-2.1-0.4-3.9-0.7-5-2.3c0-2.5,0-5.3,0-6.5c0-0.8,0.9-4.1,0.9-5c0-2-1.6-4.3-0.9-6.4c0-4.6,1.7-7.7,1.7-12.3
	c-1.1-3.4-1.7-6.9-1.7-10.5C117.6,68.4,112.2,68.4,111.1,67.6L111.1,67.6z M194.8,98.7c0,0-0.8,3.3-1.6,4.1c0,0.8-2.5,4.1-2.5,4.8
	v3.2c-4.7,11.5-20.2,12-33.9,12.3c-0.9,0-2.5-1.6-3.3-1.6c-1.8-0.1-3.7-1.7-5.6-3.1h-0.8c-0.8,0-4,3.2-4.8,3.2
	c-1.3-0.6-2.2-1.8-2.4-3.1c0-2.4-0.9-2.5-0.9-4.1l0.9-3.4c0.2-4.1-0.9-5.6-0.9-8c0-0.8,0.9-4.1,0.9-4.9c0.2-6.8-0.9-12.2-0.9-17
	c0-0.8,0.9-7.2,0.9-8.2c0-5.5-0.5-15.6,0.8-16c0.2-2.4-0.8-4.3-0.8-6.7c-1.2-3.4,3.9-3.3-8.3-13.6v-1.6c1.6-0.6,6.5-4.2,9.8-4.2
	c6.4,0,8.9,0.2,8.9,6.5c0.7,0.3-0.9,7.7-0.9,12.1c0,6.3,0.3,16.2-0.8,17c0.2,4.7,2.1,4.1,3.3,4.1c0.8,0,4.8-1.6,5.6-1.6
	c3.4,0,8.8-1.7,12.2-1.7c3-0.3,5.3,0.8,8,1.7c4.2-0.5,5.8,2.6,9,5.7l0.8,1.6C195.5,77.8,194.8,96.2,194.8,98.7z M179.3,82.5
	c0-0.8-3.2-3.2-3.2-3.9c-2.4-4.6-8.1-4.4-9.7-5.8c-2,0.7-10.5-1.6-13.8,1.8c0.1-0.2-2.4,2.8-2.4,4.8c0,2.4-0.9,13.8-0.9,16.2v0.8
	c0,0.8,0.9,4,0.9,4.8c0,6.7-0.3,12.6,3.2,15.3c3.3,1.7,10.6,2.4,11.4,2.4c9.5-4.1,18.6-6.1,18.5-20.3
	C183.5,85.8,180.9,87.5,179.3,82.5z M262.9,55.9c0.5-1.5,0.7-3.1,0.7-4.7c0-1.1-4.9-4.6-6.8-4.6c-4.1-0.8-6.2-0.8-7.3-2.7h-2.7
	c-5.1,0-11.3,2-16,1.4c-1.2,1.3-4.2,2-6.8,2c-1.6,1.1-7.6,4.3-8,4.6l-9.3,9.4c-1.7,3.2-4.7,7.4-4.7,10c0,0.7-1.9,3.4-1.9,4.1
	c-0.2,0.1-0.7,7.9-0.7,8.7s0.7,4.1,0.7,4.7s0,3.9,0,4.6c0,2,2.1,3.8,1.9,6.1c0,2.7,2.4,3.7,2,5.3c0,2.1,11.9,12.3,12.1,11.4
	c1.1,1.2,2.4,2.6,3.4,2.7c0.7,0,5.3,1.9,6,1.9c1.7,0,7.3,1.3,11.4,1.3l1.4,0.7h8c11.6,0,13.4-2.3,15.4-3.3c0.9-1.1,1.7-5,2-5.4
	c0.5-2.8,1.2-5.2,1.2-6.7c0-2-1-3.3-1.2-2.7c-3.6,0-5.1,5.1-6.1,6l-3.4,3.4c-0.7,0-3.9,2-4.6,2c-2,0.8-2.8,2-6.1,2
	c-4.4,0-3.3,0.9-8.7,0.7c-3-0.8-8.1-0.8-11.4-4s-4.3-1.8-9.4-16c0-2-2.5-3.7-1.4-6.1c-0.8-2.4-0.7-3.5-0.7-12.1c0-3.2,1.3-5.1,1.3-8
	c1.4-2.6,1.8-5.1,2.7-8c0-0.7,2.7-2.7,2.7-3.4c0.7-0.7,3.3-5.3,3.9-6c-0.2-0.6,6.4-4.2,6.1-4.1c6.4-1.5,4.1-2.1,12.1-1.9
	c1.4,0,5.3,0.7,6,0.7c3.7,1.9,11.1,5.4,11.4,9.3c4.1,4,3.4,1,4.1,2c0.6-0.3,0.9-1.2,1.3-2C263.3,58.1,263,57,262.9,55.9z
	 M330.8,98.5c-1.8,5.2,0.1,6.1-7,13.2c-3.5,3.5-4.6,3.8-7.8,7c-4.6,1.4-5.9,0.9-10.8,4.8c-5.6-0.3-11.1-1.4-16.4-3.1
	c-2.8,0-4.1-3.5-11.6-8.5c-2.1-1.8-6.2-10.7-6.2-17c-0.9-0.8,1.6-3.2,1.6-9.4c0-2,2.4-3.7,3.8-5.4c-0.9-2.2,7.1-11,14-13.3h14.8
	c0.7,1.1,4.5,0.8,7,0.8c0.1,0.6,3.2,0.9,5.4,3.2c2.4,0,5.3,5.1,7.8,7.8c0.8,0.8,2.4,5.4,3.2,6.2c0.1,1,2.3,7.9,2.3,10.8
	C330.8,98,330.8,98.2,330.8,98.5z M316.8,79.9c-1.6-1.7-9.8-11.8-13.2-11.7c-2.4,1-5.5,0.8-8.6,0.8c-3,2-5.9,4.4-8.4,7
	c-2.1,3.8-2,9.2-3.9,10.2c0,4.1,0.4,9.6-0.8,11.6c0.4,2.1,0.6,4.1,0.8,6.2c0,8.9,3.6,6.3,4.6,8.6l1.6,3.2c9.6,4.8,9.1,3.8,14,3.8
	c1,1,7.6-5,11.7-7c2.1,0,5-10.4,5.4-10.8c0.6-1.2-0.8-10.8-0.8-16.3C318.7,83.4,317.9,81.6,316.8,79.9L316.8,79.9z M398.5,120.1
	l-0.8-0.8c-0.8,0-5.5-3.1-6.3-3.1c-1.4-0.8-1.9-3.8-2.4-4.7c0-2.2,1.6-9.6,1.5-15.9c-0.7-1.5-0.9-3.1-0.8-4.7l0.8-2.4
	c-1-2.8-1.5-5.7-1.6-8.7c0.6-1-3.2-4.7-3.2-7.2c-6.1-8.1-13-4.7-17.5-5.5c-1.9,0.8-3.3,2.5-7.1,3.2c-3,0.6-4.7,3.3-7.9,3.2
	c-1.4-1.2,0.1-6.3-2.4-6.3l-1.7-0.8c-1-0.3-3,2.7-4.7,4.8c-3.4,3.4-4.6,4.9-8.7,7.1c0,2.5,1.2,3,5.5,5.6c0,0.8,0.8,6.3,0.8,7.9
	c0,5.1,0,14.9,0.1,25.4c-2.7,1.8-3.9,2.7-7.1,3.2v0.8c0,2.9,1.1,2.2,4.7,2.4c0.8,0,3.2-0.8,4-0.8h16.7c0.8-0.7,1-0.9,0.8-2.4
	c-0.8-1.1-4.2-2.4-7.1-2.4c-1.5-0.9-2.4-3.4-2.4-5.5L351.8,87c0.7-1.9,0.9-4.2,2.4-6.3c6.3-6.3,14.1-8,15.8-7.2s3.5,2.4,6.3,3.1
	c3.4,0,2.4,7.3,2.4,11.2c0,0.8,0.8,3.9,0.8,4.7s1.6,3.9,1.6,4.7c-0.1,1.1-0.3,2.2-0.8,3.2v15.1c-0.8,0.8-0.3,2.4-2.4,2.4
	c-0.8,0.7-3.8,0.7-6.3,2.4c0,2.6,2.8,1.2,4.7,1.6c0.8,0,4,0.8,4.7,0.8h16.7C398.5,121.8,398.7,121.6,398.5,120.1L398.5,120.1z
	 M434.5,30.8c-3.2,0-5.1,2.7-8.8,3.3c-3.5,3.4-8.1,5.7-8.1,8.8c-0.7,2.7-0.7,6.3-3.1,6.3c0,3.8-2.2,11.6-2.3,11.2
	c0,7.7,0.7,5.8-7.2,12.8c0,2.5,1.1,2.1,6.4,6.4c0,2.5,0.8,5.6,2.4,6.3v1.6c0,0.9-1.6,3.3-1.6,4.1c0,8.9-0.3,13.1,0.8,15.9
	c0,2.1-2.8,4.4-1.6,6.4c-2.8,7.2-6,2.9-8.9,7.1l0.8,0.8h14.4c2-0.8,2.7-0.8,7.2-0.8c3,0,3.4,0.8,10.5,0.8c0.7-0.8,0.8,0.1,0.8-3.2
	c0.9-1.1-4.9-0.8-7.2-0.8c-0.5-0.3-7.8-3.5-7.2-3.9l-0.1-24.7c0-1.8-1.1-3.4-0.8-6.4c1.2-4.6-0.6-8,8.8-8c0.8,0,6.4-0.8,8-0.8
	c1.1-1,1.8-2.4,1.7-3.9c0-0.8-1.7-2.4-1.7-2.4h-11.2c-0.5,0-3.8-1.3-4.1-2.5c0-3.7-1.4-9.8-0.8-11.1c0-2.9,0.4-8.5,5.6-14.4
	c1.3-1.1,4.8-0.7,4.8-0.8c3,0,5.1,2.3,8,2.3c0.8,0,5.5,0.8,6.4,0.8c2.1,0,5.3-3.3,4.7-4.7C451.2,34.6,451.2,30.8,434.5,30.8
	L434.5,30.8z" />
<path class="st1" d="M376.1,126.7h-0.2l-0.3-0.1c-0.2,0-0.5,0-0.7,0c-0.4,0-0.9,0.1-1.5,0.1c-1.2,0-2.4-0.2-3.5-0.7
	c-0.5,1.4-1.1,2.9-1.6,4.3c-1.1,3.2-3,6.1-5.4,8.5c-2.3,2.3-4.5,4.8-6.9,6.9c-0.4,0-0.9,0.2-1.2,0.5c0,0.1,0,0.1,0,0.2
	c0-0.1,0-0.1,0-0.2c-2.7-0.6-5-2.1-7.3-3.3c-1-0.5-1.7-0.5-2.3,0.1c-0.8,0.8-1.4,1.7-1.9,2.7c-0.8,1.8-1.3,2-3,0.8
	c-0.5-0.4-0.6-0.5-1,0.1c-0.9,1.2-1.9,2.2-2.9,3.4l0,0c-0.3-0.2-0.7-0.1-0.8,0.2c0,0.1-0.1,0.1-0.1,0.2l-0.2,0.3
	c-0.5-0.1-0.9-0.2-1.3,0.2c-0.6-0.3-1.4-0.4-2.1-0.4c-2.4,0.2-4.9,3.6-4.6,6.6c0,0.6-0.2,1.1-0.1,1.7l-0.2,0.5
	c0.1,0.2,0.2,0.4,0.2,0.6c-0.1-0.2-0.2-0.4-0.2-0.6l-0.2,0.3c-0.7,0.6-0.7,1.7-1.6,2.1c-1.9,0-3.4,1-5,1.6
	c-4.3,1.4-8.7,1.4-13.1,1.9h-2.6c-1.6-0.4-3.4,0.2-5-0.4c-0.9-0.7-1.9-0.9-3-0.8c-1.9,0.4-3.6-0.8-5.5-0.9c-2.9-0.2-5.7-0.8-8.4-1.7
	c-3-1-6-2.2-8.9-3.6c-2.4-1.1-5-2.2-7.5-3.2c-1.3-0.6-2.5-1.3-3.7-2.1c-4.4-2.7-8.1-6.3-12.3-9.2c-2.9-2-5.1-4.7-7.9-6.8
	c-1.6-1.1-2.5-3-3.8-4.5c-0.3-0.5-0.7-0.9-1.2-1.2c-1-1.2-2-2.5-2.8-3.8c-2.2-0.2-4.4-0.5-6.2-0.8l-1.3-0.2c0.4,0.8,0.8,1.6,1.3,2.4
	c1.1,2.4,2.5,4.8,4.1,6.9c1.2,1.7,2.3,3.4,3.6,5c2.6,3.3,5.4,6.4,8.4,9.4c2.8,2.9,5.9,5.5,9.2,7.8c4.3,3.2,8.9,5.9,13.7,8.2
	c4.7,2.2,9.6,4,14.7,5.3c0.2,0.5,0.5,0.4,0.9,0.3l0.8,0.3c0.3,0.5,0.6,0.3,1,0.1l0.9,0.1c0.2,0.2,0.5,0.3,0.7,0.1c0,0,0,0,0,0
	l0.7,0.2c0.6,0.4,1.4,0.5,2.1,0.2c0.7,0.4,1.6,0.6,2.4,0.3c0.6,0.4,1.4,0.6,2.1,0.5c0.8,0.2,1.5,0.2,2.3,0.1
	c0.2,0.3,0.5,0.3,0.8,0.2c0,0,0.1,0,0.1-0.1h0c1.1,0.2,2.3,0.2,3.4,0c-0.2-0.5-0.3-1.1-0.2-1.7c0,0.6,0,1.2,0.2,1.7l1.5,0.1
	c0.3,0.2,0.7,0.2,1-0.1c0.9,0.1,1.9,0,2.8-0.3c3.9,0.7,7.7-0.2,11.4-1.2c1.7-0.1,3.3-0.3,4.9-0.6c3.5-1.1,7.1-1.7,10.5-3.4
	c3-1.5,6.1-2.9,9-4.4c3.4-1.8,6.6-3.9,9.8-6.1c3.1-2.1,6.4-4.1,8.5-7.3c0.4-0.1,0.8-0.3,1-0.6l-0.4-0.3c-0.1-0.1-0.2-0.2-0.3-0.2
	c0.1,0.1,0.2,0.2,0.3,0.2l0.4,0.3c1.9-1.6,3.5-3.4,5-5.3c2.2-2.6,4.3-5.3,6.3-8.1c1.5-2.2,3.3-4.3,4-7.1l0.2-0.5
	c0.6-0.3,1.1-0.8,1.3-1.4C377.2,126.9,376.4,126.8,376.1,126.7z M304,165.9c0.2-0.1,0.3-0.2,0.4-0.4
	C304.3,165.7,304.2,165.8,304,165.9z M311.3,166.6c-0.2,0.2-0.4,0.3-0.6,0.5C310.9,167,311.1,166.8,311.3,166.6l1.5-0.3L311.3,166.6
	z M325.3,163.5c-0.1-0.1-0.3-0.2-0.4-0.2c0.2-0.3,0.3-0.6,0.5-1l-0.5,1C325,163.3,325.1,163.4,325.3,163.5L325.3,163.5z
	 M362.2,145.2c-0.1-0.1-0.2-0.2-0.3-0.3C362,144.9,362.1,145.1,362.2,145.2c0,0.1,0,0.3,0,0.4C362.2,145.5,362.2,145.3,362.2,145.2
	L362.2,145.2z M231.5,40.3c0.5,0.1,0.9,0.1,1.4,0.1c2.1-0.1,4.2-0.3,6.2-0.7c2.3-0.4,4.6-0.7,6.9-0.8c0.8-1.3,1.6-2.5,2.4-3.8
	c1-2,2.3-3.8,3.9-5.3c5.5-5,11.5-9.3,18.1-12.9c0.9-0.6,2-0.6,2.9-0.1c0.9,0.6,2.2,0.6,3-0.2c0.9-0.9,2.1-1.5,3.4-1.7
	c0.5-0.1,0.9-0.4,1-0.9c1.5-0.9,3.3-0.8,4.8-1.8c0.7-0.4,1.5-0.6,2.2-0.4c1.8,0.5,3.4-0.1,5-0.6c0.3-0.1,0.7-0.3,1-0.1
	c1.3,0.6,2.4,0,3.5-0.6c2.6,0.4,3.5,2.9,5.4,4.2c1.5,1,2.4,2.1,2,4c-0.3,1.6,0.1,3.3,1.1,4.7c1.4,2,3.5,2.9,5.5,4l0.5,0.4l0,0
	c0.2,0.5,0.5,1,1,1.3c0.9,2.4,1.7,2.9,4.3,2.3c1.8-0.5,3.7-0.4,5.4,0.3c2,0.8,4.1,1.3,6.3,0.1c3.1-1.4,5.7-3.8,7.4-6.8
	c0.2-0.4,0.6-0.7,1.1-0.8c2.9-0.5,6.6,2.7,6.6,5.6c0,0.2-0.1,0.4-0.3,0.6c-0.9,0.7-0.2,0.8,0.3,1c1.8,0.7,2.1,1.5,1,3.2
	c-0.9,1.3-1.4,2.8-1.6,4.4c2.1-1.9,2.5-4.6,4.8-5.8c1.2-0.5,1,1.1,1.8,1.2c1.2,0.2,1.2,2,2.6,2.4c0.3,0.1-0.2,0.9-0.6,1.3
	c-0.5,0.6-1.2,1-1.5,1.9c0.7,0.1,1.1-0.4,1.5-0.7c1.2-0.8,2.1-1.1,2.1,0.8c0,0.9,0.4,0.8,1.2,0.5s1.7-0.3,1.3,1.1
	c-0.2,0.8-0.2,1.4,1,1.5c1.8,0.2,2,1.3,0.9,2.7c-0.6,0.5-1.1,1.2-1.4,1.9c0.9-0.4,1.5-0.6,2.1-0.9c1-0.4,1.9-1.2,2.9-0.3
	c-0.5,0.9-0.7,1.7,0.6,2.2c0.4,0.2,0.7,0.5,0.9,0.8c-1.2,1.8,0,2.2,1.4,2.4c0.1,0,0.2,0.3,0.3,0.4c0.1,0.5,0.7,0.7,1.1,0.6
	c0,0,0,0,0,0c2.5-0.6,4.6,1,6.9,1.3c0.5,0,0.8,0.5,1,0.9c-0.1,0.5-0.5,0.9-0.3,1.4c-0.3,0.8-0.6,1.7-0.9,2.5
	c-1.2,0.5-1.4,1.6-1.6,2.6l-0.1,0.2h0.6c0.9,0,1.9-0.1,2.9-0.1c3.2-0.1,6.3,0.7,9.1,2.2c-0.2-0.9-0.5-1.8-0.8-2.8
	c-1.2-3.6-2.2-7.3-4.2-10.7l-0.3,0.2l0.3-0.2c0-0.1-0.1-0.1-0.2-0.2l-0.8-0.3l0,0l0.8,0.3c0-0.9-0.3-1.8-1-2.4
	c-0.1-0.4-0.2-0.8-0.3-1.2c-1.2-3.1-2.9-5.9-4.9-8.5c-1.5-1.8-2.2-4-4-5.6c-0.1-0.4-0.4-0.7-0.8-0.8l0,0c-0.2-1.6-1.9-1.9-2.5-2.9
	c-2.1-3.4-5.5-5.6-8.3-8.2c-4-3.7-8.6-6.9-13.4-9.5l-2.2-1.1c-0.1-0.4-0.2-0.5-0.6-0.4l-0.9-0.5l0,0c-0.2-0.4-0.5-0.6-0.9-0.5
	c-0.3-0.4-0.8-0.7-1.3-0.6c-1.5-1.1-3.1-1.8-4.9-2.2l-3.8-1.2c-0.3-0.5-0.8-0.7-1.3-0.6c-1.8-0.4-3.5-1-5.2-1.7
	c-4.1-1.4-8.4-1.7-12.7-2.3C304.4-0.3,299.1-0.1,294,1c-3.1,0-6.2,0.4-9.2,1.3c-2.2,0.6-4.5,0.7-6.5,2.1l0,0L276.6,5
	c-2.2,0.6-4.4,1.2-6.6,2c-3.7,1.5-7.2,3.4-10.4,5.7c-3.8,2.3-7.5,4.9-11.1,7.7C241.7,25.9,236,32.7,231.5,40.3L231.5,40.3z
	 M373.6,59c0.3,0.1,0.5,0.3,0.7,0.5C374.2,59.3,373.9,59.1,373.6,59c0.3-0.6,0.6-1.3,0.9-1.9C374.3,57.7,374,58.4,373.6,59z
	 M373.6,45.1L373.6,45.1l1,0.5L373.6,45.1z M373.7,43c0,0.2,0,0.3-0.1,0.5c0.2,0.1,0.4,0.3,0.5,0.5c-0.1-0.2-0.3-0.4-0.5-0.5
	C373.7,43.3,373.7,43.2,373.7,43L373.7,43z M352.5,19l1,0.5c1.3,1.3,2.5,2.5,3.9,3.7c-1.4-1.2-2.6-2.4-3.9-3.7l0,0L352.5,19
	l-0.6,0.5L352.5,19z M340.2,10.9c-0.3-0.2-0.6-0.4-0.9-0.7l0,0C339.5,10.5,339.8,10.8,340.2,10.9L340.2,10.9z M339.2,10.3
	c-0.1,0.2-0.2,0.3-0.4,0.3C339,10.6,339.1,10.5,339.2,10.3L339.2,10.3z M338,10.4c0,0.2,0,0.4,0,0.5C337.9,10.8,337.9,10.6,338,10.4
	l-0.3-0.2L338,10.4z M332.2,7.6l0.2,0.1L332.2,7.6c-0.3,0.2-0.6,0.3-1,0.4C331.5,7.9,331.9,7.8,332.2,7.6L332.2,7.6z M313.4,2.1
	l0.4,0.2L313.4,2.1c0,0.1-0.1,0.2-0.1,0.2C313.3,2.3,313.4,2.2,313.4,2.1L313.4,2.1z M288.5,3.6c-0.1,0.2-0.2,0.4-0.3,0.6
	C288.3,4,288.4,3.8,288.5,3.6h-0.3H288.5z M280.1,13.4c0.2-0.3,0.5-0.6,0.8-0.9C280.6,12.8,280.4,13.1,280.1,13.4l-0.6-0.3
	L280.1,13.4z M282.4,17.4c-0.6-0.2-1-0.8-0.9-1.4c0,0,0,0,0-0.1c0.4-0.6,0.9-1,1.6-0.7c0.6,0.2,0.9,0.8,0.7,1.4c0,0.1,0,0.1-0.1,0.2
	c-0.2,0.6-0.8,0.9-1.3,0.7C282.5,17.4,282.4,17.4,282.4,17.4L282.4,17.4z"/>
<path class="st2" d="M34.1,132.4v5.8h-9v24.2h-6.8v-24.2h-9v-5.8H34.1z"/>
<path class="st2" d="M47.2,132c4.5,0,7.9,0.8,10.3,2.4c2.4,1.6,3.6,4.1,3.6,7.4c0.1,1.8-0.4,3.6-1.5,5.2c-1.1,1.4-2.5,2.5-4.2,3.1
	c0.6,0.7,1.2,1.6,1.9,2.6s1.3,2,2,3s1.3,2.1,1.9,3.3s1.2,2.3,1.7,3.4h-7.6l-1.7-3c-0.6-1-1.1-2-1.7-2.9s-1.2-1.9-1.8-2.7
	s-1.2-1.6-1.7-2.3h-3.3v10.9h-6.7v-29.5c1.5-0.3,3-0.5,4.6-0.6C44.5,132.1,45.9,132,47.2,132z M47.6,137.8c-0.5,0-0.9,0-1.3,0.1
	l-1.1,0.1v8.1H47c2.5,0,4.3-0.3,5.4-0.9c1.1-0.7,1.8-1.9,1.7-3.2c0.1-1.3-0.6-2.5-1.7-3.1C50.9,138,49.2,137.7,47.6,137.8
	L47.6,137.8z"/>
<path class="st2" d="M88.6,162.3c-0.3-1-0.7-2.1-1.1-3.2l-1.1-3.3H74.7l-1.1,3.3c-0.4,1.1-0.7,2.2-1.1,3.2h-7
	c1.1-3.2,2.2-6.2,3.2-8.9c1-2.7,2-5.3,3-7.7s1.9-4.7,2.9-6.9s1.9-4.3,2.9-6.4h6.4c1,2.1,2,4.2,2.9,6.4s1.9,4.5,2.9,6.9s2,5,3,7.7
	s2.1,5.7,3.2,8.9H88.6z M80.5,139.1c-0.2,0.4-0.4,1-0.7,1.8c-0.3,0.8-0.6,1.6-1,2.6s-0.8,2.1-1.2,3.2s-0.9,2.4-1.4,3.7h8.6
	c-0.5-1.3-0.9-2.5-1.3-3.7s-0.8-2.3-1.2-3.2s-0.7-1.9-1-2.6S80.7,139.6,80.5,139.1z"/>
<path class="st2" d="M112.3,162.9c-4.9,0-8.6-1.4-11.1-4.1c-2.5-2.7-3.8-6.6-3.8-11.5c0-2.3,0.4-4.5,1.2-6.6
	c0.7-1.8,1.8-3.5,3.2-4.9c1.4-1.4,3-2.4,4.8-3.1c2-0.7,4-1,6.1-1c1.2,0,2.3,0.1,3.4,0.3c0.9,0.2,1.8,0.4,2.7,0.6
	c0.7,0.2,1.3,0.5,1.9,0.8c0.5,0.3,0.9,0.5,1.1,0.6l-1.9,5.4c-1-0.5-2.1-1-3.2-1.3c-1.4-0.4-2.8-0.5-4.2-0.5c-1,0-2,0.2-3,0.5
	c-1,0.3-1.9,0.9-2.6,1.7c-0.8,0.9-1.4,1.9-1.8,3c-0.5,1.4-0.7,2.9-0.7,4.4c0,1.3,0.2,2.5,0.5,3.8c0.3,1.1,0.8,2.2,1.5,3.1
	c0.7,0.9,1.6,1.6,2.6,2.1c1.3,0.5,2.6,0.8,4,0.8c0.9,0,1.8,0,2.6-0.2c0.7-0.1,1.4-0.2,2.1-0.4c0.5-0.1,1.1-0.3,1.6-0.5l1.3-0.6
	l1.9,5.4c-1.3,0.7-2.6,1.2-4,1.6C116.4,162.7,114.3,162.9,112.3,162.9z"/>
<path class="st2" d="M144.3,162.3c-0.6-1-1.3-2-2.1-3.2c-0.8-1.2-1.7-2.3-2.7-3.4c-0.9-1.1-1.9-2.2-3-3.3c-1-1-2-1.9-3.1-2.8v12.7
	h-6.7v-29.9h6.7v11.3c1.7-1.8,3.5-3.7,5.3-5.7s3.4-3.8,5-5.6h8c-2,2.4-4,4.8-6.1,7c-2.1,2.2-4.3,4.5-6.5,6.8
	c2.5,2.1,4.9,4.5,6.9,7.1c2.3,2.9,4.5,5.9,6.4,9.1L144.3,162.3z"/>
<path class="st2" d="M173.4,152.2c0,1.4-0.2,2.8-0.5,4.1c-0.3,1.3-0.9,2.4-1.7,3.4c-0.9,1-2,1.8-3.3,2.3c-1.7,0.6-3.5,0.9-5.3,0.9
	c-1.7,0-3.4-0.2-5.1-0.7c-1.2-0.4-2.4-0.9-3.5-1.7l2.2-5.2c0.9,0.5,1.8,0.9,2.7,1.3c1,0.4,2,0.6,3.1,0.6c1.3,0.1,2.6-0.3,3.5-1.2
	c0.8-1.2,1.2-2.6,1.1-4.1v-19.5h6.7V152.2z"/>
<path class="st2" d="M188,157.2c0.8,0,1.6-0.1,2.4-0.2c0.5-0.1,1-0.3,1.5-0.6c0.3-0.3,0.6-0.6,0.8-1c0.1-0.4,0.2-0.8,0.2-1.2
	c0-1-0.5-1.9-1.4-2.4c-1.5-0.9-3.1-1.6-4.8-2.1c-1-0.3-2-0.7-2.9-1.2c-1-0.4-1.8-1-2.6-1.7c-0.8-0.7-1.4-1.5-1.9-2.5
	c-0.5-1.1-0.8-2.3-0.7-3.5c0-1.3,0.2-2.6,0.8-3.7c0.5-1.1,1.3-2.1,2.2-2.8c1-0.8,2.2-1.4,3.5-1.8c1.5-0.4,3-0.7,4.6-0.6
	c1.8,0,3.5,0.2,5.2,0.6c1.3,0.3,2.5,0.8,3.6,1.4l-1.9,5.3c-0.9-0.5-1.8-0.8-2.8-1.1c-1.2-0.4-2.4-0.5-3.7-0.5
	c-1.2-0.1-2.4,0.1-3.5,0.7c-0.7,0.4-1.1,1.2-1.1,2c0,0.5,0.1,1,0.4,1.4c0.3,0.4,0.7,0.7,1.1,1c0.5,0.3,1.1,0.6,1.6,0.8
	c0.6,0.2,1.3,0.5,2.1,0.8c1.6,0.6,2.9,1.1,4.1,1.7c1.1,0.5,2,1.2,2.9,2c0.8,0.7,1.3,1.6,1.7,2.6c0.4,1.2,0.6,2.4,0.6,3.7
	c0.1,2.5-1,4.9-2.9,6.5c-2,1.5-4.9,2.3-8.9,2.3c-1.2,0-2.4-0.1-3.6-0.2c-1-0.1-1.9-0.3-2.8-0.6c-1.3-0.3-2.5-0.8-3.6-1.5l1.9-5.4
	c1.1,0.6,2.2,1,3.3,1.3C184.8,157,186.4,157.2,188,157.2z"/>
</svg>
