<svg xmlns="http://www.w3.org/2000/svg" xmlns:xlink="http://www.w3.org/1999/xlink" viewBox="0 0 165.03 61.06"><defs><linearGradient id="a" x1="285.05" y1="92.46" x2="342.49" y2="92.46" gradientUnits="userSpaceOnUse"><stop offset="0" stop-color="#fff"/><stop offset="0.06" stop-color="#d0d0d0"/><stop offset="0.16" stop-color="#878786"/><stop offset="0.25" stop-color="#c5c5c5"/><stop offset="0.34" stop-color="#ccc"/><stop offset="0.38" stop-color="#c1c1c1"/><stop offset="0.65" stop-color="#c9c9c9"/><stop offset="1" stop-color="#8a8a89"/></linearGradient></defs><title>event-logo</title><polygon points="114.03 49.34 0 58.54 4.04 42.68 101.04 41.05 114.03 49.34" style="fill:#ff9318"/><circle cx="111" cy="29.22" r="10.45" style="fill:none;stroke:#b5b4b4;stroke-miterlimit:10;stroke-width:2px"/><path d="M313.77,63.74a28.73,28.73,0,1,0,28.72,28.72A28.72,28.72,0,0,0,313.77,63.74Zm18.67,11.41a6.65,6.65,0,1,1-9.41,0A6.66,6.66,0,0,1,332.44,75.15Zm-17.83-7.86A6.65,6.65,0,1,1,308,73.94,6.65,6.65,0,0,1,314.61,67.29Zm6.45,25.17a7.29,7.29,0,1,1-7.29-7.29A7.29,7.29,0,0,1,321.06,92.46ZM296.18,74.07a6.65,6.65,0,1,1,0,9.41A6.65,6.65,0,0,1,296.18,74.07Zm-7.85,17.82A6.65,6.65,0,1,1,295,98.55,6.65,6.65,0,0,1,288.33,91.89Zm7.05,18.16a6.65,6.65,0,1,1,9.4,0A6.64,6.64,0,0,1,295.38,110.05Zm17.82,7.86a6.65,6.65,0,1,1,6.65-6.65A6.65,6.65,0,0,1,313.2,117.91Zm18.16-7a6.65,6.65,0,1,1,0-9.41A6.65,6.65,0,0,1,331.36,110.86Zm1.48-10.9a6.65,6.65,0,1,1,6.65-6.65A6.66,6.66,0,0,1,332.84,100Z" transform="translate(-202.77 -63.24)" style="stroke:#878686;stroke-miterlimit:10;fill:url(#a)"/><circle cx="111" cy="29.22" r="20.34" style="fill:#ff9318"/><circle cx="111" cy="29.22" r="7" style="fill:#f9f9f9"/><path d="M313.77,63.74a28.73,28.73,0,1,0,28.72,28.72A28.72,28.72,0,0,0,313.77,63.74Zm18.67,11.41a6.65,6.65,0,1,1-9.41,0A6.66,6.66,0,0,1,332.44,75.15Zm-17.83-7.86A6.65,6.65,0,1,1,308,73.94,6.65,6.65,0,0,1,314.61,67.29Zm6.45,25.17a7.29,7.29,0,1,1-7.29-7.29A7.29,7.29,0,0,1,321.06,92.46ZM296.18,74.07a6.65,6.65,0,1,1,0,9.41A6.65,6.65,0,0,1,296.18,74.07Zm-7.85,17.82A6.65,6.65,0,1,1,295,98.55,6.65,6.65,0,0,1,288.33,91.89Zm7.05,18.16a6.65,6.65,0,1,1,9.4,0A6.64,6.64,0,0,1,295.38,110.05Zm17.82,7.86a6.65,6.65,0,1,1,6.65-6.65A6.65,6.65,0,0,1,313.2,117.91Zm18.16-7a6.65,6.65,0,1,1,0-9.41A6.65,6.65,0,0,1,331.36,110.86Zm1.48-10.9a6.65,6.65,0,1,1,6.65-6.65A6.66,6.66,0,0,1,332.84,100Z" transform="translate(-202.77 -63.24)" style="stroke:#c3c3c3;stroke-miterlimit:10;fill:url(#a)"/><path d="M229,83.65c-1,1.73.05,2.54-1,3.74,0,.29-1.24,1-1.24,1.29-.68,1.53-.64,1.74-3,2.26-.24,0-1.25.73-1.49.73-.68-.24-2.33.57-4.54-.47-.93,0-.77-.2-.77-1.25-.2-.36,1.49-.24,2.29-.24a5.41,5.41,0,0,0,4.74-3.31v-5c0-.76-.61-1.53-2-3-1.05-1.08-2.78-1.24-3-1.48-.32,0-2-.32-2.25-.24,0-.32-1,.49-1.49.49-1.29.44-.39,3.86-1,4.55a11.12,11.12,0,0,1,.48,2,4.6,4.6,0,0,0-.47,2.49c0,.24.48,1,.48,1.25s0,1.76,0,2,.24,1,.24,1.24V92c0,.48-.23,4.5-.23,5,.05,3.17-.15,4.86.78,5h1.77s.48.24.48.48c.53.84-.8.77-2.49.77-.28,0-1,.24-1.29.24-1-.2-6.87.58-6.51-.75-.25-1,1.24-.72,2-.72,1.12-.53,1.08-2.1,1.76-3.31.08-.28,0-.48-.29-1a2,2,0,0,1,.28-1.25,14.71,14.71,0,0,0-.28-2.77,10.12,10.12,0,0,0-.25-3.26c0-3.38.51-5.51.5-8a20.28,20.28,0,0,0-.77-3,1.59,1.59,0,0,0-1-2,8.22,8.22,0,0,1-2.54-1V75.9h2.78c-.93-.36,5.35-.25,7.8-.25.24,0,2.49-.29,2.77-.29,1.61,0,2.86-.33,5,1.51.25,0,1,1,1.25,1,.53.28,1.29.56,1.25.76C227.62,80.32,229,81.92,229,83.65Zm17.49-.16a3.11,3.11,0,0,0-3.21,1.17l.28.29c1.05,0,2.41,1,2.66.87.36-.36.57,3.58.57,5.23,0,1.89.45,3.78.29,4.06,0,1-1,2.34-.55,2.94,0,.68-1,1.77-.89,1.73-2.12,2.14-2.93.49-4.94,1.74h-1.16c-1.13,0-2.3-1.08-2.9-1.72,0-1.69-.58-3.7-.58-4.66,0-1.25-.13-3.14.28-3.78,0-.36.39-4.39.27-4.63,0-1.65-.41-2-2.91-3.21-2.45,0-3.78,0-3.21,1.46l.28.32c.32,0,1.49.84,1.77.84a9.68,9.68,0,0,1,.57,3.78c-.44.08-.27,2.57-.27,3.78,0,.88,0,3.21,0,3.21a29.85,29.85,0,0,0,.61,3.18,4.53,4.53,0,0,0,.57,1.17c2.26,3.25,4.18,2.2,4.67,2.6,1.48,0,2.57-.57,4.06-.57.28,0,1.16-1.17,1.16-1.17.28,0,1.17-.61,1.45-.61-.12,0,1.44-.24,1.45.6.6.92.84,1.41,1.45,1.16.56,0,1.8-.89,2.89-.89,1.65-.4,2.41-.45,2-1.17-.08.08-.85-.88-1.45-.88-.77-.16-1.41-.24-1.77-.84,0-.89,0-1.89,0-2.33,0-.28.32-1.45.32-1.77,0-.73-.57-1.53-.33-2.3,0-1.64.6-2.73.6-4.38a12.62,12.62,0,0,1-.62-3.78C248.78,83.81,246.84,83.81,246.44,83.49ZM276.31,94.6a4.9,4.9,0,0,1-.56,1.45c0,.28-.88,1.45-.88,1.73v1.13c-1.68,4.1-7.19,4.28-12.1,4.37-.32,0-.88-.56-1.16-.56a4.48,4.48,0,0,1-2-1.12h-.28c-.28,0-1.44,1.13-1.73,1.13a1.44,1.44,0,0,1-.84-1.12c0-.85-.33-.89-.33-1.45l.32-1.21a17.92,17.92,0,0,0-.33-2.85c0-.29.32-1.45.32-1.73.07-2.42-.33-4.35-.34-6.08,0-.28.32-2.57.32-2.93,0-2-.17-5.55.27-5.71.08-.85-.29-1.53-.29-2.38-.44-1.2,1.41-1.17-3-4.86v-.56c.56-.2,2.33-1.49,3.5-1.49,2.29,0,3.17.07,3.18,2.32.24.12-.32,2.74-.31,4.3,0,2.26.09,5.8-.27,6.08.09,1.69.77,1.44,1.17,1.44s1.73-.56,2-.56c1.21,0,3.14-.61,4.34-.62a6.34,6.34,0,0,1,2.86.6c1.49-.17,2.05.92,3.22,2l.28.56C276.53,87.16,276.3,93.72,276.31,94.6Zm-5.53-5.78c0-.28-1.13-1.12-1.13-1.4-.84-1.65-2.9-1.56-3.46-2.08-.72.24-3.74-.56-4.9.65a3.58,3.58,0,0,0-.84,1.73c0,.85-.32,4.91-.31,5.79v.29c0,.28.32,1.4.32,1.72,0,2.38-.11,4.51,1.14,5.47a14.06,14.06,0,0,0,4.07.88c3.37-1.46,6.63-2.19,6.61-7.26C272.27,90,271.35,90.59,270.78,88.82Zm29.82-9.48a5,5,0,0,0,.24-1.69c0-.4-1.74-1.64-2.42-1.64-1.45-.28-2.21-.27-2.62-1h-1c-1.81,0-4,.74-5.71.5a3.61,3.61,0,0,1-2.41.73c-.56.4-2.73,1.53-2.85,1.65l-3.33,3.35c-.6,1.13-1.69,2.66-1.68,3.58,0,.25-.69,1.21-.68,1.45a29.69,29.69,0,0,0-.24,3.1c0,.24.25,1.45.25,1.69v1.65c0,.72.77,1.36.69,2.17s.85,1.32.73,1.89c0,.76,4.23,4.37,4.31,4,.4.44.85.92,1.21,1s1.89.68,2.13.68c.6,0,2.62.48,4.06.47l.49.24h2.85c4.15,0,4.79-.82,5.51-1.18a14,14,0,0,0,.72-1.93c.16-1,.44-1.86.44-2.38,0-.72-.37-1.16-.45-1-1.29,0-1.8,1.81-2.17,2.13l-1.2,1.21c-.24,0-1.4.73-1.65.73-.72.28-1,.73-2.17.73-1.56,0-1.16.32-3.09.25-1.09-.28-2.9-.28-4.07-1.44s-1.53-.64-3.35-5.7c0-.73-.89-1.33-.49-2.17-.28-.85-.24-1.25-.25-4.31,0-1.12.48-1.81.48-2.85a16,16,0,0,0,1-2.86c0-.24,1-1,1-1.21.24-.24,1.16-1.89,1.4-2.13-.08-.2,2.29-1.5,2.17-1.46,2.29-.56,1.45-.8,4.3-.73.48,0,1.89.24,2.13.24,1.33.68,4,1.92,4.07,3.32,1.45,1.45,1.21.36,1.45.73a2.2,2.2,0,0,0,.48-.73A4.58,4.58,0,0,1,300.6,79.34Zm24.2,15.19c-.64,1.85.05,2.17-2.48,4.71-1.24,1.25-1.65,1.37-2.77,2.5-1.65.49-2.09.33-3.86,1.7a22.18,22.18,0,0,1-5.83-1.11c-1,0-1.45-1.25-4.15-3a11,11,0,0,1-2.22-6.07c-.33-.28.56-1.12.55-3.34,0-.72.84-1.33,1.36-1.93-.32-.8,2.53-3.91,5-4.76h5.27c.24.4,1.61.28,2.49.28,0,.2,1.13.32,1.93,1.12.85,0,1.9,1.8,2.79,2.77.28.28.85,1.92,1.13,2.21a28.38,28.38,0,0,1,.81,3.85Zm-5-6.62c-.56-.61-3.51-4.22-4.71-4.18A8.11,8.11,0,0,1,312,84a18.79,18.79,0,0,0-3,2.5c-.76,1.37-.72,3.3-1.4,3.63,0,1.44.13,3.41-.27,4.14,0,0,.28,1.65.29,2.21,0,3.18,1.29,2.25,1.65,3l.57,1.13c3.42,1.72,3.26,1.36,5,1.35.36.37,2.73-1.77,4.17-2.5.77,0,1.8-3.7,1.92-3.86.21-.45-.29-3.86-.29-5.83A5.74,5.74,0,0,0,319.8,87.91ZM349,102.24l-.28-.28c-.28,0-2-1.13-2.26-1.12-.48-.29-.68-1.37-.85-1.69,0-.81.56-3.42.55-5.67a3.5,3.5,0,0,1-.28-1.69l.28-.85a10.11,10.11,0,0,1-.57-3.09c.2-.37-1.13-1.69-1.13-2.57-2.18-2.89-4.63-1.68-6.24-2a8.11,8.11,0,0,1-2.53,1.13c-1.09.21-1.69,1.17-2.82,1.13-.48-.44,0-2.25-.85-2.25l-.6-.28c-.36-.12-1.08,1-1.68,1.7a11.69,11.69,0,0,1-3.1,2.54c0,.88.45,1.08,2,2,0,.29.29,2.26.29,2.82,0,1.81,0,5.31,0,9a5.22,5.22,0,0,1-2.53,1.13v.28c0,1.05.4.8,1.69.84.28,0,1.12-.28,1.41-.28l5.95,0c.28-.24.36-.32.28-.84a3.85,3.85,0,0,0-2.54-.84,2.47,2.47,0,0,1-.85-2l0-9a8.23,8.23,0,0,1,.84-2.25c2.25-2.26,5-2.87,5.63-2.59A10.44,10.44,0,0,0,341,86.69c1.21,0,.85,2.61.85,4,0,.28.29,1.41.29,1.69s.57,1.41.57,1.69a3.51,3.51,0,0,1-.28,1.12v5.39c-.28.28-.12.85-.84.85-.28.24-1.37.24-2.25.85,0,.92,1,.44,1.69.56.28,0,1.41.28,1.69.28l5.95,0C349,102.84,349,102.76,349,102.24ZM361.78,70.4c-1.12,0-1.8,1-3.13,1.17-1.24,1.21-2.89,2-2.89,3.14-.24,1-.24,2.26-1.12,2.26a14.15,14.15,0,0,1-.84,4c0,2.74.25,2-2.56,4.55,0,.89.41.76,2.3,2.29,0,.88.28,2,.85,2.25v.56c0,.32-.56,1.17-.56,1.45,0,3.18-.11,4.67.29,5.67,0,.76-1,1.57-.55,2.29-1,2.58-2.13,1-3.17,2.55l.28.28,5.15,0a5.66,5.66,0,0,1,2.57-.28c1.08,0,1.21.28,3.74.27.24-.28.28,0,.28-1.13.32-.4-1.73-.27-2.58-.27-.16-.12-2.77-1.24-2.57-1.4l0-8.81a9.57,9.57,0,0,1-.29-2.29c.44-1.65-.21-2.86,3.13-2.87.28,0,2.29-.28,2.85-.28a1.68,1.68,0,0,0,.6-1.41c0-.28-.6-.85-.6-.85h-4c-.16,0-1.37-.48-1.45-.88,0-1.33-.49-3.5-.29-3.94a7.53,7.53,0,0,1,2-5.15c.48-.4,1.73-.25,1.73-.29,1.08,0,1.81.84,2.85.84.28,0,2,.28,2.3.28.76,0,1.88-1.17,1.68-1.7C367.78,71.75,367.78,70.38,361.78,70.4Z" transform="translate(-202.77 -63.24)" style="fill:#fff"/><path d="M212.73,118.24,212.27,108l1.06,0,.43,9.55,7.27-.33,0,.67Z" transform="translate(-202.77 -63.24)" style="fill:#fff"/><path d="M234.39,112.18a4.06,4.06,0,0,1-1.45,3.45,8.4,8.4,0,0,1-8.81.4,4.38,4.38,0,0,1-.3-6.78,7.09,7.09,0,0,1,4.36-1.43,6.93,6.93,0,0,1,4.45,1A4.08,4.08,0,0,1,234.39,112.18Zm-11,.49a3.67,3.67,0,0,0,1.43,2.93,5.73,5.73,0,0,0,3.74.89,5.83,5.83,0,0,0,3.66-1.21,3.7,3.7,0,0,0,1.15-3.06A3.62,3.62,0,0,0,232,109.3a7.09,7.09,0,0,0-7.39.34A3.65,3.65,0,0,0,223.39,112.67Z" transform="translate(-202.77 -63.24)" style="fill:#fff"/><path d="M245.1,115.89l-.87,0-7.68-7.05h-.07c.11.87.17,1.53.19,2l.25,5.39-.83,0-.38-8.3.87,0,7.66,7h0c-.08-.68-.13-1.33-.16-1.94l-.24-5.42.83,0Z" transform="translate(-202.77 -63.24)" style="fill:#fff"/><path d="M255.93,111.26a3.4,3.4,0,0,1-1.44,3.11,8.43,8.43,0,0,1-4.58,1.24l-2.85.13-.36-8,3.22-.14a7.8,7.8,0,0,1,4.39.8A3.33,3.33,0,0,1,255.93,111.26Zm-.9.06a2.92,2.92,0,0,0-1.42-2.52,7,7,0,0,0-3.86-.7l-2.2.1.32,7,2-.09Q255.18,114.88,255,111.32Z" transform="translate(-202.77 -63.24)" style="fill:#fff"/><path d="M267.66,110.69a3.31,3.31,0,0,1-1.29,2.9,8,8,0,0,1-7.88.33,3.35,3.35,0,0,1-1.57-2.79,3.28,3.28,0,0,1,1.31-2.89,8,8,0,0,1,7.88-.32A3.31,3.31,0,0,1,267.66,110.69Zm-9.83.42a3,3,0,0,0,1.28,2.45,5.33,5.33,0,0,0,3.34.74,5.42,5.42,0,0,0,3.28-1,3.33,3.33,0,0,0-.24-5,5.43,5.43,0,0,0-3.35-.72,5.36,5.36,0,0,0-3.26,1A2.92,2.92,0,0,0,257.83,111.11Z" transform="translate(-202.77 -63.24)" style="fill:#fff"/><path d="M276.58,113.61l-.71,0-6.17-5.38h-.06c.09.67.14,1.17.16,1.52l.19,4.11-.67,0-.3-6.35.7,0,6.17,5.37h0c-.07-.52-.11-1-.13-1.48l-.2-4.14.67,0Z" transform="translate(-202.77 -63.24)" style="fill:#fff"/><rect x="207.57" y="102.93" width="6.61" height="7.5" transform="matrix(1, -0.02, 0.02, 1, -204.61, -59.53)" style="fill:none"/><rect x="212.46" y="106.38" width="1.23" height="0.75" transform="matrix(1, -0.02, 0.02, 1, -204.61, -59.49)" style="fill:#ffffed"/><rect x="210.26" y="106.42" width="1.23" height="0.75" transform="translate(-204.62 -59.52) rotate(-1.01)" style="fill:#ffffed"/><rect x="208.07" y="106.46" width="1.23" height="0.75" transform="translate(-204.61 -59.57) rotate(-1.01)" style="fill:#ffffed"/><rect x="214.17" y="102.82" width="6.61" height="7.5" transform="translate(-204.61 -59.41) rotate(-1.01)" style="fill:none"/><rect x="219.06" y="106.26" width="1.23" height="0.75" transform="matrix(1, -0.02, 0.02, 1, -204.61, -59.37)" style="fill:#ffffed"/><rect x="216.87" y="106.3" width="1.23" height="0.75" transform="translate(-204.61 -59.41) rotate(-1.01)" style="fill:#ffffed"/><rect x="214.67" y="106.34" width="1.23" height="0.75" transform="matrix(1, -0.02, 0.02, 1, -204.61, -59.45)" style="fill:#ffffed"/><rect x="220.78" y="102.7" width="6.61" height="7.5" transform="translate(-204.61 -59.3) rotate(-1.01)" style="fill:none"/><rect x="225.67" y="106.15" width="1.23" height="0.75" transform="translate(-204.61 -59.26) rotate(-1)" style="fill:#ffffed"/><rect x="223.47" y="106.19" width="1.23" height="0.75" transform="translate(-204.61 -59.29) rotate(-1.01)" style="fill:#ffffed"/><rect x="221.28" y="106.22" width="1.23" height="0.75" transform="matrix(1, -0.02, 0.02, 1, -204.61, -59.34)" style="fill:#ffffed"/><rect x="227.38" y="102.59" width="6.61" height="7.5" transform="matrix(1, -0.02, 0.02, 1, -204.6, -59.18)" style="fill:none"/><rect x="232.28" y="106.03" width="1.23" height="0.75" transform="matrix(1, -0.02, 0.02, 1, -204.6, -59.14)" style="fill:#ffffed"/><rect x="230.08" y="106.07" width="1.23" height="0.75" transform="matrix(1, -0.02, 0.02, 1, -204.6, -59.18)" style="fill:#ffffed"/><rect x="227.88" y="106.11" width="1.23" height="0.75" transform="matrix(1, -0.02, 0.02, 1, -204.6, -59.22)" style="fill:#ffffed"/><rect x="233.99" y="102.47" width="6.61" height="7.5" transform="matrix(1, -0.02, 0.02, 1, -204.6, -59.06)" style="fill:none"/><rect x="238.88" y="105.92" width="1.23" height="0.75" transform="matrix(1, -0.02, 0.02, 1, -204.6, -59.03)" style="fill:#ffffed"/><rect x="236.68" y="105.95" width="1.23" height="0.75" transform="matrix(1, -0.02, 0.02, 1, -204.6, -59.07)" style="fill:#ffffed"/><rect x="234.49" y="105.99" width="1.23" height="0.75" transform="matrix(1, -0.02, 0.02, 1, -204.6, -59.1)" style="fill:#ffffed"/><rect x="240.59" y="102.35" width="6.61" height="7.5" transform="matrix(1, -0.02, 0.02, 1, -204.6, -58.95)" style="fill:none"/><rect x="245.49" y="105.8" width="1.23" height="0.75" transform="matrix(1, -0.02, 0.02, 1, -204.6, -58.91)" style="fill:#ffffed"/><rect x="243.29" y="105.84" width="1.23" height="0.75" transform="translate(-204.6 -58.95) rotate(-1)" style="fill:#ffffed"/><rect x="241.09" y="105.88" width="1.23" height="0.75" transform="translate(-204.6 -58.99) rotate(-1)" style="fill:#ffffed"/><rect x="247.2" y="102.24" width="6.61" height="7.5" transform="translate(-204.59 -58.83) rotate(-1.01)" style="fill:none"/><rect x="252.09" y="105.68" width="1.23" height="0.75" transform="matrix(1, -0.02, 0.02, 1, -204.59, -58.8)" style="fill:#ffffed"/><rect x="249.89" y="105.72" width="1.23" height="0.75" transform="matrix(1, -0.02, 0.02, 1, -204.59, -58.83)" style="fill:#ffffed"/><rect x="247.7" y="105.76" width="1.23" height="0.75" transform="matrix(1, -0.02, 0.02, 1, -204.6, -58.87)" style="fill:#ffffed"/><rect x="253.8" y="102.12" width="6.61" height="7.5" transform="matrix(1, -0.02, 0.02, 1, -204.59, -58.72)" style="fill:none"/><rect x="258.7" y="105.57" width="1.23" height="0.75" transform="translate(-204.59 -58.67) rotate(-1.01)" style="fill:#ffffed"/><rect x="256.5" y="105.61" width="1.23" height="0.75" transform="translate(-204.6 -58.71) rotate(-1.01)" style="fill:#ffffed"/><rect x="254.31" y="105.64" width="1.23" height="0.75" transform="matrix(1, -0.02, 0.02, 1, -204.59, -58.76)" style="fill:#ffffed"/><rect x="260.41" y="102.01" width="6.61" height="7.5" transform="translate(-204.59 -58.6) rotate(-1.01)" style="fill:none"/><rect x="265.3" y="105.45" width="1.23" height="0.75" transform="translate(-204.59 -58.56) rotate(-1)" style="fill:#ffffed"/><rect x="263.1" y="105.49" width="1.23" height="0.75" transform="translate(-204.59 -58.6) rotate(-1)" style="fill:#ffffed"/><rect x="260.91" y="105.53" width="1.23" height="0.75" transform="matrix(1, -0.02, 0.02, 1, -204.59, -58.64)" style="fill:#ffffed"/><rect x="267.01" y="101.89" width="6.61" height="7.5" transform="translate(-204.58 -58.48) rotate(-1.01)" style="fill:none"/><rect x="271.91" y="105.34" width="1.23" height="0.75" transform="matrix(1, -0.02, 0.02, 1, -204.58, -58.45)" style="fill:#ffffed"/><rect x="269.71" y="105.37" width="1.23" height="0.75" transform="translate(-204.59 -58.48) rotate(-1.01)" style="fill:#ffffed"/><rect x="267.52" y="105.41" width="1.23" height="0.75" transform="matrix(1, -0.02, 0.02, 1, -204.59, -58.52)" style="fill:#ffffed"/><rect x="273.62" y="101.77" width="6.61" height="7.5" transform="translate(-204.58 -58.37) rotate(-1.01)" style="fill:none"/><rect x="278.51" y="105.22" width="1.23" height="0.75" transform="matrix(1, -0.02, 0.02, 1, -204.58, -58.33)" style="fill:#ffffed"/><rect x="276.31" y="105.26" width="1.23" height="0.75" transform="matrix(1, -0.02, 0.02, 1, -204.58, -58.37)" style="fill:#ffffed"/><rect x="274.12" y="105.3" width="1.23" height="0.75" transform="translate(-204.58 -58.41) rotate(-1)" style="fill:#ffffed"/><rect x="280.22" y="101.66" width="6.61" height="7.5" transform="translate(-204.58 -58.25) rotate(-1.01)" style="fill:none"/><rect x="285.12" y="105.1" width="1.23" height="0.75" transform="matrix(1, -0.02, 0.02, 1, -204.58, -58.22)" style="fill:#ffffed"/><rect x="282.92" y="105.14" width="1.23" height="0.75" transform="translate(-204.58 -58.24) rotate(-1.01)" style="fill:#ffffed"/><rect x="280.73" y="105.18" width="1.23" height="0.75" transform="matrix(1, -0.02, 0.02, 1, -204.58, -58.29)" style="fill:#ffffed"/><rect x="204.57" y="116.54" width="6.78" height="7.5" transform="translate(-211.94 -45.78) rotate(-4.71)" style="fill:none"/><rect x="209.59" y="119.84" width="1.26" height="0.75" transform="translate(-211.93 -45.59) rotate(-4.71)" style="fill:#ffffed"/><rect x="207.34" y="120.02" width="1.26" height="0.75" transform="translate(-211.95 -45.78) rotate(-4.71)" style="fill:#ffffed"/><rect x="205.1" y="120.21" width="1.26" height="0.75" transform="translate(-211.97 -45.96) rotate(-4.71)" style="fill:#ffffed"/><rect x="211.32" y="115.99" width="6.78" height="7.5" transform="translate(-211.87 -45.23) rotate(-4.71)" style="fill:none"/><rect x="216.34" y="119.28" width="1.26" height="0.75" transform="translate(-211.86 -45.04) rotate(-4.71)" style="fill:#ffffed"/><rect x="214.09" y="119.47" width="1.26" height="0.75" transform="translate(-211.88 -45.23) rotate(-4.71)" style="fill:#ffffed"/><rect x="211.85" y="119.65" width="1.26" height="0.75" transform="translate(-211.9 -45.41) rotate(-4.71)" style="fill:#ffffed"/><rect x="218.08" y="115.43" width="6.78" height="7.5" transform="translate(-211.8 -44.68) rotate(-4.71)" style="fill:none"/><rect x="223.1" y="118.73" width="1.26" height="0.75" transform="translate(-211.79 -44.49) rotate(-4.7)" style="fill:#ffffed"/><rect x="220.85" y="118.91" width="1.26" height="0.75" transform="translate(-211.81 -44.67) rotate(-4.71)" style="fill:#ffffed"/><rect x="218.61" y="119.1" width="1.26" height="0.75" transform="translate(-211.83 -44.86) rotate(-4.7)" style="fill:#ffffed"/><rect x="224.83" y="114.87" width="6.78" height="7.5" transform="translate(-211.73 -44.12) rotate(-4.71)" style="fill:none"/><rect x="229.85" y="118.17" width="1.26" height="0.75" transform="translate(-211.72 -43.94) rotate(-4.71)" style="fill:#ffffed"/><rect x="227.6" y="118.36" width="1.26" height="0.75" transform="translate(-211.74 -44.12) rotate(-4.71)" style="fill:#ffffed"/><rect x="225.36" y="118.54" width="1.26" height="0.75" transform="translate(-211.77 -44.3) rotate(-4.71)" style="fill:#ffffed"/><rect x="231.58" y="114.32" width="6.78" height="7.5" transform="translate(-211.67 -43.57) rotate(-4.71)" style="fill:none"/><rect x="236.6" y="117.62" width="1.26" height="0.75" transform="translate(-211.65 -43.38) rotate(-4.71)" style="fill:#ffffed"/><rect x="234.36" y="117.8" width="1.26" height="0.75" transform="translate(-211.67 -43.57) rotate(-4.71)" style="fill:#ffffed"/><rect x="232.11" y="117.99" width="1.26" height="0.75" transform="translate(-211.7 -43.75) rotate(-4.71)" style="fill:#ffffed"/><rect x="238.34" y="113.76" width="6.78" height="7.5" transform="translate(-211.6 -43.02) rotate(-4.71)" style="fill:none"/><rect x="243.36" y="117.06" width="1.26" height="0.75" transform="translate(-211.58 -42.84) rotate(-4.7)" style="fill:#ffffed"/><rect x="241.11" y="117.25" width="1.26" height="0.75" transform="translate(-211.61 -43.02) rotate(-4.71)" style="fill:#ffffed"/><rect x="238.87" y="117.43" width="1.26" height="0.75" transform="translate(-211.63 -43.2) rotate(-4.7)" style="fill:#ffffed"/><rect x="245.09" y="113.21" width="6.78" height="7.5" transform="translate(-211.53 -42.47) rotate(-4.71)" style="fill:none"/><rect x="250.11" y="116.5" width="1.26" height="0.75" transform="translate(-211.52 -42.28) rotate(-4.71)" style="fill:#ffffed"/><rect x="247.87" y="116.69" width="1.26" height="0.75" transform="translate(-211.54 -42.46) rotate(-4.71)" style="fill:#ffffed"/><rect x="245.62" y="116.87" width="1.26" height="0.75" transform="translate(-211.56 -42.65) rotate(-4.71)" style="fill:#ffffed"/><rect x="251.85" y="112.65" width="6.78" height="7.5" transform="translate(-211.46 -41.91) rotate(-4.71)" style="fill:none"/><rect x="256.87" y="115.95" width="1.26" height="0.75" transform="translate(-211.45 -41.73) rotate(-4.71)" style="fill:#ffffed"/><rect x="254.62" y="116.13" width="1.26" height="0.75" transform="translate(-211.47 -41.91) rotate(-4.71)" style="fill:#ffffed"/><rect x="252.38" y="116.32" width="1.26" height="0.75" transform="translate(-211.49 -42.1) rotate(-4.71)" style="fill:#ffffed"/><rect x="258.6" y="112.09" width="6.78" height="7.5" transform="translate(-211.39 -41.36) rotate(-4.71)" style="fill:none"/><rect x="263.62" y="115.39" width="1.26" height="0.75" transform="translate(-211.38 -41.18) rotate(-4.71)" style="fill:#ffffed"/><rect x="261.37" y="115.58" width="1.26" height="0.75" transform="translate(-211.4 -41.37) rotate(-4.7)" style="fill:#ffffed"/><rect x="259.13" y="115.76" width="1.26" height="0.75" transform="translate(-211.42 -41.54) rotate(-4.71)" style="fill:#ffffed"/><rect x="265.36" y="111.54" width="6.78" height="7.5" transform="translate(-211.32 -40.81) rotate(-4.71)" style="fill:none"/><rect x="270.38" y="114.84" width="1.26" height="0.75" transform="translate(-211.31 -40.62) rotate(-4.71)" style="fill:#ffffed"/><rect x="268.13" y="115.02" width="1.26" height="0.75" transform="translate(-211.33 -40.81) rotate(-4.71)" style="fill:#ffffed"/><rect x="265.89" y="115.21" width="1.26" height="0.75" transform="translate(-211.36 -40.99) rotate(-4.71)" style="fill:#ffffed"/><rect x="272.11" y="110.98" width="6.78" height="7.5" transform="translate(-211.26 -40.26) rotate(-4.71)" style="fill:none"/><rect x="277.13" y="114.28" width="1.26" height="0.75" transform="translate(-211.24 -40.07) rotate(-4.71)" style="fill:#ffffed"/><rect x="274.88" y="114.47" width="1.26" height="0.75" transform="translate(-211.26 -40.26) rotate(-4.71)" style="fill:#ffffed"/><rect x="272.64" y="114.65" width="1.26" height="0.75" transform="translate(-211.29 -40.44) rotate(-4.71)" style="fill:#ffffed"/><rect x="278.87" y="110.43" width="6.78" height="7.5" transform="translate(-211.19 -39.71) rotate(-4.71)" style="fill:none"/><rect x="283.89" y="113.72" width="1.26" height="0.75" transform="translate(-211.17 -39.52) rotate(-4.71)" style="fill:#ffffed"/><rect x="281.64" y="113.91" width="1.26" height="0.75" transform="translate(-211.19 -39.71) rotate(-4.7)" style="fill:#ffffed"/><rect x="279.4" y="114.09" width="1.26" height="0.75" transform="translate(-211.22 -39.89) rotate(-4.71)" style="fill:#ffffed"/><rect x="285.62" y="109.87" width="6.78" height="7.5" transform="translate(-211.12 -39.15) rotate(-4.71)" style="fill:none"/><rect x="290.64" y="113.17" width="1.26" height="0.75" transform="translate(-211.11 -38.97) rotate(-4.71)" style="fill:#ffffed"/><rect x="288.39" y="113.35" width="1.26" height="0.75" transform="translate(-211.13 -39.15) rotate(-4.71)" style="fill:#ffffed"/><rect x="286.15" y="113.54" width="1.26" height="0.75" transform="translate(-211.15 -39.33) rotate(-4.71)" style="fill:#ffffed"/></svg>