<svg xmlns="http://www.w3.org/2000/svg" viewBox="0 0 451.07 173.64"><title>event-logo</title><path d="M62,68.09c-2.9,4.8.1,7.1-2.8,10.5,0,.8-3.5,2.8-3.5,3.6-1.9,4.3-1.8,4.8-8.4,6.3-.7,0-3.5,2-4.2,2-1.9-.7-6.5,1.6-12.7-1.3-2.6,0-2.2-.6-2.2-3.5-.6-1,4.2-.7,6.4-.7,6.4,0,11-4.5,13.3-9.3v-14c0-2.2-1.7-4.3-5.7-8.4-2.9-3-7.8-3.5-8.5-4.2-.9,0-5.8-.9-6.3-.7-.1-.9-2.7,1.4-4.2,1.4-3.6,1.2-1.1,10.8-2.8,12.8.3,1.8,1.4,3.7,1.4,5.6a13.12,13.12,0,0,0-1.3,7c0,.7,1.4,2.8,1.4,3.5v5.6c0,.6.7,2.8.7,3.5v3.6c0,1.3-.6,12.6-.6,14.1.1,8.9-.4,13.6,2.2,14.1h5s1.4.7,1.4,1.4c1.5,2.4-2.2,2.1-7,2.1-.8,0-2.8.7-3.6.7-2.9-.6-19.3,1.6-18.3-2.1-.7-2.7,3.5-2,5.6-2,3.2-1.5,3-5.9,4.9-9.3.2-.8,0-1.3-.8-2.8.2-.3-.6-.9.8-3.5.3-3.7-.8-5.5-.8-7.8,0-3.3.2-7.3-.7-9.1-.1-9.5,1.4-15.4,1.4-22.6-.7-2.5-1.3-6.9-2.2-8.5,1.1-3.7-1.8-5.1-2.8-5.6C4.4,50.29.8,48,0,47.69v-1.3H7.8c-2.6-1,15-.7,21.9-.7.7,0,7-.8,7.8-.8,4.5.1,8-.9,14.1,4.2.7,0,2.8,2.8,3.5,2.8,1.5.8,3.6,1.6,3.5,2.1C58.2,58.69,62,63.19,62,68.09Zm49-.4c-1.6,0-6-1.1-9,3.3l.8.8c2.9,0,6.8,2.7,7.4,2.5,1-1,1.6,10,1.6,14.7,0,5.3,1.3,10.6.8,11.4,0,2.9-2.8,6.5-1.6,8.2,0,1.9-2.7,5-2.5,4.9-6,6-8.2,1.4-13.9,4.9H91.3c-3.2,0-6.4-3-8.1-4.8,0-4.7-1.6-10.4-1.6-13.1,0-3.5-.4-8.8.8-10.6,0-1,1.1-12.3.8-13,0-4.6-1.1-5.5-8.1-9-6.9,0-10.6-.1-9,4.1l.8.9c.9,0,4.2,2.4,5,2.4,1.1,1.5,2,10.2,1.6,10.6-1.2.2-.8,7.2-.8,10.6v9c0,3.5,1.7,7.1,1.7,8.9,0,.8,1.6,3.3,1.6,3.3,6.3,9.1,11.7,6.2,13.1,7.3,4.2,0,7.2-1.6,11.4-1.6.8,0,3.3-3.3,3.3-3.3.8,0,3.3-1.7,4.1-1.7-.3,0,4.1-.7,4.1,1.7,1.7,2.6,2.4,3.9,4.1,3.3,1.6,0,5.1-2.5,8.1-2.5,4.6-1.1,6.8-1.3,5.8-3.3-.2.2-2.4-2.5-4.1-2.5-2.1-.4-3.9-.7-5-2.3v-6.5c0-.8.9-4.1.9-5,0-2-1.6-4.3-.9-6.4,0-4.6,1.7-7.7,1.7-12.3a34,34,0,0,1-1.7-10.5C117.5,68.49,112.1,68.49,111,67.69Zm83.7,31.1s-.8,3.3-1.6,4.1c0,.8-2.5,4.1-2.5,4.8v3.2c-4.7,11.5-20.2,12-33.9,12.3-.9,0-2.5-1.6-3.3-1.6-1.8-.1-3.7-1.7-5.6-3.1H147c-.8,0-4,3.2-4.8,3.2a4.2,4.2,0,0,1-2.4-3.1c0-2.4-.9-2.5-.9-4.1l.9-3.4c.2-4.1-.9-5.6-.9-8,0-.8.9-4.1.9-4.9.2-6.8-.9-12.2-.9-17,0-.8.9-7.2.9-8.2,0-5.5-.5-15.6.8-16,.2-2.4-.8-4.3-.8-6.7-1.2-3.4,3.9-3.3-8.3-13.6v-1.6c1.6-.6,6.5-4.2,9.8-4.2,6.4,0,8.9.2,8.9,6.5.7.3-.9,7.7-.9,12.1,0,6.3.3,16.2-.8,17,.2,4.7,2.1,4.1,3.3,4.1.8,0,4.8-1.6,5.6-1.6,3.4,0,8.8-1.7,12.2-1.7,3-.3,5.3.8,8,1.7,4.2-.5,5.8,2.6,9,5.7l.8,1.6c8,1.6,7.3,20,7.3,22.5Zm-15.5-16.2c0-.8-3.2-3.2-3.2-3.9-2.4-4.6-8.1-4.4-9.7-5.8-2,.7-10.5-1.6-13.8,1.8.1-.2-2.4,2.8-2.4,4.8,0,2.4-.9,13.8-.9,16.2v.8c0,.8.9,4,.9,4.8,0,6.7-.3,12.6,3.2,15.3,3.3,1.7,10.6,2.4,11.4,2.4,9.5-4.1,18.6-6.1,18.5-20.3C183.4,85.89,180.8,87.59,179.2,82.59ZM262.8,56a15,15,0,0,0,.7-4.7c0-1.1-4.9-4.6-6.8-4.6-4.1-.8-6.2-.8-7.3-2.7h-2.7c-5.1,0-11.3,2-16,1.4-1.2,1.3-4.2,2-6.8,2-1.6,1.1-7.6,4.3-8,4.6l-9.3,9.4c-1.7,3.2-4.7,7.4-4.7,10,0,.7-1.9,3.4-1.9,4.1-.2.1-.7,7.9-.7,8.7s.7,4.1.7,4.7v4.6c0,2,2.1,3.8,1.9,6.1,0,2.7,2.4,3.7,2,5.3,0,2.1,11.9,12.3,12.1,11.4,1.1,1.2,2.4,2.6,3.4,2.7.7,0,5.3,1.9,6,1.9,1.7,0,7.3,1.3,11.4,1.3l1.4.7h8c11.6,0,13.4-2.3,15.4-3.3.9-1.1,1.7-5,2-5.4.5-2.8,1.2-5.2,1.2-6.7,0-2-1-3.3-1.2-2.7-3.6,0-5.1,5.1-6.1,6l-3.4,3.4c-.7,0-3.9,2-4.6,2-2,.8-2.8,2-6.1,2-4.4,0-3.3.9-8.7.7-3-.8-8.1-.8-11.4-4s-4.3-1.8-9.4-16c0-2-2.5-3.7-1.4-6.1-.8-2.4-.7-3.5-.7-12.1,0-3.2,1.3-5.1,1.3-8,1.4-2.6,1.8-5.1,2.7-8,0-.7,2.7-2.7,2.7-3.4.7-.7,3.3-5.3,3.9-6-.2-.6,6.4-4.2,6.1-4.1,6.4-1.5,4.1-2.1,12.1-1.9,1.4,0,5.3.7,6,.7,3.7,1.9,11.1,5.4,11.4,9.3,4.1,4,3.4,1,4.1,2,.6-.3.9-1.2,1.3-2C263.2,58.19,262.9,57.09,262.8,56Zm67.9,42.6c-1.8,5.2.1,6.1-7,13.2-3.5,3.5-4.6,3.8-7.8,7-4.6,1.4-5.9.9-10.8,4.8a65.39,65.39,0,0,1-16.4-3.1c-2.8,0-4.1-3.5-11.6-8.5-2.1-1.8-6.2-10.7-6.2-17-.9-.8,1.6-3.2,1.6-9.4,0-2,2.4-3.7,3.8-5.4-.9-2.2,7.1-11,14-13.3h14.8c.7,1.1,4.5.8,7,.8.1.6,3.2.9,5.4,3.2,2.4,0,5.3,5.1,7.8,7.8.8.8,2.4,5.4,3.2,6.2.1,1,2.3,7.9,2.3,10.8C330.7,98.09,330.7,98.29,330.7,98.59ZM316.7,80c-1.6-1.7-9.8-11.8-13.2-11.7-2.4,1-5.5.8-8.6.8a51.17,51.17,0,0,0-8.4,7c-2.1,3.8-2,9.2-3.9,10.2,0,4.1.4,9.6-.8,11.6.4,2.1.6,4.1.8,6.2,0,8.9,3.6,6.3,4.6,8.6l1.6,3.2c9.6,4.8,9.1,3.8,14,3.8,1,1,7.6-5,11.7-7,2.1,0,5-10.4,5.4-10.8.6-1.2-.8-10.8-.8-16.3a17.62,17.62,0,0,0-2.4-5.6Zm81.7,40.2-.8-.8c-.8,0-5.5-3.1-6.3-3.1-1.4-.8-1.9-3.8-2.4-4.7,0-2.2,1.6-9.6,1.5-15.9a9.59,9.59,0,0,1-.8-4.7l.8-2.4a28.65,28.65,0,0,1-1.6-8.7c.6-1-3.2-4.7-3.2-7.2-6.1-8.1-13-4.7-17.5-5.5-1.9.8-3.3,2.5-7.1,3.2-3,.6-4.7,3.3-7.9,3.2-1.4-1.2.1-6.3-2.4-6.3l-1.7-.8c-1-.3-3,2.7-4.7,4.8-3.4,3.4-4.6,4.9-8.7,7.1,0,2.5,1.2,3,5.5,5.6,0,.8.8,6.3.8,7.9,0,5.1,0,14.9.1,25.4-2.7,1.8-3.9,2.7-7.1,3.2v.8c0,2.9,1.1,2.2,4.7,2.4.8,0,3.2-.8,4-.8h16.7c.8-.7,1-.9.8-2.4-.8-1.1-4.2-2.4-7.1-2.4-1.5-.9-2.4-3.4-2.4-5.5l.1-25.5c.7-1.9.9-4.2,2.4-6.3,6.3-6.3,14.1-8,15.8-7.2s3.5,2.4,6.3,3.1c3.4,0,2.4,7.3,2.4,11.2,0,.8.8,3.9.8,4.7s1.6,3.9,1.6,4.7a8.87,8.87,0,0,1-.8,3.2v15.1c-.8.8-.3,2.4-2.4,2.4-.8.7-3.8.7-6.3,2.4,0,2.6,2.8,1.2,4.7,1.6.8,0,4,.8,4.7.8h16.7a2.39,2.39,0,0,0,.8-2.6Zm36-89.3c-3.2,0-5.1,2.7-8.8,3.3-3.5,3.4-8.1,5.7-8.1,8.8-.7,2.7-.7,6.3-3.1,6.3,0,3.8-2.2,11.6-2.3,11.2,0,7.7.7,5.8-7.2,12.8,0,2.5,1.1,2.1,6.4,6.4,0,2.5.8,5.6,2.4,6.3v1.6c0,.9-1.6,3.3-1.6,4.1,0,8.9-.3,13.1.8,15.9,0,2.1-2.8,4.4-1.6,6.4-2.8,7.2-6,2.9-8.9,7.1l.8.8h14.4c2-.8,2.7-.8,7.2-.8,3,0,3.4.8,10.5.8.7-.8.8.1.8-3.2.9-1.1-4.9-.8-7.2-.8-.5-.3-7.8-3.5-7.2-3.9l-.1-24.7c0-1.8-1.1-3.4-.8-6.4,1.2-4.6-.6-8,8.8-8,.8,0,6.4-.8,8-.8a4.89,4.89,0,0,0,1.7-3.9c0-.8-1.7-2.4-1.7-2.4H426.4c-.5,0-3.8-1.3-4.1-2.5,0-3.7-1.4-9.8-.8-11.1a20.85,20.85,0,0,1,5.6-14.4c1.3-1.1,4.8-.7,4.8-.8,3,0,5.1,2.3,8,2.3.8,0,5.5.8,6.4.8,2.1,0,5.3-3.3,4.7-4.7C451.1,34.69,451.1,30.89,434.4,30.89Z" transform="translate(0 0.01)" style="fill:#fffffc"/><path d="M376,126.79h-.2l-.3-.1h-.7c-.4,0-.9.1-1.5.1a8.42,8.42,0,0,1-3.5-.7c-.5,1.4-1.1,2.9-1.6,4.3a22.4,22.4,0,0,1-5.4,8.5c-2.3,2.3-4.5,4.8-6.9,6.9a1.85,1.85,0,0,0-1.2.5h0c-2.7-.6-5-2.1-7.3-3.3-1-.5-1.7-.5-2.3.1a10,10,0,0,0-1.9,2.7c-.8,1.8-1.3,2-3,.8-.5-.4-.6-.5-1,.1-.9,1.2-1.9,2.2-2.9,3.4h0a.52.52,0,0,0-.73.08.75.75,0,0,0-.07.12c0,.1-.1.1-.1.2l-.2.3c-.5-.1-.9-.2-1.3.2a4.88,4.88,0,0,0-2.1-.4c-2.4.2-4.9,3.6-4.6,6.6a9.65,9.65,0,0,0-.1,1.7l-.2.5a1.42,1.42,0,0,1,.2.6,1.42,1.42,0,0,1-.2-.6l-.2.3c-.7.6-.7,1.7-1.6,2.1-1.9,0-3.4,1-5,1.6-4.3,1.4-8.7,1.4-13.1,1.9h-2.6c-1.6-.4-3.4.2-5-.4a4.07,4.07,0,0,0-3-.8c-1.9.4-3.6-.8-5.5-.9a34,34,0,0,1-8.4-1.7,75.28,75.28,0,0,1-8.9-3.6c-2.4-1.1-5-2.2-7.5-3.2a26.48,26.48,0,0,1-3.7-2.1c-4.4-2.7-8.1-6.3-12.3-9.2-2.9-2-5.1-4.7-7.9-6.8-1.6-1.1-2.5-3-3.8-4.5a3.45,3.45,0,0,0-1.2-1.2,33.49,33.49,0,0,1-2.8-3.8c-2.2-.2-4.4-.5-6.2-.8l-1.3-.2c.4.8.8,1.6,1.3,2.4a36.94,36.94,0,0,0,4.1,6.9c1.2,1.7,2.3,3.4,3.6,5a105.53,105.53,0,0,0,8.4,9.4,62.85,62.85,0,0,0,9.2,7.8,81.91,81.91,0,0,0,28.4,13.5c.2.5.5.4.9.3l.8.3c.3.5.6.3,1,.1l.9.1a.48.48,0,0,0,.68.11h0l.7.2a2.24,2.24,0,0,0,2.1.2,2.86,2.86,0,0,0,2.4.3,3.12,3.12,0,0,0,2.1.5,5.93,5.93,0,0,0,2.3.1.63.63,0,0,0,.8.2.09.09,0,0,0,.1-.1h0a9.71,9.71,0,0,0,3.4,0,3.19,3.19,0,0,1-.2-1.7,4.67,4.67,0,0,0,.2,1.7l1.5.1a.76.76,0,0,0,1-.1,6.65,6.65,0,0,0,2.8-.3c3.9.7,7.7-.2,11.4-1.2a40.46,40.46,0,0,0,4.9-.6c3.5-1.1,7.1-1.7,10.5-3.4,3-1.5,6.1-2.9,9-4.4a100.09,100.09,0,0,0,9.8-6.1c3.1-2.1,6.4-4.1,8.5-7.3a1.73,1.73,0,0,0,1-.6l-.4-.3c-.1-.1-.2-.2-.3-.2.1.1.2.2.3.2l.4.3a35.83,35.83,0,0,0,5-5.3q3.3-3.9,6.3-8.1c1.5-2.2,3.3-4.3,4-7.1l.2-.5a2.52,2.52,0,0,0,1.3-1.4C377.1,127,376.3,126.89,376,126.79ZM303.9,166a.78.78,0,0,0,.4-.4A.78.78,0,0,1,303.9,166Zm7.3.7c-.2.2-.4.3-.6.5a2.62,2.62,0,0,0,.6-.5l1.5-.3Zm14-3.1a.76.76,0,0,0-.4-.2,9.33,9.33,0,0,0,.5-1l-.5,1C324.9,163.39,325,163.49,325.2,163.59Zm36.9-18.3-.3-.3c.1,0,.2.2.3.3ZM231.4,40.39a6.56,6.56,0,0,0,1.4.1,41.73,41.73,0,0,0,6.2-.7,55.22,55.22,0,0,1,6.9-.8c.8-1.3,1.6-2.5,2.4-3.8a18.84,18.84,0,0,1,3.9-5.3A92.92,92.92,0,0,1,270.3,17a2.76,2.76,0,0,1,2.9-.1,2.41,2.41,0,0,0,3-.2,6.13,6.13,0,0,1,3.4-1.7,1.17,1.17,0,0,0,1-.9c1.5-.9,3.3-.8,4.8-1.8a2.93,2.93,0,0,1,2.2-.4c1.8.5,3.4-.1,5-.6.3-.1.7-.3,1-.1,1.3.6,2.4,0,3.5-.6,2.6.4,3.5,2.9,5.4,4.2,1.5,1,2.4,2.1,2,4a6.15,6.15,0,0,0,1.1,4.7c1.4,2,3.5,2.9,5.5,4l.5.4h0a2.53,2.53,0,0,0,1,1.3c.9,2.4,1.7,2.9,4.3,2.3a8.34,8.34,0,0,1,5.4.3c2,.8,4.1,1.3,6.3.1a16.31,16.31,0,0,0,7.4-6.8,1.54,1.54,0,0,1,1.1-.8c2.9-.5,6.6,2.7,6.6,5.6a.83.83,0,0,1-.3.6c-.9.7-.2.8.3,1,1.8.7,2.1,1.5,1,3.2a9.81,9.81,0,0,0-1.6,4.4c2.1-1.9,2.5-4.6,4.8-5.8,1.2-.5,1,1.1,1.8,1.2,1.2.2,1.2,2,2.6,2.4.3.1-.2.9-.6,1.3-.5.6-1.2,1-1.5,1.9.7.1,1.1-.4,1.5-.7,1.2-.8,2.1-1.1,2.1.8,0,.9.4.8,1.2.5s1.7-.3,1.3,1.1c-.2.8-.2,1.4,1,1.5,1.8.2,2,1.3.9,2.7a5.25,5.25,0,0,0-1.4,1.9c.9-.4,1.5-.6,2.1-.9,1-.4,1.9-1.2,2.9-.3-.5.9-.7,1.7.6,2.2a2.39,2.39,0,0,1,.9.8c-1.2,1.8,0,2.2,1.4,2.4.1,0,.2.3.3.4a.91.91,0,0,0,1.1.6h0c2.5-.6,4.6,1,6.9,1.3.5,0,.8.5,1,.9-.1.5-.5.9-.3,1.4-.3.8-.6,1.7-.9,2.5-1.2.5-1.4,1.6-1.6,2.6l-.1.2h.6c.9,0,1.9-.1,2.9-.1a18.07,18.07,0,0,1,9.1,2.2c-.2-.9-.5-1.8-.8-2.8-1.2-3.6-2.2-7.3-4.2-10.7l-.3.2.3-.2c0-.1-.1-.1-.2-.2l-.8-.3h0l.8.3a3.1,3.1,0,0,0-1-2.4l-.3-1.2a34.44,34.44,0,0,0-4.9-8.5c-1.5-1.8-2.2-4-4-5.6a1.1,1.1,0,0,0-.8-.8h0c-.2-1.6-1.9-1.9-2.5-2.9-2.1-3.4-5.5-5.6-8.3-8.2a66.55,66.55,0,0,0-13.4-9.5l-2.2-1.1c-.1-.4-.2-.5-.6-.4l-.9-.5h0a.76.76,0,0,0-.9-.5,1.37,1.37,0,0,0-1.3-.6A12.85,12.85,0,0,0,332.5,6l-3.8-1.2a1.2,1.2,0,0,0-1.3-.6,31.61,31.61,0,0,1-5.2-1.7c-4.1-1.4-8.4-1.7-12.7-2.3a54.44,54.44,0,0,0-15.6.9,31.86,31.86,0,0,0-9.2,1.3c-2.2.6-4.5.7-6.5,2.1h0l-1.7.6c-2.2.6-4.4,1.2-6.6,2a49.83,49.83,0,0,0-10.4,5.7,116.12,116.12,0,0,0-11.1,7.7,74.09,74.09,0,0,0-17,19.9Zm142.1,18.7a1.84,1.84,0,0,1,.7.5,1.31,1.31,0,0,0-.7-.5c.3-.6.6-1.3.9-1.9A8.27,8.27,0,0,1,373.5,59.09Zm0-13.9h0l1,.5Zm.1-2.1a.87.87,0,0,1-.1.5,1.21,1.21,0,0,1,.5.5,1.21,1.21,0,0,0-.5-.5A.87.87,0,0,0,373.6,43.09Zm-21.2-24,1,.5c1.3,1.3,2.5,2.5,3.9,3.7-1.4-1.2-2.6-2.4-3.9-3.7h0l-1-.5-.6.5ZM340.1,11a5.57,5.57,0,0,1-.9-.7h0A1.54,1.54,0,0,0,340.1,11Zm-1-.6c-.1.2-.2.3-.4.3C338.9,10.69,339,10.59,339.1,10.39Zm-1.2.1V11a.45.45,0,0,1,0-.5l-.3-.2Zm-5.8-2.8.2.1-.2-.1a3.09,3.09,0,0,1-1,.4A4,4,0,0,0,332.1,7.69Zm-18.8-5.5.4.2-.4-.2a.35.35,0,0,1-.1.2A.35.35,0,0,0,313.3,2.19Zm-24.9,1.5-.3.6.3-.6Zm-8.4,9.8a6.86,6.86,0,0,1,.8-.9c-.3.3-.5.6-.8.9l-.6-.3Zm2.3,4a1.3,1.3,0,0,1-.9-1.4V16c.4-.6.9-1,1.6-.7a1.09,1.09,0,0,1,.72,1.35l0,.05c0,.1,0,.1-.1.2a1,1,0,0,1-1.21.73l-.09,0c.1-.1,0-.1,0-.1Z" transform="translate(0 0.01)" style="fill:#ff9318"/><path d="M10.06,165.28H24.83v1.91h-17V136.06h2.24Z" transform="translate(0 0.01)" style="fill:#fff"/><path d="M60.73,151.61a18.87,18.87,0,0,1-1.08,6.55,14.63,14.63,0,0,1-3,5,13.61,13.61,0,0,1-4.69,3.21,16.63,16.63,0,0,1-12,0,13.52,13.52,0,0,1-4.69-3.21,14.67,14.67,0,0,1-3-5,20.13,20.13,0,0,1,0-13.07,14.53,14.53,0,0,1,3-5,13.57,13.57,0,0,1,4.69-3.23,15.38,15.38,0,0,1,6-1.14,15.71,15.71,0,0,1,6,1.13,13.5,13.5,0,0,1,4.69,3.22,14.77,14.77,0,0,1,3,5A18.78,18.78,0,0,1,60.73,151.61Zm-2.33,0a17.79,17.79,0,0,0-.9-5.85,12.69,12.69,0,0,0-2.54-4.4,11,11,0,0,0-4-2.76,13.25,13.25,0,0,0-5.13-1,13,13,0,0,0-5.07,1,11.23,11.23,0,0,0-4,2.76,12.44,12.44,0,0,0-2.57,4.4,19.12,19.12,0,0,0,0,11.72,12.48,12.48,0,0,0,2.57,4.39,11.08,11.08,0,0,0,4,2.75,13.19,13.19,0,0,0,5.07.94,13.43,13.43,0,0,0,5.13-.94,10.87,10.87,0,0,0,4-2.75,12.74,12.74,0,0,0,2.54-4.39A17.82,17.82,0,0,0,58.4,151.61Z" transform="translate(0 0.01)" style="fill:#fff"/><path d="M74,136.14a.94.94,0,0,1,.37.34l20.16,27a11.35,11.35,0,0,1-.07-1.28V136.06h2v31.13H95.4a.94.94,0,0,1-.81-.44l-20.24-27q.06.66.06,1.26v26.2h-2V136.06h1.1A1.26,1.26,0,0,1,74,136.14Z" transform="translate(0 0.01)" style="fill:#fff"/><path d="M136.32,151.61a18.37,18.37,0,0,1-1.08,6.49,13.9,13.9,0,0,1-3,4.91,13.21,13.21,0,0,1-4.69,3.1,16.29,16.29,0,0,1-6,1.08H110.12V136.06h11.35a16.29,16.29,0,0,1,6,1.08,13.21,13.21,0,0,1,4.69,3.1,14,14,0,0,1,3,4.91A18.27,18.27,0,0,1,136.32,151.61Zm-2.33,0a17.36,17.36,0,0,0-.9-5.8,12.32,12.32,0,0,0-2.54-4.32,11,11,0,0,0-4-2.68,13.62,13.62,0,0,0-5.13-.92h-9.08v27.47h9.08a13.62,13.62,0,0,0,5.13-.92,11,11,0,0,0,4-2.68,12.23,12.23,0,0,0,2.54-4.32A17.45,17.45,0,0,0,134,151.61Z" transform="translate(0 0.01)" style="fill:#fff"/><path d="M175.72,151.61a19.11,19.11,0,0,1-1.07,6.55,14.49,14.49,0,0,1-3,5,13.61,13.61,0,0,1-4.69,3.21,16.63,16.63,0,0,1-12,0,13.61,13.61,0,0,1-4.69-3.21,14.82,14.82,0,0,1-3.05-5,20.31,20.31,0,0,1,0-13.07,14.68,14.68,0,0,1,3.05-5,13.66,13.66,0,0,1,4.69-3.23,15.42,15.42,0,0,1,6-1.14,15.71,15.71,0,0,1,6,1.13,13.5,13.5,0,0,1,4.69,3.22,14.63,14.63,0,0,1,3,5A19,19,0,0,1,175.72,151.61Zm-2.33,0a17.79,17.79,0,0,0-.9-5.85,12.69,12.69,0,0,0-2.54-4.4A10.93,10.93,0,0,0,166,138.6a13.25,13.25,0,0,0-5.13-1,13.08,13.08,0,0,0-5.07,1,11.23,11.23,0,0,0-4,2.76,12.75,12.75,0,0,0-2.57,4.4,19.32,19.32,0,0,0,0,11.72,12.79,12.79,0,0,0,2.57,4.39,11.08,11.08,0,0,0,4,2.75,13.26,13.26,0,0,0,5.07.94,13.43,13.43,0,0,0,5.13-.94,10.79,10.79,0,0,0,3.95-2.75,12.74,12.74,0,0,0,2.54-4.39A17.82,17.82,0,0,0,173.39,151.61Z" transform="translate(0 0.01)" style="fill:#fff"/><path d="M189,136.14a1,1,0,0,1,.38.34l20.15,27c0-.44-.07-.87-.07-1.28V136.06h2v31.13H210.4a1,1,0,0,1-.82-.44l-20.24-27a11.13,11.13,0,0,1,.07,1.26v26.2h-2V136.06h1.1A1.22,1.22,0,0,1,189,136.14Z" transform="translate(0 0.01)" style="fill:#fff"/></svg>